<svg width="559" height="373" viewBox="0 0 559 373" fill="none" xmlns="http://www.w3.org/2000/svg">
<g clip-path="url(#clip0)">
<path d="M163.887 91.459L80.2598 147.4L162.632 270.539L246.259 214.598L163.887 91.459Z" fill="#F5F5F5"/>
<path d="M203.044 208.773L202.098 214.647L160.523 208.654L161.47 202.781L203.044 208.773Z" fill="#E0E0E0"/>
<path d="M182.108 187.823L188.07 188.68L181.459 229.613L175.489 228.749L182.108 187.823Z" fill="#E0E0E0"/>
<path d="M143.85 135.797C143.909 135.879 135.532 141.596 125.134 148.543C114.737 155.489 106.263 161.064 106.203 160.975C106.143 160.885 114.521 155.176 124.918 148.222C135.316 141.268 143.753 135.708 143.85 135.797Z" fill="#E0E0E0"/>
<path d="M174.573 128.077C174.633 128.166 160.695 137.587 143.448 149.125C126.201 160.663 112.144 169.942 112.099 169.86C112.055 169.778 125.962 160.342 143.232 148.805C160.501 137.267 174.513 127.987 174.573 128.077Z" fill="#E0E0E0"/>
<path d="M180.737 137.289C180.796 137.379 166.859 146.807 149.612 158.345C132.365 169.883 118.308 179.162 118.263 179.073C118.218 178.983 132.141 169.562 149.395 158.017C166.65 146.472 180.677 137.2 180.737 137.289Z" fill="#E0E0E0"/>
<path d="M186.901 146.509C186.96 146.598 173.023 156.027 155.776 167.557C138.529 179.087 124.472 188.382 124.472 188.292C124.472 188.203 138.342 178.774 155.597 167.237C172.851 155.699 186.841 146.42 186.901 146.509Z" fill="#E0E0E0"/>
<path d="M193.043 155.728C193.102 155.818 179.165 165.239 161.918 176.776C144.671 188.314 130.614 197.594 130.576 197.504C130.539 197.415 144.469 187.994 161.739 176.456C179.008 164.918 193.043 155.639 193.043 155.728Z" fill="#E0E0E0"/>
<path d="M443.525 173.97L373.292 220.951L442.469 324.365L512.703 277.384L443.525 173.97Z" fill="#F5F5F5"/>
<path d="M476.418 272.515L475.62 277.449L440.701 272.418L441.506 267.484L476.418 272.515Z" fill="#E0E0E0"/>
<path d="M458.835 254.918L463.844 255.641L458.291 290.015L453.275 289.292L458.835 254.918Z" fill="#E0E0E0"/>
<path d="M426.674 211.263C426.733 211.353 419.705 216.16 410.97 221.996C402.234 227.832 395.109 232.498 395.049 232.431C394.99 232.364 402.025 227.541 410.753 221.698C419.481 215.854 426.614 211.137 426.674 211.263Z" fill="#E0E0E0"/>
<path d="M452.5 204.741C452.559 204.831 440.865 212.761 426.413 222.443C411.961 232.125 400.133 239.921 400.073 239.832C400.013 239.742 411.708 231.812 426.16 222.123C440.612 212.433 452.418 204.652 452.5 204.741Z" fill="#E0E0E0"/>
<path d="M457.68 212.478C457.74 212.568 446.045 220.498 431.593 230.187C417.141 239.877 405.313 247.658 405.253 247.568C405.194 247.479 416.851 239.586 431.34 229.897C445.829 220.207 457.635 212.396 457.68 212.478Z" fill="#E0E0E0"/>
<path d="M462.852 220.207C462.912 220.296 451.21 228.227 436.766 237.916C422.321 247.605 410.485 255.387 410.426 255.297C410.366 255.208 422.06 247.285 436.512 237.588C450.964 227.891 462.8 220.132 462.852 220.207Z" fill="#E0E0E0"/>
<path d="M468.071 227.966C468.13 228.055 456.436 235.978 441.984 245.667C427.532 255.357 415.703 263.138 415.644 263.056C415.584 262.974 427.278 255.036 441.73 245.347C456.182 235.657 467.974 227.876 468.071 227.966Z" fill="#E0E0E0"/>
<path d="M332.413 95.9897L255.78 55.0024L195.427 167.843L272.061 208.83L332.413 95.9897Z" fill="#F5F5F5"/>
<path d="M258.944 173.526L254.084 175.188L241.742 141.074L246.609 139.405L258.944 173.526Z" fill="#E0E0E0"/>
<path d="M266.398 149.05L268.172 153.947L234.289 165.552L232.515 160.655L266.398 149.05Z" fill="#E0E0E0"/>
<path d="M290.473 98.7178C290.413 98.8296 282.647 94.7899 273.114 89.6993C263.581 84.6087 255.911 80.3826 255.971 80.2708C256.031 80.159 263.805 84.1987 273.337 89.2894C282.87 94.38 290.532 98.5986 290.473 98.7178Z" fill="#E0E0E0"/>
<path d="M308.867 119.013C308.807 119.125 295.943 112.357 280.134 103.905C264.326 95.4532 251.566 88.5067 251.625 88.3949C251.685 88.2831 264.542 95.0433 280.35 103.503C296.159 111.962 308.926 118.901 308.867 119.013Z" fill="#E0E0E0"/>
<path d="M304.35 127.458C304.291 127.57 291.426 120.81 275.618 112.35C259.809 103.891 247.049 96.9515 247.109 96.8397C247.168 96.7279 260.025 103.496 275.834 111.948C291.642 120.4 304.41 127.346 304.35 127.458Z" fill="#E0E0E0"/>
<path d="M299.833 135.902C299.773 136.014 286.909 129.254 271.101 120.802C255.292 112.35 242.532 105.426 242.592 105.292C242.651 105.157 255.508 111.94 271.317 120.392C287.125 128.844 299.893 135.791 299.833 135.902Z" fill="#E0E0E0"/>
<path d="M295.317 144.347C295.257 144.459 282.392 137.699 266.584 129.247C250.775 120.795 238.008 113.848 238.075 113.736C238.142 113.625 250.992 120.385 266.8 128.837C282.609 137.289 295.376 144.236 295.317 144.347Z" fill="#E0E0E0"/>
<path opacity="0.2" d="M295.711 0.33374H293.788V33.1135H295.711V0.33374Z" fill="black"/>
<path d="M249.858 72.7725H339.641C339.641 72.7725 331.353 33.1282 294.071 33.1282C260.911 33.1282 249.858 72.7725 249.858 72.7725Z" fill="#F2994A"/>
<path d="M295.711 0.33374H293.788V33.1135H295.711V0.33374Z" fill="#F2994A"/>
<path d="M494.655 328.153C494.655 328.258 398.321 328.347 279.507 328.347C160.693 328.347 64.3442 328.28 64.3442 328.153C64.3442 328.027 160.664 327.96 279.507 327.96C398.35 327.96 494.655 328.042 494.655 328.153Z" fill="#263238"/>
<path d="M88.1654 281.473C89.4255 281.564 90.6544 281.908 91.7787 282.484C92.9031 283.06 93.8998 283.857 94.7094 284.827C96.3192 286.778 97.4591 289.073 98.0411 291.535C99.3007 296.245 98.5255 301.813 97.1839 306.501C92.0858 304.675 88.9331 299.234 87.4946 296.372C85.2586 291.855 83.9245 282.315 88.143 281.465" fill="#F2994A"/>
<path d="M104.525 312.218C103.759 311.03 103.322 309.662 103.256 308.25C103.191 306.839 103.5 305.436 104.152 304.183C104.825 302.942 105.738 301.847 106.839 300.963C107.94 300.078 109.205 299.422 110.562 299.033C111.807 298.645 113.253 298.489 114.333 299.211C114.821 299.58 115.2 300.072 115.432 300.637C115.664 301.202 115.74 301.819 115.653 302.424C115.457 303.635 114.943 304.772 114.162 305.718C111.68 309.08 108.669 311.875 104.473 312.218" fill="#F2994A"/>
<path d="M105.091 327.967C104.981 327.65 104.903 327.323 104.86 326.99C104.726 326.29 104.547 325.388 104.331 324.307C103.662 321.348 103.476 318.3 103.78 315.281C104.131 312.248 105.286 309.363 107.126 306.926C107.688 306.197 108.336 305.539 109.057 304.966C109.252 304.811 109.456 304.666 109.668 304.534C109.735 304.478 109.81 304.432 109.891 304.399C108.949 305.205 108.087 306.101 107.32 307.075C105.577 309.515 104.48 312.356 104.13 315.333C103.653 318.807 104.242 321.989 104.585 324.277C104.763 325.418 104.913 326.342 104.994 326.983C105.053 327.308 105.086 327.637 105.091 327.967Z" fill="#263238"/>
<path d="M89.8047 288.651C89.8898 288.768 89.9599 288.896 90.0134 289.031C90.1475 289.329 90.3264 289.702 90.5351 290.171C90.9898 291.162 91.6233 292.601 92.391 294.382C93.9264 297.952 95.9835 302.916 98.1301 308.447C100.277 313.977 102.103 319.023 103.347 322.697C103.988 324.531 104.488 326.022 104.838 327.058C104.995 327.55 105.114 327.945 105.211 328.25C105.264 328.387 105.301 328.53 105.323 328.675C105.247 328.549 105.187 328.413 105.144 328.273C105.032 327.974 104.89 327.587 104.704 327.102L103.131 322.779C101.797 319.135 99.9338 314.096 97.7947 308.573C95.6556 303.05 93.6282 298.072 92.1525 294.479C91.4072 292.713 90.8333 291.274 90.4084 290.223C90.2146 289.746 90.0581 289.366 89.9388 289.061C89.8829 288.928 89.838 288.791 89.8047 288.651Z" fill="#263238"/>
<path d="M99.032 317.547C97.4984 314.994 95.3791 312.842 92.8492 311.27C90.3193 309.698 87.4516 308.751 84.4831 308.507C82.9925 308.402 81.159 308.656 80.4882 309.997C79.8174 311.339 80.7118 312.979 81.7403 314.067C83.9257 316.353 86.7389 317.941 89.8254 318.631C92.912 319.32 96.1336 319.081 99.0842 317.942" fill="#F2994A"/>
<path d="M86.7793 312.546C87.0953 312.53 87.4121 312.543 87.7259 312.583C88.0934 312.603 88.4593 312.645 88.8215 312.71C89.2464 312.792 89.7458 312.837 90.2675 312.986C90.8507 313.109 91.4257 313.268 91.9892 313.463C92.6421 313.672 93.2818 313.921 93.9047 314.208C95.3376 314.85 96.6928 315.652 97.9444 316.6C99.1815 317.571 100.302 318.681 101.284 319.91C101.707 320.444 102.098 321.004 102.454 321.587C102.775 322.09 103.069 322.61 103.333 323.144C103.557 323.58 103.756 324.028 103.929 324.486C104.079 324.825 104.206 325.174 104.31 325.53C104.42 325.827 104.502 326.134 104.556 326.446C104.474 326.446 104.116 325.164 103.11 323.256C102.836 322.744 102.535 322.246 102.208 321.766C101.845 321.201 101.451 320.656 101.03 320.133C99.0806 317.724 96.5945 315.805 93.7706 314.528C93.1221 314.245 92.5035 313.977 91.8998 313.783C91.3455 313.581 90.7807 313.41 90.2079 313.269C88.1209 312.695 86.7719 312.628 86.7793 312.546Z" fill="#263238"/>
<path d="M425.108 78.9517C422.917 79.451 421.851 81.9777 421.643 84.2137C421.434 86.4497 421.717 88.8199 420.778 90.8621C419.72 93.1577 417.193 94.8571 417.111 97.3838C417.059 98.9266 417.975 100.365 417.931 101.923C417.856 104.457 415.277 106.395 415.136 108.899C415.039 110.725 416.254 112.469 415.963 114.273C415.74 115.674 414.644 116.777 414.182 118.119C413.265 120.802 415.106 123.746 417.499 125.252C418.839 126.094 420.347 126.634 421.918 126.834C423.488 127.033 425.084 126.887 426.592 126.406C428.1 125.924 429.485 125.12 430.65 124.047C431.815 122.975 432.732 121.662 433.337 120.198C434.664 116.979 434.373 113.349 434.082 109.883C433.188 99.0707 432.522 88.2435 432.085 77.4014" fill="#263238"/>
<path d="M418.743 117.098C419.194 116.817 419.546 116.403 419.749 115.912C419.964 115.329 420.051 114.706 420.003 114.086C419.921 113.265 419.738 112.456 419.459 111.679C419.102 110.702 418.97 109.658 419.071 108.623C419.257 107.46 420.092 106.506 420.845 105.567C421.25 105.108 421.589 104.593 421.851 104.039C422.114 103.479 422.156 102.841 421.97 102.25C421.583 101.036 420.39 100.141 419.846 98.7325C419.59 98.0352 419.549 97.2773 419.727 96.5562C419.896 95.88 420.146 95.2268 420.472 94.6108C421.102 93.5014 421.602 92.3236 421.963 91.1003C422.485 88.7376 422.239 86.4792 422.597 84.6234C422.795 83.137 423.454 81.7502 424.482 80.6582C424.773 80.364 425.104 80.113 425.466 79.9128C425.591 79.8479 425.724 79.8002 425.861 79.7712C425.394 80.0284 424.965 80.3495 424.587 80.7253C423.634 81.8282 423.035 83.1912 422.865 84.6383C422.734 85.6268 422.664 86.6225 422.656 87.6196C422.654 88.7931 422.539 89.9636 422.313 91.1152C421.958 92.3666 421.457 93.5722 420.823 94.7077C420.264 95.8779 419.749 97.2493 420.241 98.5313C420.733 99.8133 421.918 100.7 422.373 102.072C422.578 102.749 422.528 103.478 422.231 104.121C421.941 104.731 421.564 105.296 421.113 105.798C420.368 106.737 419.556 107.632 419.377 108.675C419.272 109.665 419.389 110.666 419.72 111.604C419.986 112.406 420.151 113.237 420.211 114.079C420.248 114.727 420.133 115.376 419.876 115.972C419.716 116.346 419.459 116.67 419.131 116.911C419.014 116.997 418.883 117.06 418.743 117.098Z" fill="#455A64"/>
<path d="M412.916 134.769L406.208 154.148L378.153 155.639L373.473 166.073L402.764 169.055C404.148 169.623 405.633 169.904 407.129 169.883C408.625 169.861 410.1 169.536 411.467 168.928C412.834 168.32 414.063 167.441 415.081 166.344C416.099 165.248 416.883 163.956 417.388 162.548L425.206 140.725L412.916 134.769Z" fill="#B78876"/>
<path d="M470.909 317.622C470.909 317.622 450.353 252.316 449.913 250.199C449.518 248.276 457.367 201.283 458.365 189.082L430.587 190.118V190.393L418.781 191.049L429.35 324.553H442.132L440.865 280.243C448.751 301.403 460.05 322.973 460.05 322.973L470.909 317.622Z" fill="#B78876"/>
<path d="M441.387 296.141C441.387 295.739 441.231 281.294 441.231 281.294C441.074 282.159 436.334 268.758 436.446 267.945C436.505 267.52 441.387 296.141 441.387 296.141Z" fill="#A36957"/>
<path d="M435.909 261.595C435.844 261.861 435.816 262.134 435.827 262.408C435.786 263.152 435.786 263.899 435.827 264.644C435.827 265.113 435.894 265.62 435.954 266.172C436.014 266.723 436.096 267.304 436.222 267.908C436.487 269.227 436.838 270.526 437.273 271.799C438.197 274.504 439.226 276.867 439.949 278.581C440.292 279.327 440.59 280.035 440.843 280.601C440.935 280.865 441.06 281.115 441.216 281.347C441.176 281.089 441.101 280.838 440.992 280.601C440.821 280.109 440.56 279.401 440.247 278.529C439.591 276.785 438.607 274.4 437.691 271.724C437.257 270.47 436.901 269.191 436.625 267.893C436.491 267.297 436.401 266.723 436.319 266.186C436.237 265.65 436.178 265.143 436.14 264.696C436.051 263.772 436.014 263.026 435.991 262.505C436.005 262.199 435.978 261.893 435.909 261.595Z" fill="#A36957"/>
<path d="M429.111 325.232V324.032L442.207 323.458L442.244 328.415L441.439 328.467C437.839 328.676 423.141 329.287 420.741 328.564C418.051 327.759 429.111 325.232 429.111 325.232Z" fill="#455A64"/>
<path d="M442.416 328.116C442.341 328.121 442.267 328.121 442.192 328.116L441.551 328.161L439.181 328.265C437.183 328.347 434.418 328.422 431.37 328.437C428.321 328.452 425.549 328.399 423.544 328.34L421.181 328.243H420.533H420.309C420.383 328.237 420.458 328.237 420.533 328.243H421.181L423.551 328.288C425.549 328.288 428.314 328.347 431.362 328.332C434.411 328.317 437.183 328.265 439.181 328.213L441.551 328.153H442.416V328.116Z" fill="#263238"/>
<path d="M424.841 328.534C424.732 328.144 424.582 327.766 424.393 327.408C424.158 327.078 423.885 326.775 423.581 326.506C423.988 326.652 424.326 326.944 424.528 327.326C424.774 327.678 424.885 328.107 424.841 328.534Z" fill="#263238"/>
<path d="M428.701 326.574C428.701 326.574 428.485 326.372 428.291 326.074C428.098 325.776 427.978 325.515 428.016 325.493C428.053 325.47 428.232 325.687 428.426 325.985C428.619 326.283 428.739 326.551 428.701 326.574Z" fill="#263238"/>
<path d="M429.759 326.044C429.759 326.082 429.521 325.94 429.297 325.739C429.074 325.538 428.91 325.351 428.94 325.322C428.969 325.292 429.178 325.426 429.402 325.627C429.625 325.828 429.789 325.977 429.759 326.044Z" fill="#263238"/>
<path d="M430.423 324.778C430.204 324.858 429.97 324.888 429.737 324.867C429.509 324.897 429.277 324.874 429.059 324.8C429.276 324.72 429.507 324.689 429.737 324.71C429.968 324.679 430.203 324.702 430.423 324.778Z" fill="#263238"/>
<path d="M430.647 323.913C430.425 324.057 430.166 324.134 429.902 324.136C429.648 324.17 429.391 324.134 429.156 324.032C429.402 323.99 429.652 323.97 429.902 323.972C430.148 323.928 430.397 323.908 430.647 323.913Z" fill="#263238"/>
<path d="M428.262 325.433C427.984 325.485 427.698 325.485 427.42 325.433C427.119 325.397 426.822 325.332 426.533 325.239C426.354 325.19 426.181 325.12 426.019 325.031C425.919 324.972 425.845 324.879 425.81 324.77C425.796 324.708 425.801 324.643 425.823 324.583C425.846 324.524 425.885 324.472 425.937 324.434C426.143 324.334 426.369 324.281 426.598 324.279C426.828 324.277 427.055 324.326 427.263 324.422C427.471 324.519 427.655 324.66 427.802 324.836C427.949 325.012 428.055 325.218 428.113 325.441C428.128 325.514 428.128 325.59 428.113 325.664C428.029 325.395 427.897 325.142 427.725 324.919C427.527 324.696 427.268 324.535 426.98 324.457C426.65 324.35 426.292 324.377 425.981 324.531C425.855 324.628 425.907 324.785 426.048 324.874C426.201 324.956 426.36 325.024 426.525 325.075C426.806 325.167 427.092 325.24 427.383 325.291C427.942 325.411 428.262 325.411 428.262 325.433Z" fill="#263238"/>
<path d="M428.045 325.478C427.937 325.305 427.899 325.097 427.941 324.897C427.968 324.678 428.047 324.468 428.172 324.286C428.242 324.161 428.342 324.056 428.463 323.981C428.584 323.905 428.723 323.862 428.865 323.854C428.95 323.873 429.023 323.924 429.072 323.996C429.12 324.068 429.14 324.155 429.126 324.241C429.108 324.374 429.059 324.502 428.984 324.614C428.871 324.799 428.739 324.971 428.589 325.128C428.46 325.277 428.296 325.392 428.112 325.463C428.112 325.463 428.276 325.314 428.507 325.046C428.641 324.892 428.759 324.725 428.858 324.547C428.97 324.368 429.052 324.047 428.858 324.01C428.664 323.973 428.44 324.204 428.314 324.368C428.195 324.529 428.114 324.715 428.075 324.912C428.045 325.099 428.035 325.289 428.045 325.478Z" fill="#263238"/>
<path d="M442.14 324.554C442.14 324.554 441.767 324.554 441.178 324.591C440.412 324.683 439.686 324.988 439.084 325.471C438.482 325.955 438.027 326.598 437.772 327.326C437.578 327.885 437.564 328.266 437.534 328.258C437.504 328.251 437.534 328.161 437.534 327.997C437.553 327.757 437.598 327.52 437.668 327.289C437.905 326.526 438.361 325.85 438.98 325.344C439.606 324.847 440.367 324.549 441.164 324.487C441.411 324.457 441.661 324.457 441.909 324.487C441.988 324.499 442.066 324.522 442.14 324.554Z" fill="#263238"/>
<path d="M435.872 327.073C435.247 327.218 434.605 327.281 433.964 327.259C433.326 327.291 432.686 327.236 432.063 327.095C432.063 327.05 432.913 327.095 433.964 327.095C435.014 327.095 435.864 327.028 435.872 327.073Z" fill="#263238"/>
<path d="M438.42 327.05C438.42 327.05 438.353 327.229 438.264 327.423C438.174 327.617 438.129 327.796 438.085 327.788C438.04 327.781 438.018 327.587 438.122 327.356C438.226 327.125 438.39 327.013 438.42 327.05Z" fill="#263238"/>
<path d="M439.382 325.851C439.382 325.851 439.33 326.015 439.196 326.149C439.062 326.283 438.928 326.373 438.89 326.343C438.853 326.313 438.943 326.179 439.077 326.037C439.211 325.895 439.345 325.814 439.382 325.851Z" fill="#263238"/>
<path d="M440.753 325.299C440.753 325.344 440.574 325.344 440.381 325.411C440.187 325.478 440.053 325.582 440.015 325.553C439.978 325.523 440.09 325.344 440.328 325.262C440.567 325.18 440.768 325.254 440.753 325.299Z" fill="#263238"/>
<path d="M441.729 325.031C441.729 325.076 441.677 325.143 441.565 325.18C441.454 325.217 441.357 325.225 441.342 325.18C441.327 325.135 441.401 325.068 441.506 325.031C441.61 324.994 441.714 324.994 441.729 325.031Z" fill="#263238"/>
<path d="M459.789 324.077L459.297 322.981L471.006 317.101L473.071 321.573L472.325 321.953C469.128 323.615 455.973 330.189 453.483 330.517C450.733 330.912 459.789 324.077 459.789 324.077Z" fill="#455A64"/>
<path d="M473.115 321.252L472.922 321.371L472.348 321.669L470.231 322.742C468.442 323.629 465.953 324.829 463.173 326.096C460.392 327.363 457.843 328.444 455.995 329.212L453.796 330.099L453.2 330.33C453.131 330.362 453.059 330.384 452.984 330.397L453.185 330.3L453.774 330.039L455.95 329.108C457.791 328.317 460.325 327.214 463.106 325.947C465.886 324.68 468.382 323.503 470.186 322.638L472.318 321.617L472.907 321.341L473.115 321.252Z" fill="#263238"/>
<path d="M457.277 328.832C457.019 328.517 456.726 328.232 456.405 327.982C456.055 327.775 455.683 327.61 455.294 327.49C455.722 327.485 456.142 327.61 456.496 327.85C456.851 328.09 457.123 328.433 457.277 328.832Z" fill="#263238"/>
<path d="M459.968 325.463C459.968 325.463 459.685 325.373 459.387 325.18C459.088 324.986 458.872 324.799 458.895 324.762C458.917 324.725 459.178 324.852 459.476 325.045C459.774 325.239 459.99 325.425 459.968 325.463Z" fill="#263238"/>
<path d="M460.698 324.554C460.698 324.591 460.445 324.554 460.154 324.464C459.864 324.375 459.648 324.263 459.655 324.218C459.843 324.201 460.033 324.232 460.207 324.308C460.49 324.375 460.713 324.479 460.698 324.554Z" fill="#263238"/>
<path d="M460.803 323.123C460.803 323.167 460.557 323.324 460.214 323.488C460.016 323.607 459.795 323.68 459.565 323.704C459.565 323.659 459.811 323.503 460.147 323.339C460.347 323.22 460.571 323.147 460.803 323.123Z" fill="#263238"/>
<path d="M460.654 322.243C460.654 322.243 460.438 322.541 460.051 322.757C459.831 322.906 459.571 322.984 459.305 322.981C459.519 322.837 459.746 322.715 459.983 322.616C460.349 322.414 460.617 322.206 460.654 322.243Z" fill="#263238"/>
<path d="M459.126 324.614C458.899 324.77 458.647 324.885 458.381 324.956C458.088 325.042 457.789 325.104 457.487 325.143C457.304 325.166 457.118 325.166 456.935 325.143C456.82 325.134 456.713 325.081 456.637 324.994C456.602 324.94 456.584 324.878 456.584 324.815C456.584 324.751 456.602 324.689 456.637 324.636C456.864 324.361 457.179 324.174 457.528 324.106C457.877 324.038 458.24 324.094 458.553 324.263C458.737 324.36 458.9 324.495 459.03 324.658C459.119 324.778 459.156 324.852 459.149 324.86C458.965 324.655 458.745 324.485 458.5 324.36C458.238 324.237 457.945 324.193 457.658 324.233C457.487 324.251 457.322 324.302 457.171 324.384C457.02 324.466 456.887 324.577 456.779 324.71C456.697 324.852 456.779 324.971 456.98 324.994C457.151 325.008 457.323 325.008 457.494 324.994C457.791 324.964 458.085 324.912 458.374 324.837C458.799 324.718 459.126 324.591 459.126 324.614Z" fill="#263238"/>
<path d="M458.917 324.74C458.751 324.622 458.634 324.447 458.589 324.248C458.524 324.039 458.508 323.816 458.544 323.6C458.557 323.457 458.606 323.319 458.687 323.201C458.768 323.082 458.878 322.986 459.007 322.922C459.193 322.862 459.625 323.242 459.655 323.384C459.685 323.525 459.439 323.451 459.424 323.57C459.4 323.782 459.35 323.989 459.275 324.189C459.221 324.38 459.118 324.555 458.977 324.695C458.977 324.695 459.066 324.494 459.171 324.159C459.224 323.961 459.261 323.759 459.282 323.555C459.282 323.346 459.282 323.026 459.044 323.078C458.805 323.13 458.738 323.421 458.686 323.63C458.641 323.823 458.641 324.025 458.686 324.218C458.748 324.399 458.825 324.573 458.917 324.74Z" fill="#263238"/>
<path d="M471.401 318.114C471.401 318.114 471.044 318.241 470.537 318.546C469.874 318.943 469.335 319.515 468.979 320.201C468.634 320.893 468.487 321.667 468.554 322.437C468.599 323.033 468.741 323.376 468.711 323.391C468.662 323.317 468.625 323.237 468.599 323.152C468.525 322.924 468.473 322.69 468.442 322.452C468.336 321.658 468.473 320.851 468.837 320.137C469.2 319.423 469.772 318.837 470.477 318.457C470.688 318.34 470.91 318.245 471.14 318.174C471.224 318.141 471.312 318.121 471.401 318.114Z" fill="#263238"/>
<path d="M466.713 322.989C465.662 323.719 464.488 324.255 463.248 324.569C463.248 324.524 464.03 324.226 464.984 323.823C465.938 323.421 466.691 322.951 466.713 322.989Z" fill="#263238"/>
<path d="M469.031 321.923C469.069 321.923 469.031 322.109 469.031 322.326C469.031 322.542 469.031 322.721 469.031 322.735C469.031 322.75 468.882 322.571 468.882 322.326C468.882 322.08 468.994 321.901 469.031 321.923Z" fill="#263238"/>
<path d="M469.411 320.432C469.449 320.432 469.411 320.603 469.367 320.782C469.322 320.961 469.21 321.095 469.173 321.08C469.136 321.065 469.173 320.909 469.218 320.73C469.262 320.551 469.367 320.417 469.411 320.432Z" fill="#263238"/>
<path d="M470.44 319.337C470.44 319.381 470.291 319.448 470.141 319.59C469.992 319.732 469.91 319.881 469.873 319.866C469.836 319.851 469.873 319.642 470.037 319.471C470.201 319.299 470.432 319.337 470.44 319.337Z" fill="#263238"/>
<path d="M471.223 318.725C471.223 318.725 471.223 318.844 471.133 318.926C471.044 319.008 470.962 319.053 470.932 319.023C470.902 318.993 470.932 318.904 471.022 318.822C471.111 318.74 471.193 318.695 471.223 318.725Z" fill="#263238"/>
<path d="M456.562 167.02L454.385 140.411L465.565 140.613C465.565 140.613 466.08 136.685 464.433 128.083C463.419 122.807 459.908 119.572 455.966 117.649V117.574L455.623 117.485C452.377 116.028 448.911 115.123 445.367 114.809L431.616 114.966C431.616 114.966 421.114 113.624 415.323 121.144C413.087 124.029 406.147 143.773 406.147 143.773L422.657 151.718L421.114 140.769C421.114 140.769 421.427 148.707 422.44 151.204C422.999 152.605 424.676 156.958 424.676 156.958L424.46 170.09L456.562 167.02Z" fill="#F2994A"/>
<path d="M448.981 136.551L446.939 145.242H466.191L464.924 130.663L448.981 136.551Z" fill="#F2994A"/>
<path d="M466.191 145.241C465.35 145.086 464.497 145.002 463.642 144.988C462.062 144.898 459.916 144.816 457.471 144.831C455.026 144.846 452.872 144.951 451.292 145.07C450.437 145.1 449.587 145.204 448.75 145.383C449.604 145.451 450.461 145.451 451.314 145.383C452.887 145.331 455.041 145.271 457.471 145.264C459.901 145.256 462.055 145.264 463.635 145.301C464.487 145.349 465.342 145.329 466.191 145.241Z" fill="#263238"/>
<path d="M448.148 130.596C448.056 131.337 448.036 132.086 448.088 132.832C448.088 134.196 448.148 136.074 448.229 138.153C448.311 140.233 448.408 142.119 448.498 143.475C448.501 144.227 448.581 144.976 448.736 145.711C448.828 144.969 448.848 144.221 448.796 143.475C448.796 142.111 448.736 140.225 448.654 138.146C448.572 136.066 448.475 134.188 448.386 132.824C448.383 132.075 448.303 131.328 448.148 130.596Z" fill="#263238"/>
<g opacity="0.3">
<path opacity="0.3" d="M430.632 138.124C430.632 138.124 434.91 169.853 446.94 169.011C446.94 169.011 452.358 168.951 454.095 165.351V163.935L430.632 138.124Z" fill="black"/>
</g>
<g opacity="0.3">
<path opacity="0.3" d="M448.147 132.467L445.844 148.022L447.334 150.75L449.794 145.413L448.751 145.383L448.147 132.467Z" fill="black"/>
</g>
<path d="M424.61 156.973C424.467 156.741 424.356 156.49 424.282 156.228C424.095 155.743 423.849 155.035 423.536 154.148C422.79 151.837 422.175 149.486 421.695 147.105C421.217 144.723 420.913 142.309 420.786 139.883C420.741 138.951 420.726 138.198 420.741 137.647C420.722 137.377 420.74 137.106 420.794 136.842C420.853 136.842 420.898 137.989 421.054 139.823C421.264 142.227 421.605 144.618 422.076 146.986C422.627 149.758 423.29 152.24 423.797 154.021C424.036 154.849 424.237 155.557 424.401 156.138C424.503 156.407 424.573 156.687 424.61 156.973Z" fill="#263238"/>
<path d="M429.469 166.088C429.365 166.088 429.067 165.44 428.806 164.597C428.581 164.081 428.482 163.52 428.515 162.958C428.844 163.413 429.07 163.934 429.178 164.486C429.392 164.992 429.492 165.539 429.469 166.088Z" fill="#263238"/>
<path d="M431.131 165.969C430.567 164.474 430.543 162.829 431.064 161.318C431.122 162.092 431.122 162.87 431.064 163.644C431.145 164.416 431.167 165.194 431.131 165.969Z" fill="#263238"/>
<path d="M422.992 152.084C422.94 152.174 419.102 150.355 414.414 148.015C409.725 145.674 405.962 143.692 406.006 143.595C406.051 143.498 409.897 145.324 414.585 147.664C419.273 150.005 423.037 151.987 422.992 152.084Z" fill="#263238"/>
<path d="M429.759 117.537C429.841 113.766 429.864 109.801 429.864 109.801C429.864 109.801 425.026 108.869 424.184 102.504C423.379 96.437 425.63 82.1937 425.63 82.1937C432.696 79.5254 440.037 81.9478 444.875 87.6719L443.675 118.283C443.533 121.838 440.365 124.551 436.564 124.372C432.718 124.186 429.677 121.13 429.759 117.537Z" fill="#B78876"/>
<path d="M425.258 93.5749C425.251 93.7839 425.325 93.9874 425.463 94.144C425.602 94.3005 425.795 94.3983 426.003 94.4172C426.109 94.4274 426.216 94.4159 426.317 94.3835C426.418 94.3511 426.512 94.2985 426.592 94.2287C426.672 94.159 426.737 94.0736 426.783 93.9779C426.829 93.8821 426.856 93.778 426.86 93.6718C426.867 93.4637 426.793 93.261 426.654 93.1056C426.515 92.9503 426.322 92.8541 426.115 92.837C426.009 92.8209 425.9 92.828 425.797 92.8577C425.694 92.8874 425.598 92.939 425.517 93.0091C425.435 93.0792 425.37 93.166 425.325 93.2637C425.281 93.3613 425.258 93.4675 425.258 93.5749Z" fill="#263238"/>
<path d="M424.959 92.5092C425.056 92.6136 425.705 92.1738 426.562 92.2037C427.419 92.2335 428.052 92.6807 428.157 92.5763C428.261 92.472 428.112 92.3378 427.836 92.1217C427.463 91.8513 427.015 91.7029 426.554 91.6968C426.1 91.6795 425.653 91.8103 425.28 92.0695C425.004 92.2707 424.907 92.4571 424.959 92.5092Z" fill="#263238"/>
<path d="M434.135 94.1262C434.127 94.3356 434.2 94.5402 434.339 94.6971C434.478 94.8541 434.672 94.9513 434.881 94.9684C434.988 94.9846 435.097 94.9774 435.2 94.9473C435.304 94.9172 435.4 94.8649 435.482 94.794C435.563 94.7231 435.628 94.6353 435.673 94.5367C435.717 94.4381 435.739 94.3311 435.738 94.2231C435.746 94.0145 435.673 93.8108 435.534 93.655C435.395 93.4992 435.201 93.4036 434.993 93.3883C434.886 93.3722 434.778 93.3792 434.675 93.4089C434.571 93.4386 434.476 93.4903 434.394 93.5604C434.313 93.6304 434.248 93.7173 434.203 93.8149C434.158 93.9126 434.135 94.0188 434.135 94.1262Z" fill="#263238"/>
<path d="M434.075 93.0607C434.172 93.1725 434.821 92.7328 435.678 92.7551C436.535 92.7775 437.169 93.2321 437.28 93.1278C437.392 93.0234 437.228 92.8893 436.952 92.6806C436.585 92.4031 436.138 92.2515 435.678 92.2483C435.222 92.2346 434.773 92.365 434.396 92.621C434.128 92.8222 434.031 93.0085 434.075 93.0607Z" fill="#263238"/>
<path d="M430.736 99.4632C430.278 99.3059 429.802 99.2082 429.319 99.1725C429.096 99.1725 428.887 99.0905 428.857 98.9414C428.839 98.7085 428.897 98.4759 429.021 98.2781L429.722 96.6011C430.374 95.1758 430.91 93.7002 431.324 92.1887C430.561 93.5582 429.908 94.9863 429.372 96.4595C429.141 97.0483 428.91 97.6148 428.693 98.1514C428.549 98.4177 428.501 98.726 428.559 99.0234C428.588 99.1042 428.636 99.1772 428.698 99.2367C428.76 99.2961 428.835 99.3405 428.917 99.3663C429.041 99.4021 429.168 99.4221 429.297 99.4259C429.773 99.4992 430.256 99.5117 430.736 99.4632Z" fill="#263238"/>
<path d="M429.864 109.801C432.846 109.92 435.803 109.211 438.406 107.751C438.406 107.751 436.237 112.052 429.909 111.299L429.864 109.801Z" fill="#A36957"/>
<path d="M436.878 90.5185C436.699 90.7943 436.028 90.675 435.283 90.5185C434.537 90.362 433.882 90.2353 433.792 89.9148C433.703 89.5943 434.485 89.1694 435.484 89.3707C436.483 89.5719 437.057 90.28 436.878 90.5185Z" fill="#263238"/>
<path d="M428.18 89.2515C428.113 89.572 427.397 89.6912 426.577 89.7285C425.758 89.7658 425.035 89.7285 424.938 89.4005C424.841 89.0726 425.534 88.6105 426.525 88.5658C427.517 88.521 428.247 88.9459 428.18 89.2515Z" fill="#263238"/>
<path d="M430.751 101.557C430.657 101.535 430.558 101.545 430.471 101.585C430.383 101.626 430.311 101.695 430.267 101.781C430.225 101.857 430.203 101.943 430.204 102.03C430.205 102.117 430.228 102.202 430.272 102.277C430.316 102.352 430.379 102.415 430.455 102.458C430.53 102.501 430.616 102.524 430.703 102.524C430.79 102.524 430.876 102.501 430.951 102.458C431.027 102.415 431.09 102.352 431.134 102.277C431.178 102.202 431.201 102.117 431.202 102.03C431.203 101.943 431.181 101.857 431.139 101.781C431.086 101.681 431 101.602 430.895 101.557C430.791 101.513 430.674 101.505 430.565 101.535" fill="#A36957"/>
<path d="M430.953 101.647C430.953 101.609 430.811 101.393 430.431 101.475C430.317 101.505 430.213 101.564 430.13 101.646C430.046 101.729 429.985 101.832 429.954 101.945C429.914 102.087 429.917 102.239 429.964 102.38C430.01 102.52 430.098 102.644 430.215 102.735C430.339 102.82 430.486 102.865 430.636 102.865C430.786 102.865 430.933 102.82 431.057 102.735C431.156 102.668 431.234 102.574 431.282 102.465C431.329 102.355 431.344 102.234 431.325 102.116C431.251 101.721 430.96 101.662 430.945 101.714C430.93 101.766 431.05 101.9 431.027 102.131C431.022 102.188 431.003 102.243 430.972 102.291C430.941 102.339 430.898 102.379 430.848 102.407C430.791 102.44 430.725 102.458 430.658 102.458C430.592 102.458 430.526 102.44 430.468 102.407C430.416 102.363 430.377 102.306 430.353 102.242C430.33 102.178 430.323 102.109 430.334 102.042C430.343 101.983 430.365 101.927 430.4 101.879C430.436 101.831 430.482 101.792 430.535 101.766C430.744 101.639 430.93 101.699 430.953 101.647Z" fill="#263238"/>
<path d="M441.983 95.1476C441.237 96.8917 439.389 98.2407 439.642 100.126C439.806 101.341 440.589 102.474 440.44 103.697C440.246 105.187 438.658 106.29 438.427 107.818C438.152 109.689 439.978 111.142 440.701 112.887C441.766 115.436 440.41 118.298 440.373 121.085C440.417 123.202 441.226 125.23 442.652 126.795C444.077 128.36 446.021 129.356 448.124 129.597C449.824 129.739 451.739 129.224 452.596 127.763C453.341 126.556 453.178 125.021 453.61 123.686C454.266 121.689 456.166 120.228 456.591 118.171C457.336 114.444 452.79 111.314 453.088 107.498C453.215 105.865 454.221 104.449 454.646 102.869C454.916 101.831 454.937 100.743 454.707 99.6951C454.476 98.647 454.001 97.6685 453.319 96.8395C452.194 95.5054 450.569 94.6035 449.592 93.1725C448.512 91.5253 448.474 89.4458 448.102 87.5005C447.601 85.136 446.51 82.937 444.929 81.109C443.348 79.281 441.329 77.8836 439.061 77.0476C436.794 76.2115 434.351 75.9641 431.962 76.3283C429.572 76.6926 427.314 77.6566 425.399 79.1304C425.399 79.1304 424.318 84.0421 429.364 84.8695C434.41 85.6968 436.743 84.7428 437.309 86.7626C437.176 87.5947 437.241 88.4466 437.501 89.2485C437.76 90.0504 438.205 90.7795 438.8 91.3762C440.857 93.5973 442.817 93.1203 441.983 95.1476Z" fill="#263238"/>
<path d="M449.995 129.217C449.84 129.222 449.685 129.207 449.533 129.172C449.096 129.095 448.667 128.977 448.251 128.822C446.712 128.232 445.362 127.235 444.346 125.937C443.633 125.042 443.074 124.035 442.691 122.956C442.256 121.728 442.026 120.436 442.013 119.133C441.997 117.696 442.178 116.264 442.549 114.877C442.753 114.144 443.002 113.424 443.295 112.723C443.602 112.024 443.874 111.31 444.107 110.584C444.312 109.867 444.312 109.108 444.107 108.392C443.889 107.687 443.607 107.004 443.265 106.35C442.919 105.702 442.628 105.026 442.393 104.33C442.163 103.641 442.11 102.906 442.236 102.191C442.535 100.79 443.384 99.7464 443.891 98.6806C444.374 97.6939 444.604 96.603 444.562 95.5054C444.494 93.8992 443.911 92.3575 442.9 91.108C442.508 90.6703 442.087 90.2594 441.64 89.8782C442.163 90.1718 442.63 90.5553 443.019 91.0111C444.105 92.2587 444.744 93.8319 444.838 95.4831C444.899 96.6285 444.674 97.7711 444.182 98.8073C443.667 99.9104 442.84 100.961 442.587 102.243C442.333 103.525 442.937 104.874 443.6 106.171C443.962 106.844 444.257 107.55 444.48 108.28C444.7 109.06 444.7 109.886 444.48 110.666C444.232 111.417 443.946 112.156 443.623 112.879C443.33 113.566 443.081 114.27 442.877 114.988C442.507 116.341 442.324 117.738 442.333 119.14C442.31 121.528 443.081 123.856 444.525 125.759C445.49 127.04 446.775 128.045 448.251 128.673C449.362 129.105 450.003 129.172 449.995 129.217Z" fill="#455A64"/>
<path d="M449.251 91.6073C448.887 91.7014 448.515 91.7563 448.14 91.7713C447.117 91.8807 446.085 91.8531 445.069 91.6893C444.3 91.5753 443.56 91.309 442.895 90.9059C442.229 90.5027 441.651 89.9709 441.194 89.3415C440.767 88.5452 440.428 87.7057 440.18 86.8372C439.862 85.9697 439.264 85.2328 438.48 84.7428C436.848 83.7068 434.933 83.5801 433.263 83.3788C431.723 83.3021 430.228 82.8353 428.918 82.0223C428.04 81.4409 427.407 80.5578 427.137 79.5404C427.071 79.2646 427.054 78.9798 427.084 78.6982C427.084 78.5044 427.129 78.4075 427.144 78.4075C427.153 78.7766 427.2 79.1439 427.286 79.5031C427.594 80.4544 428.227 81.267 429.074 81.7987C430.36 82.5491 431.812 82.969 433.3 83.0211C434.97 83.2149 436.953 83.3118 438.697 84.4149C439.55 84.9508 440.2 85.756 440.545 86.703C440.779 87.5495 441.101 88.369 441.507 89.1477C442.375 90.3386 443.675 91.1415 445.129 91.3837C446.111 91.5664 447.112 91.6339 448.11 91.585C448.49 91.5636 448.872 91.5711 449.251 91.6073Z" fill="#455A64"/>
<path d="M447.402 85.5402C447.121 85.6341 446.826 85.677 446.53 85.6669C445.141 85.6763 443.803 85.1412 442.803 84.1762C442.347 83.7191 441.958 83.1996 441.648 82.6334C440.977 81.5005 440.329 80.1067 438.935 79.5254C437.592 79.0749 436.162 78.9497 434.761 79.1602C433.579 79.3262 432.38 79.3262 431.198 79.1602C430.376 79.0461 429.602 78.7054 428.962 78.1763C428.797 78.0322 428.652 77.8668 428.53 77.6844C428.441 77.5552 428.403 77.4881 428.418 77.4832C428.418 77.4832 428.627 77.7217 429.059 78.0571C429.696 78.5103 430.437 78.7973 431.213 78.8918C432.374 79.0227 433.546 79.0026 434.701 78.8322C436.163 78.5935 437.661 78.7215 439.062 79.2049C439.781 79.5283 440.398 80.0441 440.843 80.6955C441.236 81.2766 441.597 81.8787 441.924 82.4992C442.218 83.041 442.581 83.5421 443.004 83.9899C443.378 84.3686 443.808 84.6878 444.279 84.9365C444.972 85.2985 445.734 85.5093 446.515 85.5551C447.089 85.5477 447.394 85.5029 447.402 85.5402Z" fill="#455A64"/>
<path d="M452.217 127.607C452.18 127.607 452.418 127.115 452.694 126.191C453.067 124.893 453.234 123.545 453.186 122.196C453.132 120.198 452.587 118.245 451.599 116.509C451.054 115.532 450.227 114.66 449.549 113.587C449.19 113.04 448.937 112.431 448.804 111.791C448.686 111.117 448.742 110.424 448.967 109.778C449.385 108.489 450.13 107.408 450.294 106.223C450.458 105.038 449.892 103.987 449.325 102.996C449.033 102.513 448.767 102.016 448.528 101.505C448.31 101.01 448.166 100.485 448.103 99.9473C448.033 99.0003 448.063 98.0484 448.192 97.1076C448.431 95.7777 448.307 94.4082 447.835 93.1425C447.624 92.6991 447.324 92.3034 446.955 91.9797C446.955 91.9797 446.992 91.9797 447.045 92.0245C447.133 92.0683 447.213 92.1262 447.283 92.1959C447.575 92.4387 447.811 92.7411 447.976 93.0828C448.515 94.3594 448.683 95.7622 448.461 97.13C448.358 98.0533 448.345 98.9844 448.423 99.9101C448.607 100.951 449.02 101.939 449.631 102.802C449.949 103.306 450.221 103.837 450.443 104.39C450.678 104.986 450.755 105.633 450.667 106.268C450.488 107.572 449.72 108.675 449.333 109.89C449.129 110.476 449.076 111.104 449.176 111.716C449.306 112.308 449.544 112.872 449.877 113.378C450.51 114.414 451.367 115.301 451.912 116.322C452.91 118.117 453.443 120.134 453.462 122.188C453.485 123.563 453.274 124.932 452.836 126.235C452.716 126.588 452.572 126.932 452.403 127.264C452.358 127.386 452.295 127.502 452.217 127.607Z" fill="#455A64"/>
<path d="M421.86 266.485C421.86 266.485 416.836 218.903 416.546 201.32C416.255 183.738 424.454 166.386 424.454 166.386L456.563 165.052C456.563 165.052 462.913 182.888 463.025 190.394C463.248 204.957 459.156 219.335 459.626 230.888L460.699 266.514" fill="#263238"/>
<path d="M461.779 207.983C461.612 208.128 461.435 208.263 461.25 208.385L460.959 208.587L460.646 208.892C460.37 209.131 460.121 209.398 459.901 209.69C458.865 210.957 458.112 213.23 457.389 216.055C457.02 217.622 456.475 219.142 455.764 220.586C455.548 220.982 455.299 221.359 455.019 221.712C454.885 221.891 454.758 222.085 454.602 222.256L454.11 222.748C453.405 223.406 452.587 223.932 451.695 224.298C449.899 225.088 447.864 225.461 446.015 226.393C444.122 227.411 442.659 229.078 441.894 231.088C440.984 233.108 440.403 235.225 439.658 237.207C438.912 239.19 437.906 241.083 436.304 242.291C434.772 243.355 432.952 243.93 431.086 243.938C429.357 244.042 427.755 243.99 426.316 244.206C425.022 244.34 423.784 244.808 422.724 245.563C421.949 246.168 421.369 246.987 421.054 247.918C420.854 248.505 420.811 249.135 420.928 249.744C421.017 250.161 421.129 250.363 421.106 250.37C420.986 250.183 420.901 249.976 420.853 249.759C420.696 249.137 420.716 248.484 420.913 247.873C421.209 246.896 421.793 246.031 422.59 245.391C423.677 244.571 424.963 244.056 426.316 243.901C427.807 243.662 429.395 243.692 431.101 243.58C432.912 243.568 434.677 243.007 436.162 241.97C437.668 240.654 438.78 238.946 439.375 237.036C440.12 235.076 440.664 232.952 441.611 230.894C442.413 228.802 443.942 227.069 445.919 226.013C447.842 225.058 449.876 224.693 451.628 223.933C452.485 223.578 453.273 223.073 453.953 222.442L454.423 221.973C454.572 221.809 454.699 221.623 454.833 221.451C455.096 221.112 455.328 220.751 455.526 220.37C456.24 218.946 456.792 217.446 457.173 215.898C457.918 213.081 458.731 210.778 459.826 209.503C460.045 209.213 460.295 208.948 460.572 208.713C460.691 208.609 460.795 208.505 460.9 208.423L461.205 208.229C461.391 208.135 461.583 208.053 461.779 207.983Z" fill="#FAFAFA"/>
<path d="M461.973 185.967C462.007 186.176 462.022 186.388 462.017 186.6C462.015 187.215 461.94 187.828 461.794 188.426C461.152 190.606 459.891 192.554 458.164 194.031C457.024 195.079 455.775 196.001 454.437 196.781C452.999 197.631 451.411 198.443 449.779 199.368C448.064 200.287 446.468 201.411 445.024 202.714C443.542 204.184 442.323 205.895 441.416 207.775C440.502 209.68 439.459 211.52 438.293 213.283C437.701 214.104 437.016 214.855 436.251 215.519C435.497 216.16 434.669 216.708 433.784 217.151C432.183 217.938 430.514 218.579 428.798 219.067C427.203 219.559 425.712 219.998 424.415 220.557C423.238 221.026 422.118 221.626 421.076 222.346C420.292 222.89 419.587 223.54 418.982 224.277C418.475 224.916 418.051 225.617 417.722 226.364C417.775 226.157 417.845 225.955 417.931 225.76C418.175 225.197 418.488 224.666 418.863 224.18C419.457 223.412 420.16 222.734 420.949 222.167C421.996 221.421 423.124 220.796 424.311 220.304C425.747 219.719 427.212 219.209 428.701 218.776C430.393 218.277 432.038 217.634 433.62 216.853C434.459 216.416 435.247 215.886 435.968 215.273C436.703 214.618 437.363 213.883 437.936 213.082C439.085 211.328 440.118 209.5 441.029 207.611C441.964 205.69 443.225 203.945 444.755 202.453C446.225 201.13 447.852 199.994 449.6 199.07C451.24 198.153 452.827 197.355 454.266 196.513C455.6 195.759 456.849 194.864 457.993 193.845C459.705 192.411 460.976 190.522 461.66 188.396C461.851 187.6 461.956 186.785 461.973 185.967Z" fill="#FAFAFA"/>
<path d="M416.709 203.81C416.68 203.764 416.657 203.713 416.642 203.661C416.586 203.517 416.539 203.37 416.5 203.221C416.373 202.628 416.398 202.012 416.575 201.432C416.992 199.941 418.64 198.026 421.293 197.079C422.62 196.625 424.118 196.334 425.683 195.946C426.983 195.731 428.212 195.208 429.269 194.421C430.326 193.634 431.179 192.606 431.757 191.422C432.181 190.554 432.552 189.66 432.868 188.747C433.451 186.763 434.243 184.846 435.231 183.03C436.363 181.244 438.081 179.908 440.09 179.251C441.918 178.658 443.783 178.185 445.673 177.835C447.359 177.511 448.992 176.954 450.525 176.18C451.823 175.439 452.943 174.421 453.804 173.199C455.077 171.435 455.803 169.335 455.891 167.162C455.895 166.364 455.842 165.567 455.735 164.777C455.96 165.551 456.063 166.356 456.04 167.162C456.011 169.382 455.31 171.542 454.028 173.355C453.155 174.618 452.012 175.669 450.681 176.434C449.128 177.236 447.47 177.816 445.755 178.155C443.883 178.511 442.035 178.986 440.224 179.579C438.295 180.211 436.646 181.494 435.559 183.209C434.587 185 433.805 186.889 433.226 188.843C432.904 189.773 432.523 190.682 432.085 191.564C431.644 192.411 431.081 193.189 430.416 193.874C429.107 195.068 427.496 195.88 425.757 196.222C424.177 196.625 422.687 196.878 421.382 197.31C418.796 198.19 417.156 200.001 416.717 201.447C416.536 202.005 416.487 202.597 416.575 203.176C416.638 203.383 416.683 203.595 416.709 203.81Z" fill="#FAFAFA"/>
<path d="M459.215 244.057C459.246 244.212 459.263 244.369 459.268 244.527C459.282 244.979 459.234 245.43 459.126 245.869C458.658 247.485 457.667 248.9 456.309 249.893C455.402 250.616 454.398 251.208 453.327 251.652C452.187 252.137 450.927 252.524 449.601 252.934C448.223 253.337 446.876 253.835 445.568 254.425C444.21 255.074 442.992 255.983 441.983 257.101C440.895 258.234 439.956 259.478 438.912 260.581C437.914 261.65 436.755 262.555 435.476 263.265C433.301 264.452 430.867 265.086 428.388 265.113C426.728 265.131 425.078 264.856 423.514 264.301C423.089 264.154 422.676 263.977 422.277 263.771C422.131 263.711 421.994 263.634 421.867 263.54C422.017 263.582 422.164 263.634 422.306 263.697C422.716 263.872 423.134 264.026 423.559 264.159C425.12 264.649 426.752 264.878 428.388 264.837C430.812 264.775 433.185 264.128 435.305 262.952C436.544 262.25 437.667 261.363 438.637 260.321C439.658 259.232 440.589 257.995 441.7 256.832C442.768 255.673 444.055 254.736 445.486 254.075C446.813 253.482 448.181 252.984 449.578 252.584C450.89 252.182 452.142 251.839 453.305 251.347C454.345 250.921 455.323 250.357 456.212 249.67C457.547 248.726 458.543 247.378 459.051 245.824C459.161 245.241 459.216 244.65 459.215 244.057Z" fill="#FAFAFA"/>
<path d="M455.556 145.271L449.34 145.42C449.101 146.674 448.625 147.87 447.938 148.946C442.721 139.927 438.719 127.853 437.72 123.001C437.869 122.516 438.04 121.98 438.257 121.383C438.411 120.478 438.384 119.55 438.175 118.656C437.996 117.575 437.698 116.121 437.608 115.451C437.332 113.393 436.997 113.073 436.281 113.304C435.312 113.625 436.684 119.065 435.886 119.185C435.454 119.244 434.932 117.381 434.783 115.853C434.634 114.325 433.934 109.615 433.434 109.302C432.689 108.84 432.04 109.57 432.234 111.09C432.428 112.611 432.659 117.232 431.854 117.299C431.049 117.366 430.363 109.555 430.363 109.555C430.363 109.555 430.49 107.856 429.551 107.893C427.867 107.967 429.186 116.196 429.327 116.979C429.432 117.515 428.582 117.62 428.478 117.031C428.373 116.442 427.986 109.227 426.242 109.287C424.915 109.287 427.263 116.062 426.518 117.627C425.772 119.192 425.265 112.32 424.006 112.41C423.536 112.447 423.186 112.536 424.051 116.42C424.879 119.505 425.874 122.543 427.032 125.52C429.029 136.29 437.794 170.747 451.531 164.441C459.223 160.908 462.338 145.271 462.338 145.271H455.556Z" fill="#B78876"/>
<path d="M429.059 117.5C429.117 117.515 429.179 117.515 429.238 117.5C429.328 117.472 429.405 117.414 429.455 117.334C429.506 117.255 429.526 117.16 429.513 117.067C429.513 116.605 429.424 115.934 429.32 115.062C429.145 114.011 429.031 112.951 428.977 111.887C428.977 111.261 428.977 110.59 429.014 109.882C429.025 109.522 429.062 109.164 429.126 108.809C429.185 108.474 429.409 108.064 429.67 108.131H429.715C429.976 108.131 430.184 108.325 430.266 108.638C430.358 108.962 430.394 109.3 430.371 109.636C430.524 111.724 430.79 113.801 431.168 115.86C431.228 116.136 431.287 116.419 431.377 116.702C431.416 116.847 431.466 116.989 431.526 117.127C431.564 117.204 431.606 117.278 431.653 117.351C431.686 117.405 431.732 117.451 431.786 117.485C431.84 117.518 431.902 117.539 431.966 117.544C432.074 117.532 432.177 117.489 432.26 117.418C432.344 117.348 432.405 117.254 432.435 117.149C432.499 117.004 432.547 116.851 432.577 116.695C432.635 116.394 432.675 116.091 432.696 115.785C432.764 114.543 432.747 113.298 432.644 112.059C432.55 111.44 432.525 110.812 432.569 110.188C432.596 109.918 432.727 109.67 432.934 109.495C432.982 109.466 433.036 109.448 433.091 109.442C433.146 109.436 433.202 109.441 433.255 109.458C433.318 109.473 433.379 109.498 433.434 109.532C433.472 109.56 433.5 109.599 433.516 109.644C433.751 110.248 433.923 110.875 434.03 111.515C434.164 112.171 434.276 112.849 434.38 113.527C434.485 114.205 434.582 114.891 434.664 115.584C434.728 116.299 434.842 117.009 435.007 117.708C435.095 118.066 435.207 118.417 435.342 118.759C435.418 118.951 435.524 119.13 435.655 119.289C435.705 119.355 435.773 119.405 435.851 119.434C435.929 119.463 436.013 119.469 436.095 119.452C436.17 119.428 436.238 119.384 436.291 119.325C436.345 119.266 436.383 119.195 436.4 119.117C436.488 118.736 436.516 118.344 436.482 117.954C436.482 117.582 436.438 117.209 436.4 116.851C436.348 116.225 436.289 115.607 436.266 114.995C436.247 114.695 436.247 114.394 436.266 114.094C436.281 113.961 436.314 113.83 436.363 113.706C436.379 113.665 436.401 113.627 436.43 113.594H436.527C437.019 113.393 437.183 114.079 437.317 114.63C437.451 115.182 437.503 115.808 437.623 116.397C437.816 117.567 438.07 118.737 438.197 119.855C438.283 120.39 438.263 120.937 438.137 121.465C437.958 122.002 437.779 122.531 437.608 123.06V123.112V123.157C438.481 126.818 439.594 130.419 440.939 133.934C442.117 137.117 443.302 139.897 444.338 142.133C445.374 144.369 446.313 146.12 446.954 147.298L447.7 148.632C447.78 148.791 447.878 148.941 447.99 149.079C447.928 148.914 447.85 148.754 447.759 148.602L447.014 147.239C446.403 146.039 445.523 144.257 444.51 142.021C443.496 139.785 442.348 137.005 441.2 133.823C439.887 130.312 438.796 126.723 437.936 123.075V123.179C438.107 122.657 438.279 122.128 438.457 121.599C438.613 121.018 438.643 120.411 438.547 119.818C438.413 118.648 438.167 117.515 437.973 116.337C437.861 115.756 437.787 115.159 437.667 114.548C437.66 114.234 437.607 113.923 437.511 113.624C437.426 113.442 437.281 113.295 437.101 113.207C436.91 113.144 436.703 113.144 436.512 113.207H436.393C436.33 113.227 436.271 113.26 436.221 113.303C436.139 113.374 436.075 113.463 436.035 113.564C435.967 113.726 435.924 113.897 435.908 114.071C435.886 114.394 435.886 114.717 435.908 115.04C435.908 115.666 435.998 116.292 436.05 116.918C436.05 117.284 436.11 117.664 436.125 117.999C436.154 118.335 436.137 118.674 436.072 119.005C436.072 119.08 436.013 119.065 436.072 119.102L436.028 119.057C435.933 118.936 435.857 118.8 435.804 118.655C435.674 118.333 435.567 118.001 435.484 117.664C435.32 116.985 435.208 116.295 435.148 115.599C435.069 114.898 434.972 114.205 434.857 113.52C434.753 112.834 434.634 112.163 434.5 111.492C434.387 110.81 434.197 110.142 433.933 109.502C433.882 109.395 433.802 109.305 433.702 109.241C433.615 109.191 433.523 109.151 433.426 109.122C433.32 109.094 433.209 109.088 433.101 109.103C432.992 109.119 432.887 109.155 432.793 109.212C432.639 109.326 432.511 109.472 432.416 109.639C432.321 109.805 432.262 109.99 432.241 110.181C432.193 110.519 432.193 110.863 432.241 111.202C432.241 111.522 432.316 111.835 432.338 112.148C432.442 113.368 432.464 114.593 432.405 115.815C432.388 116.106 432.351 116.395 432.294 116.68C432.272 116.813 432.235 116.943 432.182 117.067C432.162 117.117 432.135 117.162 432.1 117.202C432.1 117.269 432.048 117.202 432.055 117.291C432.055 117.216 432.055 117.291 432.055 117.194C432.022 117.144 431.992 117.092 431.966 117.038C431.913 116.918 431.869 116.784 431.824 116.657C431.742 116.389 431.682 116.113 431.623 115.845C431.234 113.804 430.953 111.744 430.78 109.674C430.803 109.299 430.76 108.923 430.654 108.563C430.605 108.375 430.504 108.205 430.363 108.071C430.29 108.001 430.204 107.946 430.109 107.91C430.014 107.874 429.913 107.858 429.812 107.863H429.856C429.73 107.844 429.601 107.863 429.486 107.918C429.371 107.972 429.274 108.059 429.208 108.168C429.097 108.346 429.021 108.543 428.984 108.749C428.922 109.119 428.887 109.493 428.88 109.867C428.88 110.613 428.88 111.261 428.88 111.895C428.951 112.966 429.087 114.031 429.29 115.085C429.417 115.949 429.513 116.62 429.558 117.075C429.572 117.154 429.559 117.237 429.519 117.307C429.48 117.378 429.417 117.433 429.342 117.462C429.118 117.485 429.051 117.492 429.059 117.5Z" fill="#A36957"/>
<path d="M380.516 155.535C379.061 155.504 377.609 155.672 376.2 156.034C372.347 157.048 365.706 161.072 365.43 166.044H370.26C370.26 166.044 367.554 171.798 368.344 171.261C370.409 169.875 374.508 165.708 374.508 165.708L380.516 155.535Z" fill="#B78876"/>
<path d="M446.351 68.9041C446.239 68.9041 445.806 64.924 445.374 59.9601C444.942 54.9962 444.674 51.0161 444.778 51.0161C444.882 51.0161 445.322 54.9962 445.754 59.9601C446.187 64.924 446.455 68.9041 446.351 68.9041Z" fill="#263238"/>
<path d="M467.526 51.3221C467.608 51.3817 464.351 56.1146 460.244 61.8909C456.138 67.6673 452.731 72.3256 452.642 72.2362C452.552 72.1467 455.817 67.4437 459.924 61.6673C464.031 55.891 467.437 51.2625 467.526 51.3221Z" fill="#263238"/>
<path d="M476.32 72.7727C476.32 72.8771 472.534 73.7491 467.824 74.7181C463.113 75.687 459.267 76.3876 459.245 76.2833C459.222 76.1789 463.024 75.3069 467.742 74.3379C472.46 73.369 476.268 72.6684 476.32 72.7727Z" fill="#263238"/>
<path d="M222.855 175.144L196.47 310.646L193.042 328.385L368.94 327.535C376.841 327.498 383.847 320.484 386.374 310.065L417.573 182.143C419.504 174.235 415.27 166.007 409.278 166.014L231.203 166.2C227.327 166.193 223.854 169.86 222.855 175.144Z" fill="#F2994A"/>
<g opacity="0.5">
<path opacity="0.5" d="M222.855 175.144L196.47 310.646L193.042 328.385L368.94 327.535C376.841 327.498 383.847 320.484 386.374 310.065L417.573 182.143C419.504 174.235 415.27 166.007 409.278 166.014L231.203 166.2C227.327 166.193 223.854 169.86 222.855 175.144Z" fill="black"/>
</g>
<path d="M352.088 301.448L333.454 151.331C332.709 145.182 327.797 140.591 322.006 140.613L281.162 140.74C279.644 140.757 278.145 141.083 276.758 141.698C275.37 142.313 274.122 143.204 273.09 144.317L253.711 164.941L140.122 165.552C133.183 165.589 127.847 172.163 128.763 179.542L146.063 318.285C146.808 324.427 151.72 329.011 157.496 329.003L355.494 328.608C377.541 329.063 379.65 322.556 379.65 322.556C354.338 328.154 352.088 301.486 352.088 301.448Z" fill="#F2994A"/>
<g opacity="0.5">
<path opacity="0.5" d="M266.71 271.426L260.032 278.596L208.604 232.326L215.282 225.156L266.71 271.426Z" fill="white"/>
<path opacity="0.5" d="M257.237 223.569L264.616 230.21L218.085 280.184L210.699 273.543L257.237 223.569Z" fill="white"/>
</g>
<path d="M380.358 77.6847C380.116 77.583 379.909 77.4148 379.76 77.1996C379.611 76.9845 379.526 76.7313 379.515 76.4698L379.217 69.5531C379.207 69.3382 379.246 69.1237 379.333 68.9268C379.42 68.7299 379.551 68.5558 379.717 68.4184C379.882 68.281 380.078 68.184 380.287 68.1352C380.497 68.0863 380.715 68.0869 380.924 68.1369C381.501 68.2615 382.098 68.2668 382.677 68.1528C383.256 68.0387 383.806 67.8076 384.293 67.4736C384.741 67.1899 385.127 66.8173 385.425 66.3789C385.724 65.9405 385.93 65.4455 386.03 64.9246C386.097 64.397 386.058 63.8613 385.915 63.3492C385.771 62.8371 385.526 62.359 385.195 61.9432C384.846 61.4702 384.406 61.0707 383.902 60.7675C383.399 60.4644 382.84 60.2637 382.258 60.1768C381.085 60.1116 379.925 60.444 378.965 61.1203C378.004 61.7967 377.3 62.7773 376.966 63.9034C376.855 64.2447 376.616 64.5298 376.3 64.6994C375.984 64.8691 375.614 64.9101 375.268 64.814C374.922 64.718 374.627 64.4922 374.444 64.1837C374.26 63.8753 374.203 63.5079 374.283 63.1581C374.79 61.3868 375.892 59.8441 377.403 58.7894C378.913 57.7347 380.741 57.2324 382.579 57.3669C383.535 57.4943 384.456 57.8127 385.287 58.303C386.118 58.7934 386.842 59.4458 387.416 60.2215C387.974 60.9404 388.383 61.764 388.617 62.6435C388.851 63.523 388.907 64.4406 388.78 65.3419C388.61 66.242 388.259 67.0978 387.746 67.8566C387.233 68.6155 386.57 69.2613 385.799 69.7543C384.68 70.5071 383.374 70.933 382.027 70.9841L382.258 76.3207C382.267 76.5552 382.216 76.788 382.111 76.9977C382.006 77.2073 381.849 77.387 381.656 77.5201C381.463 77.6531 381.239 77.7352 381.005 77.7588C380.772 77.7824 380.536 77.7466 380.32 77.6548L380.358 77.6847Z" fill="#F2994A"/>
<path d="M382.4 80.5163C382.416 80.7414 382.364 80.9661 382.252 81.162C382.14 81.3578 381.973 81.516 381.771 81.6166C381.569 81.7171 381.341 81.7555 381.118 81.7268C380.894 81.6982 380.683 81.6038 380.513 81.4555C380.343 81.3073 380.221 81.112 380.162 80.8942C380.103 80.6765 380.11 80.4461 380.182 80.2322C380.253 80.0184 380.387 79.8306 380.566 79.6928C380.744 79.555 380.96 79.4733 381.185 79.458C381.335 79.4468 381.485 79.4654 381.627 79.5127C381.769 79.56 381.901 79.6351 382.014 79.7335C382.127 79.832 382.219 79.9518 382.285 80.0862C382.352 80.2206 382.391 80.3668 382.4 80.5163Z" fill="#F2994A"/>
<path d="M356.411 67.928C356.443 67.7805 356.465 67.6311 356.478 67.4808C356.478 67.1528 356.56 66.7355 356.619 66.1466C356.693 65.4237 356.815 64.7066 356.984 64.0001C357.081 63.5827 357.133 63.1206 357.283 62.651C357.432 62.1815 357.581 61.6746 357.745 61.1604C358.608 58.6123 359.865 56.2154 361.471 54.0573C363.576 51.2628 366.245 48.9419 369.305 47.245C371.046 46.2631 372.901 45.4972 374.828 44.9643C376.907 44.4131 379.049 44.1325 381.2 44.1295C382.333 44.1113 383.467 44.1711 384.592 44.3084C385.165 44.368 385.732 44.5171 386.306 44.614C386.886 44.7134 387.459 44.8528 388.02 45.0314C390.369 45.6879 392.604 46.7009 394.646 48.035C399.187 50.9801 402.645 55.323 404.499 60.4076C405.498 63.1312 406.003 66.011 405.99 68.9118C406.021 71.9002 405.493 74.8679 404.432 77.662L404.097 78.5117L404.052 78.6235L404.097 78.7353C405.968 83.0359 407.824 87.2619 409.575 91.3538L409.888 90.9961L398.708 86.7104L398.574 86.6582L398.462 86.7626C395.505 89.6282 391.884 91.7176 387.923 92.8445C384.539 93.7762 380.995 93.9797 377.526 93.4413C374.057 92.903 370.742 91.6352 367.799 89.7215C365.389 88.1409 363.264 86.1625 361.516 83.8707C358.983 80.5255 357.341 76.5911 356.746 72.4373C356.656 71.6919 356.582 71.0658 356.515 70.4994C356.448 69.9329 356.515 69.4708 356.478 69.0758C356.44 68.6808 356.478 68.4199 356.478 68.2038C356.515 68.1981 356.548 68.1786 356.572 68.1492C356.595 68.1198 356.607 68.0827 356.604 68.0452C356.601 68.0077 356.584 67.9727 356.557 67.9471C356.529 67.9215 356.493 67.9073 356.455 67.9073C356.418 67.9073 356.381 67.9215 356.354 67.9471C356.326 67.9727 356.309 68.0077 356.307 68.0452C356.304 68.0827 356.315 68.1198 356.339 68.1492C356.362 68.1786 356.396 68.1981 356.433 68.2038C356.433 68.4199 356.433 68.7106 356.433 69.0758C356.433 69.441 356.433 69.9478 356.433 70.5143C356.433 71.0808 356.56 71.7292 356.634 72.4671C356.879 74.2598 357.306 76.0229 357.909 77.7291C358.762 79.9823 359.91 82.1126 361.322 84.0645C363.077 86.3971 365.217 88.4135 367.65 90.0271C370.629 91.9886 373.992 93.2941 377.514 93.8569C381.036 94.4197 384.638 94.2271 388.08 93.2917C392.088 92.1532 395.754 90.0437 398.753 87.1501L398.507 87.2023L409.687 91.5103L410.246 91.7265L410 91.1526C408.226 87.0607 406.393 82.8421 404.529 78.5341V78.7502L404.872 77.8782C405.96 75.0232 406.501 71.9891 406.467 68.9342C406.49 65.9718 405.986 63.0289 404.976 60.2436C403.082 55.0577 399.547 50.6322 394.907 47.64C392.814 46.2747 390.52 45.2438 388.11 44.5842C387.539 44.4037 386.956 44.2666 386.365 44.1742C385.784 44.0699 385.21 43.9208 384.629 43.8686C383.489 43.7271 382.341 43.6624 381.193 43.6748C379.007 43.6841 376.832 43.9798 374.723 44.5543C372.771 45.1088 370.892 45.8945 369.126 46.8947C366.036 48.6332 363.35 51.0086 361.248 53.8636C359.646 56.0574 358.406 58.493 357.573 61.0784C357.417 61.615 357.268 62.1293 357.133 62.569C357.015 63.0184 356.92 63.4737 356.85 63.933C356.69 64.6444 356.586 65.367 356.537 66.0945C356.492 66.6684 356.463 67.1081 356.44 67.4361C356.409 67.598 356.399 67.7634 356.411 67.928Z" fill="#263238"/>
</g>
<defs>
<clipPath id="clip0">
<rect width="559" height="372.667" fill="white" transform="translate(0 0.333252)"/>
</clipPath>
</defs>
</svg>
