<svg width="64" height="64" viewBox="0 0 64 64" fill="none" xmlns="http://www.w3.org/2000/svg">
<path d="M64 41.8311V49.1178C64 51.5926 57.4007 53.6549 49.2891 53.6549C41.1774 53.6549 34.7156 51.6614 34.7156 49.1867V48.3618L34.5781 42.5874H34.6468C35.7467 44.7184 41.7961 46.3683 49.0827 46.3683C56.3694 46.3683 63.8625 44.306 63.8625 41.8312H64V41.8311Z" fill="#F2994A"/>
<path d="M48.8766 14.7466V21.9645H48.7391C48.7391 24.5081 41.9336 26.5016 33.8907 26.5016C30.7973 26.5703 27.635 26.2266 24.6103 25.4704L24.4728 25.6079C22.9605 24.3706 21.2419 23.4082 19.3859 22.7895V22.652L19.1797 15.0216C19.6609 17.3588 26.054 19.2148 33.822 19.2148C41.5899 19.2148 48.7391 17.2213 48.7391 14.7466H48.8766Z" fill="#F4B844"/>
<path d="M48.8766 14.8839C48.8766 17.3587 42.0711 19.3522 33.9594 19.3522C25.8478 19.3522 19.7297 17.4962 19.2485 15.1589C19.2485 15.0903 19.1798 14.9528 19.1798 14.8839C19.1798 12.4092 25.7791 10.3469 33.9596 10.3469C42.1398 10.2782 48.8766 12.3404 48.8766 14.8839Z" fill="#2F80ED"/>
<path d="M34.6468 42.5871L34.5781 41.0747L34.4406 34.888C34.9218 37.2252 41.3149 39.0812 49.0829 39.0812C56.8508 39.0812 63.7251 37.0877 63.9313 34.6816H64V41.8309H63.8625C63.8625 44.3056 57.1944 46.368 49.0828 46.368C40.9712 46.3679 35.7468 44.7181 34.6468 42.5871Z" fill="#F4B844"/>
<path d="M24.8166 47.193C26.6727 45.4744 28.1163 43.2746 28.8724 40.8687H29.2161C30.7284 41.0062 32.2408 41.0748 33.8906 41.0748H34.578V42.5872L34.7155 48.3617H33.9593C30.9346 48.4303 27.9787 48.0867 25.0228 47.3993L24.8166 47.193Z" fill="#F2994A"/>
<path d="M34.6468 34.3379V34.6816L34.7843 41.0747H34.0968C32.3783 41.0747 30.7971 41.006 29.2849 40.8685H28.9412C29.4224 39.425 29.6286 37.9126 29.6286 36.4002C29.6286 35.3691 29.4911 34.4067 29.2849 33.4443H29.6286C31.0721 33.5818 32.5158 33.6505 34.0968 33.6505L34.7155 33.9942C34.6468 34.1316 34.6468 34.2691 34.6468 34.3379Z" fill="#F4B844"/>
<path d="M24.6105 25.4702C27.6352 26.2264 30.7973 26.5701 33.8908 26.5014C41.9336 26.5014 48.7392 24.5079 48.7392 21.9644H48.8767V30.076C41.3838 30.076 35.2657 31.8633 34.5095 34.1318L33.8908 33.7881C32.3784 33.7881 30.9349 33.7194 29.56 33.5819H29.2164C28.5977 30.4197 26.9478 27.6013 24.4731 25.5389L24.6105 25.4702Z" fill="#F2994A"/>
<path d="M29.3537 33.5821C28.6664 30.4199 26.9477 27.5328 24.473 25.4018C22.9606 24.0269 21.1733 23.0646 19.2485 22.5146C17.8737 22.0334 16.3613 21.8272 14.9178 21.8272C6.73732 21.7583 0.0692205 28.2889 0.000536841 36.4692C-0.0681468 44.6495 6.46233 51.3176 14.6428 51.3863C18.4237 51.3863 21.9983 50.0114 24.8167 47.4679C26.7415 45.6806 28.185 43.4122 28.9412 40.9373C29.4224 39.4938 29.6286 38.0501 29.6286 36.5377C29.6287 35.5756 29.3537 34.5445 29.3537 33.5821Z" fill="#2F80ED"/>
<path d="M63.9313 34.5443V34.6818C63.7251 37.0878 57.057 39.0814 49.0829 39.0814C41.1087 39.0814 34.9218 37.2253 34.4406 34.8881V34.5444C34.4406 34.4069 34.4406 34.2694 34.5093 34.1319C35.2655 31.8634 41.3836 30.0762 48.8766 30.0762H49.0828C57.1945 30.076 63.9313 32.0696 63.9313 34.5443Z" fill="#2F80ED"/>
<path d="M14.9178 34.7504C13.6804 34.7504 12.6492 33.7193 12.6492 32.4819C12.6492 31.2445 13.6804 30.2134 14.9178 30.2134C16.1551 30.2134 17.1863 31.2445 17.1863 32.4819C17.1863 33.2381 17.805 33.8568 18.5612 33.8568C19.3173 33.8568 19.936 33.2381 19.936 32.4819C19.936 30.2822 18.4237 28.2887 16.2926 27.67V27.12C16.2926 26.3638 15.674 25.7451 14.9178 25.7451C14.1616 25.7451 13.5429 26.3638 13.5429 27.12V27.67C11.3432 28.22 9.83084 30.2135 9.89952 32.4819C9.89952 35.2316 12.1681 37.5001 14.9178 37.5001C16.1551 37.5001 17.1863 38.5313 17.1863 39.7687C17.1863 41.006 16.1551 42.0372 14.9178 42.0372C13.6804 42.0372 12.6492 41.006 12.6492 39.7687C12.6492 39.0125 12.0306 38.3938 11.2744 38.3938C10.5182 38.3938 9.89952 39.0125 9.89952 39.7687C9.89952 42.0372 11.4119 43.9619 13.5429 44.5806V45.6805C13.5429 46.4367 14.1616 47.0553 14.9178 47.0553C15.674 47.0553 16.2926 46.4367 16.2926 45.6805V44.5806C18.9735 43.8244 20.4859 41.006 19.661 38.325C19.0423 36.2628 17.1175 34.7504 14.9178 34.7504Z" fill="#F2994A"/>
</svg>
