<svg width="64" height="64" viewBox="0 0 64 64" fill="none" xmlns="http://www.w3.org/2000/svg">
<g clip-path="url(#clip0)">
<path d="M61.2238 49.2394C61.2238 49.4367 61.1388 49.633 60.9699 49.7678C59.5192 50.9299 57.5089 51.0998 55.882 50.1965L47.8497 45.7194C46.9977 45.2443 46.2853 44.5544 45.7833 43.7175L42.463 35.4567L40.6651 30.9821V45.7404H23.085V30.9826L21.4605 35.0231V35.0246L17.9668 43.7175C17.4644 44.5549 16.7525 45.2443 15.8999 45.7194L7.86818 50.1965C7.17189 50.5827 6.40724 50.7727 5.64406 50.7727C4.62404 50.7727 3.61085 50.4328 2.77979 49.7678C2.44874 49.5031 2.43995 49.0017 2.76222 48.7272L11.4405 41.3083C12.2075 40.6511 12.7837 39.799 13.1035 38.8405L15.398 31.9918L16.96 27.3312C17.6944 25.1369 19.4366 23.4274 21.6441 22.734L28.0206 20.7325C30.5299 19.944 33.2203 19.944 35.7305 20.7325L42.1056 22.734C44.3136 23.4274 46.0553 25.1369 46.7901 27.3312L48.6134 32.7726L50.6466 38.8405C50.9664 39.799 51.5421 40.6511 52.3097 41.3083L60.9874 48.7272C61.1451 48.862 61.2238 49.0505 61.2238 49.2394Z" fill="#FEDFC5"/>
<path d="M21.856 32.1465C21.0396 32.3032 20.3589 32.8643 20.0489 33.6357L18.9219 36.439V36.4404L15.4282 45.1333C14.9292 45.9649 14.2231 46.6499 13.3789 47.1245L15.8999 45.7193C16.7525 45.2442 17.4644 44.5547 17.9668 43.7173L22.6807 31.9883L21.856 32.1465Z" fill="#FECBAA"/>
<path d="M39.9244 36.8726L38.126 32.3979V45.7403H40.6646V38.7154L39.9244 36.8726Z" fill="#FECBAA"/>
<path d="M60.9874 48.7272L52.3092 41.3083C51.5421 40.651 50.9659 39.799 50.6461 38.8405L48.6134 32.7726L46.7901 27.3312C46.0553 25.1369 44.3136 23.4274 42.1055 22.734L35.7305 20.7325C33.2198 19.944 30.5298 19.944 28.0206 20.7325L21.6441 22.734C20.6934 23.0328 19.8301 23.5206 19.0952 24.1535C19.0987 24.1525 19.1021 24.151 19.1055 24.15L25.482 22.1481C27.9913 21.3595 30.6812 21.3595 33.1915 22.1481L39.5665 24.15C41.7745 24.8434 43.5167 26.5529 44.2515 28.7467L46.0743 34.1886L48.1075 40.2565C48.4273 41.215 49.0035 42.0671 49.7706 42.7243L58.4488 50.1428C58.6061 50.278 58.6847 50.4665 58.6847 50.655C58.6847 50.6813 58.6832 50.7077 58.6803 50.7341C59.5011 50.6306 60.296 50.3078 60.9698 49.7678C61.1388 49.6325 61.2238 49.4367 61.2238 49.2394C61.2238 49.0505 61.1451 48.862 60.9874 48.7272Z" fill="#FECBAA"/>
<path d="M48.6134 32.7726L42.463 35.4567L41.0694 31.9889C40.983 31.7746 40.6646 31.8366 40.6646 32.067V45.7404L32.0054 46.2404L23.085 45.7404V32.067C23.085 31.8361 22.7666 31.7746 22.6802 31.9884L21.4605 35.0231L15.398 31.9918L16.9595 27.3312C17.6944 25.1369 19.4361 23.4279 21.6441 22.734L28.0206 20.7325C30.5298 19.944 33.2203 19.944 35.7305 20.7325L42.1055 22.734C44.3136 23.4279 46.0553 25.1369 46.7901 27.3312L48.6134 32.7726Z" fill="#2D9CDB"/>
<path d="M19.5772 23.775C19.4117 23.8951 19.25 24.0201 19.0952 24.1534C19.0987 24.1525 19.1021 24.151 19.1055 24.15L25.482 22.1481C27.9913 21.3595 30.6812 21.3595 33.1915 22.1481L39.5665 24.15C41.7745 24.8434 43.5167 26.5529 44.2515 28.7467L45.9845 33.92L48.6134 32.7726L46.7901 27.3312C46.0553 25.1368 44.3136 23.4274 42.1055 22.734L35.7305 20.7325C33.2198 19.944 30.5298 19.944 28.0206 20.7325L21.6441 22.734C21.4702 22.7877 21.2994 22.8492 21.1314 22.9191C21.0513 22.9513 20.0581 23.4279 19.5772 23.775Z" fill="#2D9CDB"/>
<path d="M20.0489 33.6357L19.8203 34.2031L21.4605 35.0229L22.6802 31.9883L21.856 32.1465C21.0396 32.3032 20.3589 32.8643 20.0489 33.6357Z" fill="#2D9CDB"/>
<path d="M57.7447 57.9956L56.9249 58.6368H8.83496C4.6289 58.6392 3.46581 53.3252 6.35205 50.772L23.085 45.7402H40.6646L56.3604 50.5322C59.6715 51.5445 60.4737 55.8653 57.7447 57.9956Z" fill="#F2994A"/>
<path d="M28.2857 54.186V58.6367H35.9527L35.7037 56.8623L33.7672 55.1064L28.2857 54.186Z" fill="#FEDFC5"/>
<path d="M26.5713 14.6973V10.333C26.5713 7.18067 29.127 4.625 32.2794 4.625C35.4317 4.625 37.9874 7.18067 37.9874 10.333V14.6973C37.9874 17.8496 35.4317 20.4053 32.2794 20.4053C29.127 20.4053 26.5713 17.8496 26.5713 14.6973Z" fill="#FEDFC5"/>
<path d="M32.2794 4.625C31.8292 4.625 31.3917 4.67871 30.9712 4.77734C33.4932 5.36865 35.3716 7.63086 35.3716 10.333V14.6973C35.3716 17.3994 33.4932 19.6616 30.9712 20.253C31.3917 20.3516 31.8292 20.4053 32.2794 20.4053C35.4317 20.4053 37.9874 17.8496 37.9874 14.6973V10.333C37.9874 7.18067 35.4317 4.625 32.2794 4.625Z" fill="#FECBAA"/>
<path d="M36.8848 58.637H35.0108C35.0108 58.6121 35.0118 58.5857 35.0142 58.5593C35.0318 58.2898 35.0816 55.8342 31.5157 55.4656L21.2242 54.3909L17.0547 53.9548C16.5396 53.9011 16.1661 53.4416 16.2198 52.9265C16.2735 52.4119 16.7349 52.0369 17.2496 52.0906L31.7095 53.6013C36.7974 54.1277 36.9 58.0383 36.8848 58.637Z" fill="#2F80ED"/>
<path d="M49.6358 53.6821C49.6075 53.1654 49.1627 52.7699 48.6485 52.7978L32.2686 53.7021C31.752 53.7304 31.356 54.1728 31.3843 54.6894C31.4122 55.1889 31.8253 55.5751 32.3194 55.5751C32.337 55.5751 32.3541 55.5746 32.3716 55.5737L48.752 54.6694C49.2686 54.641 49.6646 54.1987 49.6358 53.6821Z" fill="#2F80ED"/>
<path d="M62.9381 59.5737H0.812013C0.294434 59.5737 -0.125 59.1538 -0.125 58.6362C-0.125 58.1187 0.294434 57.6992 0.812013 57.6992H62.9381C63.4557 57.6992 63.8751 58.1191 63.8751 58.6362C63.8751 59.1543 63.4557 59.5737 62.9381 59.5737Z" fill="#618AAA"/>
</g>
<defs>
<clipPath id="clip0">
<rect width="64" height="64" fill="white"/>
</clipPath>
</defs>
</svg>
