<svg width="64" height="64" viewBox="0 0 64 64" fill="none" xmlns="http://www.w3.org/2000/svg">
<path d="M31.6514 54.4488C31.6514 54.4488 45.9434 45.9433 53.4031 35.1372C57.7255 28.8627 58.353 23.4248 57.0981 19.1721C55.2854 13.037 48.3835 6.97165 38.7626 10.5272C34.0915 12.2701 31.6514 14.2222 31.6514 14.2222C31.6514 14.2222 29.2114 12.2701 24.5403 10.5272C14.9194 6.97165 8.01747 13.037 6.20483 19.1721C4.94993 23.3551 5.57738 28.793 9.89982 35.1372C17.3595 45.9433 31.6514 54.4488 31.6514 54.4488Z" fill="#2F80ED"/>
<path d="M0.976032 31.024H6.41394C4.11329 25.865 4.39215 21.7517 5.22876 18.963C6.69281 13.9434 11.573 8.5752 18.8932 8.5752C20.8453 8.5752 22.7974 8.92378 24.8192 9.69066C28.305 11.0153 30.6057 12.4096 31.5817 13.1068C32.6275 12.4096 34.8584 11.0153 38.3442 9.69066C40.366 8.92378 42.3181 8.5752 44.2702 8.5752C51.5904 8.5752 56.4706 13.9434 57.9346 18.963C58.9107 21.8911 59.1895 26.4227 56.4009 32.0698H63.024C63.5817 32.0698 64 32.4881 64 33.0458C64 33.6035 63.5817 34.0218 63.024 34.0218H55.2854C54.9368 34.5796 54.5882 35.1373 54.2397 35.695C47.8954 44.8279 34.1612 54.7277 31.6514 55.3552V55.4249C31.6514 55.4249 31.5817 55.4249 31.512 55.3552C31.4423 55.3552 31.3726 55.3552 31.3726 55.3552V55.2854C29.2113 54.2397 16.0349 45.7342 9.06318 35.6253C8.43573 34.719 7.878 33.743 7.38998 32.9064H0.976032C0.418301 32.9064 0 32.4881 0 31.9303C0 31.4423 0.418301 31.024 0.976032 31.024ZM56.122 19.5207C54.8671 15.1983 50.6144 10.5273 44.3399 10.5273C42.6667 10.5273 40.9237 10.8758 39.1111 11.5033C34.6492 13.1765 32.2789 15.0589 32.2789 15.0589C31.9303 15.3377 31.3726 15.3377 31.024 15.0589C31.024 15.0589 28.6536 13.1765 24.1917 11.5033C22.3791 10.8758 20.6362 10.5273 18.963 10.5273C12.6885 10.5273 8.43573 15.1983 7.18083 19.5207C6.13507 23.0763 6.69281 26.9804 8.64488 31.024H14.5708L17.0806 26.7713C17.22 26.4924 17.5686 26.2833 17.9172 26.2833C18.2658 26.2833 18.6144 26.4227 18.7538 26.7016L20.8453 29.7691L24.1917 18.8933C24.3312 18.475 24.7495 18.1961 25.1678 18.1961C25.5861 18.1961 26.0044 18.475 26.1438 18.8933L31.7908 38.4837L37.9259 22.7974C38.0654 22.4488 38.4139 22.17 38.8322 22.17C39.2505 22.17 39.5991 22.3791 39.7386 22.7277L44.549 32.0698H54.1002C56.5403 27.6079 57.3072 23.3552 56.122 19.5207ZM10.7364 34.5796C17.22 43.9913 29.0719 51.6602 31.6514 53.2637C34.2309 51.6602 46.0828 43.9216 52.5664 34.5796C52.7059 34.3704 52.7756 34.231 52.915 34.0218H43.9216C43.573 34.0218 43.2244 33.8127 43.0153 33.4641L38.9717 25.5164L32.5577 41.8998C32.4183 42.3181 32.0697 42.5273 31.6514 42.5273C31.6514 42.5273 31.6514 42.5273 31.5817 42.5273C31.1634 42.5273 30.8148 42.2484 30.6754 41.8301L25.098 22.658L22.1002 32.3486C21.9608 32.6972 21.6819 32.9761 21.2636 33.0458C20.915 33.1155 20.4967 32.9064 20.2876 32.6275L17.9172 29.2114L15.8954 32.6275C15.6863 32.9064 15.4074 33.1155 15.0588 33.1155H9.69063C10.0392 33.5338 10.3878 34.0915 10.7364 34.5796Z" fill="white"/>
</svg>
