<svg width="64" height="64" viewBox="0 0 64 64" fill="none" xmlns="http://www.w3.org/2000/svg">
<path d="M14.2957 0.955566H46.0817C48.1244 0.955566 49.7804 2.61144 49.7804 4.65419V59.3455C49.7804 61.3881 48.1245 63.0441 46.0817 63.0441H4.63613C2.5935 63.0441 0.9375 61.3882 0.9375 59.3455V14.3138C0.9375 13.3329 1.32713 12.3921 2.02075 11.6986L11.6804 2.03894C12.3741 1.34532 13.3149 0.955566 14.2957 0.955566Z" fill="#F4FBFF"/>
<path d="M46.0817 0.955566H38.1505C40.1932 0.955566 41.8491 2.61144 41.8491 4.65419V59.3455C41.8491 61.3882 40.1932 63.0441 38.1505 63.0441H46.0817C48.1245 63.0441 49.7804 61.3882 49.7804 59.3455V4.65419C49.7804 2.61157 48.1245 0.955566 46.0817 0.955566Z" fill="#E4F6FF"/>
<path d="M2.02074 11.6987L11.6804 2.03909C11.9966 1.72284 12.3642 1.46984 12.7636 1.28809V10.4891C12.7636 11.7555 11.737 12.7821 10.4706 12.7821H1.26974C1.45149 12.3826 1.70449 12.015 2.02074 11.6987Z" fill="#F2994A"/>
<path d="M50.5238 38.6427C49.4685 38.6427 48.61 37.7842 48.61 36.7289V29.8056C48.61 28.9834 47.9411 28.3147 47.1191 28.3147H36.5791C35.757 28.3147 35.0883 28.9834 35.0883 29.8056V36.7289C35.0883 37.7842 34.2298 38.6427 33.1745 38.6427C32.1193 38.6427 31.2608 37.7842 31.2608 36.7289V29.8056C31.2608 26.8731 33.6465 24.4873 36.5791 24.4873H47.1191C50.0518 24.4873 52.4375 26.8731 52.4375 29.8056V36.7289C52.4375 37.7842 51.579 38.6427 50.5238 38.6427Z" fill="#407093"/>
<path d="M58.9408 63.0454H24.7576C22.4813 63.0454 20.6359 61.2001 20.6359 58.9237V37.4831C20.6359 35.2067 22.4813 33.3613 24.7576 33.3613H58.9408C61.2171 33.3613 63.0625 35.2067 63.0625 37.4831V58.9237C63.0625 61.2001 61.2171 63.0454 58.9408 63.0454Z" fill="#2D9CDB"/>
<path d="M58.9407 33.3604H51.0326C53.309 33.3604 55.1544 35.2057 55.1544 37.4822V58.9227C55.1544 61.1991 53.309 63.0445 51.0326 63.0445H58.9407C61.2171 63.0445 63.0625 61.1991 63.0625 58.9227V37.4822C63.0625 35.2059 61.2171 33.3604 58.9407 33.3604Z" fill="#2D9CDB"/>
<path d="M58.9408 33.3604H24.7576C22.4813 33.3604 20.6359 35.2057 20.6359 37.4821V40.3487C20.6359 44.4737 23.9799 47.8176 28.1048 47.8176H55.5936C59.7186 47.8176 63.0625 44.4736 63.0625 40.3487V37.4821C63.0625 35.2059 61.2171 33.3604 58.9408 33.3604Z" fill="#CC9675"/>
<path d="M58.9408 33.3604H24.7576C22.4813 33.3604 20.6359 35.2057 20.6359 37.4821V40.3487C20.6359 44.4737 23.9799 47.8176 28.1048 47.8176H55.5936C59.7186 47.8176 63.0625 44.4736 63.0625 40.3487V37.4821C63.0625 35.2059 61.2171 33.3604 58.9408 33.3604Z" fill="#F2994A"/>
<path d="M55.1544 37.4821V47.8176H55.5935C59.7185 47.8176 63.0624 44.4736 63.0624 40.3487V37.4821C63.0624 35.2057 61.217 33.3604 58.9406 33.3604H51.0325C53.309 33.3602 55.1544 35.2057 55.1544 37.4821Z" fill="#F2994A"/>
<path d="M31.1985 52.6685C29.8241 52.6685 28.7099 51.5542 28.7099 50.1799V46.8285C28.7099 45.4541 29.8241 44.3398 31.1985 44.3398C32.5729 44.3398 33.6871 45.4541 33.6871 46.8285V50.1799C33.6871 51.5542 32.573 52.6685 31.1985 52.6685Z" fill="#F4FBFF"/>
<path d="M52.4997 52.6685C51.1252 52.6685 50.0111 51.5542 50.0111 50.1798V46.8285C50.0111 45.4541 51.1254 44.3398 52.4997 44.3398C53.8741 44.3398 54.9884 45.4541 54.9884 46.8285V50.1798C54.9884 51.5542 53.8742 52.6685 52.4997 52.6685Z" fill="#F4FBFF"/>
<path d="M40.9979 6.35645H21.5236C21.0058 6.35645 20.5861 6.77607 20.5861 7.29394C20.5861 7.81182 21.0058 8.23144 21.5236 8.23144H40.9979C41.5158 8.23144 41.9354 7.81182 41.9354 7.29394C41.9354 6.77607 41.5158 6.35645 40.9979 6.35645Z" fill="#333333"/>
<path d="M40.9979 11.8442H21.5236C21.0058 11.8442 20.5861 12.2639 20.5861 12.7817C20.5861 13.2996 21.0058 13.7192 21.5236 13.7192H40.9979C41.5158 13.7192 41.9354 13.2996 41.9354 12.7817C41.9354 12.2639 41.5158 11.8442 40.9979 11.8442Z" fill="#333333"/>
<path d="M58.9406 32.4223H53.375V29.8051C53.375 26.3556 50.5686 23.5493 47.1191 23.5493H36.5791C33.1296 23.5493 30.3232 26.3556 30.3232 29.8051V32.4223H24.7576C21.9584 32.4223 19.6982 34.6919 19.6982 37.4817V58.9221C19.6982 61.7117 21.9679 63.9814 24.7576 63.9814H58.9407C61.7304 63.9814 64.0001 61.7118 64.0001 58.9221V54.8596C64.0001 54.3417 63.5805 53.9221 63.0626 53.9221C62.5447 53.9221 62.1251 54.3417 62.1251 54.8596V58.9221C62.1251 60.6779 60.6966 62.1064 58.9407 62.1064H24.7576C23.0017 62.1064 21.5732 60.6779 21.5732 58.9221V45.6348C23.0506 47.4564 25.2731 48.6504 27.7724 48.7481V50.1794C27.7724 52.0686 29.3094 53.6056 31.1985 53.6056C33.0876 53.6056 34.6246 52.0686 34.6246 50.1794V48.7546H49.0736V50.1794C49.0736 52.0686 50.6106 53.6056 52.4997 53.6056C54.3889 53.6056 55.9259 52.0686 55.9259 50.1794V48.7481C58.4251 48.6504 60.6476 47.4564 62.125 45.6348V50.4767C62.125 50.9946 62.5446 51.4142 63.0625 51.4142C63.5804 51.4142 64 50.9946 64 50.4767V37.4814C64 34.6927 61.7409 32.4223 58.9406 32.4223ZM32.1982 29.8051C32.1982 27.3896 34.1635 25.4243 36.5791 25.4243H47.1191C49.5347 25.4243 51.5 27.3896 51.5 29.8051V32.4223H49.5476V29.8051C49.5476 28.4662 48.4582 27.3768 47.1191 27.3768H36.5791C35.2401 27.3768 34.1507 28.4662 34.1507 29.8051V32.4223H32.1982V29.8051ZM36.0257 32.4223V29.8051C36.0257 29.5001 36.2739 29.2518 36.5791 29.2518H47.1191C47.4242 29.2518 47.6726 29.4999 47.6726 29.8051V32.4223H36.0257ZM32.7496 50.1794C32.7496 51.0348 32.0539 51.7306 31.1985 51.7306C30.3431 51.7306 29.6474 51.0348 29.6474 50.1794V46.8281C29.6474 45.9727 30.3431 45.2769 31.1985 45.2769C32.0539 45.2769 32.7496 45.9727 32.7496 46.8281V50.1794ZM54.0509 50.1794C54.0509 51.0348 53.3551 51.7306 52.4997 51.7306C51.6444 51.7306 50.9486 51.0348 50.9486 50.1794V47.8267C50.9486 47.8234 50.9487 47.8202 50.9487 47.8171C50.9487 47.8139 50.9486 47.8106 50.9486 47.8074V46.8282C50.9486 45.9728 51.6444 45.2771 52.4997 45.2771C53.3551 45.2771 54.0509 45.9728 54.0509 46.8282V50.1794ZM55.9259 46.8712V46.8282C55.9259 44.9391 54.3889 43.4021 52.4997 43.4021C50.6106 43.4021 49.0736 44.9391 49.0736 46.8282V46.8796H34.6246V46.8282C34.6246 44.9391 33.0876 43.4021 31.1985 43.4021C29.3094 43.4021 27.7724 44.9391 27.7724 46.8282V46.8712C24.3247 46.6976 21.5732 43.8382 21.5732 40.3482V37.4814C21.5732 35.7231 22.9984 34.2972 24.7576 34.2972H58.9407C60.6955 34.2972 62.1251 35.7186 62.1251 37.4816V40.3482C62.125 43.8382 59.3735 46.6976 55.9259 46.8712Z" fill="#333333"/>
<path d="M18.4896 62.1066H4.63612C3.11362 62.1066 1.875 60.868 1.875 59.3455V14.3138C1.875 14.1114 1.89662 13.9124 1.93887 13.7193H10.4707C12.2521 13.7193 13.7014 12.2701 13.7014 10.4888V1.95694C13.8945 1.91482 14.0935 1.89307 14.2959 1.89307H46.0819C47.6044 1.89307 48.843 3.13169 48.843 4.65419V20.7395C48.843 21.2573 49.2626 21.677 49.7805 21.677C50.2984 21.677 50.718 21.2573 50.718 20.7395V4.65419C50.718 2.09782 48.6382 0.0180664 46.0819 0.0180664H14.2957C13.0574 0.0180664 11.893 0.500192 11.0174 1.37582L1.35775 11.0356C0.482125 11.9112 0 13.0754 0 14.3138V59.3455C0 61.9018 2.07975 63.9816 4.63612 63.9816H18.4896C19.0075 63.9816 19.4271 63.562 19.4271 63.0441C19.4271 62.5262 19.0075 62.1066 18.4896 62.1066ZM11.8262 3.21894V10.4888C11.8262 11.2362 11.2181 11.8443 10.4706 11.8443H3.20087L11.8262 3.21894Z" fill="#333333"/>
</svg>
