<svg width="64" height="64" viewBox="0 0 64 64" fill="none" xmlns="http://www.w3.org/2000/svg">
<path d="M47.9535 11.374H43.9955C41.3508 11.374 39.2066 13.518 39.2066 16.1629V20.782L40.3656 21.4797H48.4134V12.2163L47.9535 11.374Z" fill="#EFC984"/>
<path d="M56.6681 43.5484C56.6681 40.9308 54.943 38.6264 52.4314 37.889L45.4266 35.8325L45.4311 34.332H42.2983L35.4504 36.3419C32.9958 37.0624 31.3096 39.3144 31.3096 41.8725V52.8115H56.6688L56.6681 43.5484Z" fill="#2F80ED"/>
<path d="M59.8598 36.3421L53.0144 34.3325H44.9115L44.9056 36.3049L51.751 38.3145C54.2054 39.0351 55.8913 41.287 55.8913 43.845V52.8119H64V41.8726C64 39.3148 62.3141 37.0628 59.8598 36.3421Z" fill="#2F80ED"/>
<path d="M51.5282 52.8117L49.0132 41.5977H46.2887L43.7737 52.8117H51.5282Z" fill="#F2994A"/>
<path d="M51.4144 35.7113V29.666H43.8925V35.7113C43.8925 37.7884 47.6534 37.973 47.6534 37.973C47.6534 37.973 51.4144 37.7883 51.4144 35.7113Z" fill="#FFDDCE"/>
<path d="M48.2492 27.2185C48.3666 26.7038 48.4132 26.1755 48.4132 25.6477V17.6368C46.9635 17.7342 45.4994 17.5523 44.1027 17.0909L44.1 17.09C43.1111 16.7633 42.0921 17.4998 42.0921 18.5413V19.334C42.0921 20.1337 41.4439 20.7819 40.6442 20.7819H39.2065V23.1495C39.2065 23.7545 39.697 24.245 40.302 24.245C40.4929 24.245 40.6482 24.3945 40.6602 24.585C40.8565 27.6977 43.0832 30.259 46.0314 30.9578C47.1219 29.9887 47.9136 28.6908 48.2492 27.2185Z" fill="#FFDDCE"/>
<path d="M54.0195 14.1575H53.9494C53.5612 14.1575 53.2466 13.8429 53.2466 13.4548C53.2466 12.3056 52.315 11.374 51.1659 11.374H47.9535V21.4797H54.9412L56.1002 20.782V16.2383C56.1002 15.0892 55.1687 14.1575 54.0195 14.1575Z" fill="#EABC6B"/>
<path d="M54.6625 20.7821C53.8629 20.7821 53.2146 20.1338 53.2146 19.3342V18.5418C53.2146 17.5002 52.1955 16.7637 51.2066 17.0906C50.1491 17.4401 49.053 17.6274 47.9536 17.6564V25.4046C47.9536 25.9234 47.9077 26.4428 47.7924 26.9487C47.4437 28.4781 46.5942 29.8161 45.4267 30.7836C46.1265 31.0181 46.8749 31.1466 47.6536 31.1466C51.3741 31.1466 54.4159 28.2473 54.6467 24.5851C54.6587 24.3946 54.8141 24.2451 55.005 24.2451C55.61 24.2451 56.1005 23.7546 56.1005 23.1496V20.7819H54.6625V20.7821Z" fill="#FFCBBE"/>
<path d="M42.4264 33.9317L41.3552 34.4126C40.7439 34.6871 40.5962 35.4886 41.0697 35.963L44.0361 38.934C44.4124 39.3002 45.0046 39.3228 45.4076 38.9862L47.7338 37.0432L43.768 34.0799C43.3809 33.7904 42.8673 33.7337 42.4264 33.9317Z" fill="#365E7D"/>
<path d="M51.5369 34.0979L47.7339 37.0427L49.9201 38.9119C50.3206 39.2544 50.9156 39.2372 51.2958 38.8721L54.2636 35.9818C54.7488 35.5094 54.6038 34.6966 53.9853 34.4209L52.8934 33.9344C52.4455 33.7351 51.9244 33.7979 51.5369 34.0979Z" fill="#365E7D"/>
<path d="M56.6696 62.6697L56.6686 50.3306H15.2166V63.9396H55.861C56.3163 63.6963 56.6343 63.2189 56.6696 62.6697Z" fill="#DDB7A0"/>
<path d="M55.8927 50.3306V62.5307C55.8426 63.3088 55.2119 63.9396 54.4337 63.9396H61.3265C62.803 63.9396 64 62.7426 64 61.2661V50.3306H55.8927Z" fill="#D6A889"/>
<path d="M19.5519 46.7135V40.8345H12.2369V46.7135C12.2369 48.7335 15.8944 48.913 15.8944 48.913C15.8944 48.913 19.5519 48.7335 19.5519 46.7135Z" fill="#FFDDCE"/>
<path d="M16.0669 42.8487C17.8479 42.2303 19.0417 40.5515 19.0411 38.6662C19.0407 37.6237 18.8885 36.5868 18.5892 35.5882C18.0971 33.9464 17.8467 32.2416 17.8462 30.5276V30.5233C17.845 26.5839 15.5684 23.1787 12.2602 21.5444C8.68537 22.9844 6.16174 26.4848 6.16049 30.5751V30.5792C6.15999 32.2453 5.91674 33.9024 5.43824 35.4983C5.14724 36.469 4.99924 37.4769 4.99899 38.4903C4.99837 40.3229 6.15874 41.9547 7.88999 42.5558C9.52324 43.1228 11.2017 43.5112 12.8969 43.721C13.9667 43.5008 15.0257 43.2102 16.0669 42.8487Z" fill="#407093"/>
<path d="M26.3531 35.4986C25.8748 33.9026 25.6314 32.2455 25.6309 30.5795V30.5754C25.6293 25.2 21.2711 20.8433 15.8958 20.8433C14.441 20.8433 13.062 21.1646 11.8224 21.7366C15.163 23.2783 17.483 26.6548 17.4841 30.5754V30.5795C17.4846 32.2456 17.7279 33.9028 18.2064 35.4986C18.4974 36.4693 18.6454 37.4771 18.6456 38.4905C18.6463 40.3231 17.4859 41.955 15.7546 42.556C14.4674 43.0029 13.1519 43.3386 11.8224 43.5636C15.8481 44.245 20.0034 43.9093 23.9014 42.556C25.6326 41.9549 26.793 40.3231 26.7924 38.4905C26.792 37.4773 26.644 36.4694 26.3531 35.4986Z" fill="#365E7D"/>
<path d="M27.7904 13.5251V2.83471C27.7904 0.229465 25.5228 0.00283984 23.9591 0.00146484H7.25625C5.6915 0.00146484 4.423 1.26996 4.423 2.83471V13.5251C4.423 15.0898 5.6915 16.3583 7.25625 16.3583H24.406L25.0983 16.321C25.9434 16.2753 26.7459 15.8788 27.2455 15.1957C27.5881 14.7273 27.7904 14.1498 27.7904 13.5251Z" fill="#2F80ED"/>
<path d="M32.1733 0.00146484H23.9591C25.5239 0.00146484 26.7924 1.26997 26.7924 2.83472V13.5251C26.7924 14.8882 25.8296 16.0262 24.547 16.2968C24.495 16.3078 24.4479 16.3296 24.406 16.3583H27.0555C27.165 16.3583 27.27 16.4018 27.3475 16.4793L31.5885 20.7203C31.9034 21.0352 32.4419 20.8122 32.4419 20.3668V16.6986C32.4419 16.5067 32.5734 16.3365 32.7611 16.2968C34.0438 16.0262 35.0066 14.8883 35.0066 13.5251V2.83472C35.0065 1.26997 33.738 0.00146484 32.1733 0.00146484Z" fill="#2F80ED"/>
<path d="M24.2456 54.2315C24.2456 51.7438 22.8465 50.5427 20.2191 49.9786L18.7345 49.696C17.6669 49.4927 16.8441 48.6885 16.5849 47.6743C14.8816 47.9658 13.0079 47.1617 12.2454 45.2621L12.2367 45.2407L4.02675 46.8285C1.63975 47.5291 0 49.7192 0 52.2071V61.3252C0 62.8038 1.20025 64.0017 2.67887 63.9987L23.6446 63.9557L24.2321 63.5052L24.2456 54.2315Z" fill="#F2994A"/>
<path d="M30.585 63.9492C31.2529 63.9439 31.7915 63.401 31.7915 62.7332V52.2065C31.7915 49.7189 30.152 47.5288 27.765 46.828L19.5519 45.2642C18.8933 46.9018 17.4088 47.7237 15.9204 47.7314C16.0693 48.8994 16.9513 49.8614 18.1336 50.0865L19.6183 50.3692C22.2455 50.9334 23.6448 52.1344 23.6448 54.622V63.9559L30.585 63.9492Z" fill="#F2994A"/>
<path d="M49.9201 38.9117L47.7339 37.0425L45.4077 38.9855C45.2579 39.1107 45.0816 39.186 44.9002 39.2126L46.2887 41.5974H49.0132L50.3862 39.1369C50.2189 39.1039 50.0579 39.0296 49.9201 38.9117Z" fill="#F2994A"/>
</svg>
