<svg width="64" height="64" viewBox="0 0 64 64" fill="none" xmlns="http://www.w3.org/2000/svg">
<path d="M57.9985 33.3237C60.9624 30.2715 62.75 26.3188 62.75 22C62.75 12.335 53.0464 4.5 42 4.5C30.9536 4.5 22 12.335 22 22L42 39.5C44.9512 39.5 48.5039 38.9399 51.0264 37.936C53.311 40.4336 56.5977 42 60.25 42C57.9014 39.6514 57.1499 36.3076 57.9985 33.3237Z" fill="#F2994A"/>
<path d="M32.3062 24.5C38.1152 27.5625 42 33.1338 42 39.5C42 49.165 33.0464 57 22 57C19.0488 57 15.4961 56.4399 12.9736 55.436C10.689 57.9336 7.40234 59.5 3.75 59.5C6.09863 57.1514 6.8501 53.8076 6.00146 50.8237C3.0376 47.7715 1.25 43.8188 1.25 39.5C1.25 29.835 10.9536 22 22 22C25.77 22 29.2974 22.9126 32.3062 24.5Z" fill="#2F80ED"/>
<path d="M32 15.75C31.3101 15.75 30.75 16.3101 30.75 17C30.75 17.6899 31.3101 18.25 32 18.25C32.6899 18.25 33.25 17.6899 33.25 17C33.25 16.3101 32.6899 15.75 32 15.75Z" fill="white"/>
<path d="M11.25 38.25C11.9399 38.25 12.5 37.6899 12.5 37C12.5 36.3101 11.9399 35.75 11.25 35.75C10.5601 35.75 10 36.3101 10 37C10 37.6899 10.5601 38.25 11.25 38.25Z" fill="white"/>
<path d="M32 35.75H16.25C15.5596 35.75 15 36.3096 15 37C15 37.6904 15.5596 38.25 16.25 38.25H32C32.6904 38.25 33.25 37.6904 33.25 37C33.25 36.3096 32.6904 35.75 32 35.75Z" fill="white"/>
<path d="M32 43.25H11.25C10.5596 43.25 10 43.8096 10 44.5C10 45.1904 10.5596 45.75 11.25 45.75H32C32.6904 45.75 33.25 45.1904 33.25 44.5C33.25 43.8096 32.6904 43.25 32 43.25Z" fill="white"/>
<path d="M52.75 15.75H37C36.3096 15.75 35.75 16.3096 35.75 17C35.75 17.6904 36.3096 18.25 37 18.25H52.75C53.4404 18.25 54 17.6904 54 17C54 16.3096 53.4404 15.75 52.75 15.75Z" fill="white"/>
<path d="M52.75 21.5684H37C36.3096 21.5684 35.75 22.1279 35.75 22.8184C35.75 23.5088 36.3096 24.0684 37 24.0684H52.75C53.4404 24.0684 54 23.5088 54 22.8184C54 22.1279 53.4404 21.5684 52.75 21.5684Z" fill="white"/>
</svg>
