<svg width="625" height="416" viewBox="0 0 625 416" fill="none" xmlns="http://www.w3.org/2000/svg">
<path d="M555.403 125.025L547.441 163.588L542.316 158.587L533.596 164.811L526.932 156.532L511.989 167.398L499.218 146.041L484.974 154.386L479.325 146.598L461.237 156.79L455.796 145.134L468.476 83.7241L536.45 97.76L555.403 125.025Z" fill="#EBEBEB"/>
<path d="M536.45 97.7603L555.403 125.025L531.824 120.158L536.45 97.7603Z" fill="#DBDBDB"/>
<path d="M545.743 171.292L534.07 227.868L442.509 208.965L454.099 152.847L459.54 164.495L477.636 154.303L483.277 162.09L497.529 153.754L510.292 175.111L525.243 164.245L531.899 172.515L540.627 166.3L545.743 171.292Z" fill="#EBEBEB"/>
<path d="M414.695 164.661L321.386 170.436L313.973 50.6608L383.262 46.3677L408.696 67.7085L414.695 164.661Z" fill="#EBEBEB"/>
<path d="M383.262 46.3677L408.696 67.7085L384.668 69.1977L383.262 46.3677Z" fill="#DBDBDB"/>
<path d="M357.428 126.963L357.062 124.259C356.122 118.66 357.653 112.395 362.52 105.847C366.913 100.023 369.293 95.8632 369.026 91.1374C368.727 85.8126 365.191 82.4514 358.61 82.7176C354.849 82.9129 351.236 84.2478 348.251 86.5448L345.381 80.1134C348.709 77.4094 354.533 75.4126 360.066 75.1214C372.071 74.4558 377.912 81.5611 378.37 89.4901C378.769 96.587 375.092 101.92 370.416 108.152C366.123 113.834 364.717 118.519 365.324 123.818L365.582 126.531L357.428 126.963ZM355.947 141.698C355.731 137.838 358.185 134.976 361.838 134.776C365.49 134.576 368.153 137.139 368.369 141.008C368.569 144.66 366.331 147.605 362.47 147.822C358.784 148.03 356.122 145.351 355.914 141.698H355.947Z" fill="#DBDBDB"/>
<path d="M124.035 106.588L114.65 102.336L113.344 105.207C113.151 105.617 112.85 105.967 112.474 106.219C112.097 106.471 111.659 106.616 111.206 106.638C110.69 106.655 110.176 106.705 109.667 106.788C109.22 106.854 108.763 106.798 108.345 106.625C107.928 106.452 107.565 106.169 107.296 105.806L105.457 103.235L97.0786 109.242L98.9173 111.813C99.1731 112.184 99.3236 112.617 99.3529 113.067C99.3822 113.517 99.2892 113.966 99.0837 114.367C98.8465 114.825 98.6327 115.294 98.4431 115.773C98.2783 116.196 98.0014 116.565 97.6423 116.843C97.2831 117.12 96.8553 117.294 96.4047 117.346L93.2681 117.654L94.2748 127.912L97.4281 127.596C97.8803 127.56 98.3338 127.648 98.7399 127.85C99.1459 128.052 99.4892 128.361 99.7327 128.744C99.8658 128.96 100.007 129.168 100.157 129.376C100.307 129.584 100.457 129.784 100.615 129.984C100.902 130.333 101.086 130.755 101.148 131.203C101.21 131.651 101.146 132.107 100.964 132.521L99.6495 135.417L109.043 139.677L110.349 136.79C110.544 136.38 110.846 136.031 111.225 135.78C111.603 135.529 112.042 135.386 112.496 135.367C113.006 135.346 113.514 135.296 114.018 135.217C114.465 135.151 114.922 135.207 115.34 135.38C115.757 135.553 116.12 135.836 116.389 136.199L118.228 138.77L126.615 132.763L124.776 130.192C124.512 129.824 124.357 129.39 124.328 128.938C124.298 128.487 124.396 128.036 124.61 127.638C124.841 127.183 125.05 126.716 125.234 126.24C125.394 125.814 125.669 125.441 126.029 125.164C126.389 124.886 126.82 124.714 127.272 124.667L130.425 124.351L129.41 114.093L126.257 114.4C125.807 114.44 125.356 114.354 124.952 114.153C124.548 113.952 124.208 113.643 123.969 113.261C123.827 113.044 123.686 112.836 123.536 112.628C123.386 112.42 123.237 112.212 123.079 112.021C122.793 111.667 122.61 111.242 122.549 110.792C122.487 110.342 122.549 109.884 122.729 109.467L124.035 106.588ZM118.711 116.081C119.684 117.439 120.232 119.055 120.287 120.724C120.341 122.393 119.9 124.042 119.017 125.46C118.135 126.878 116.852 128.003 115.331 128.692C113.809 129.382 112.117 129.604 110.469 129.332C108.821 129.059 107.291 128.305 106.072 127.162C104.853 126.02 104.001 124.543 103.622 122.916C103.243 121.289 103.355 119.586 103.944 118.023C104.532 116.46 105.571 115.107 106.93 114.134C108.75 112.83 111.014 112.303 113.223 112.668C115.432 113.033 117.406 114.261 118.711 116.081Z" fill="#EBEBEB"/>
<path d="M548.273 242.704L542.016 246.314L543.123 248.228C543.288 248.503 543.37 248.819 543.36 249.139C543.35 249.46 543.247 249.77 543.065 250.034C542.873 250.333 542.69 250.641 542.524 250.965C542.387 251.252 542.171 251.494 541.901 251.662C541.631 251.83 541.319 251.918 541.001 251.914H538.805V259.144H541.018C541.336 259.14 541.648 259.227 541.918 259.395C542.188 259.564 542.404 259.805 542.54 260.092C542.707 260.417 542.89 260.725 543.081 261.024C543.264 261.288 543.366 261.598 543.377 261.918C543.387 262.239 543.305 262.555 543.139 262.83L542.033 264.743L548.29 268.354L549.404 266.432C549.566 266.16 549.8 265.937 550.081 265.79C550.361 265.644 550.677 265.578 550.993 265.6H552.058C552.374 265.579 552.69 265.645 552.971 265.792C553.251 265.939 553.485 266.16 553.648 266.432L554.762 268.362L561.011 264.752L559.904 262.83C559.747 262.554 559.67 262.239 559.681 261.922C559.693 261.604 559.793 261.296 559.971 261.033C560.162 260.733 560.345 260.417 560.512 260.101C560.648 259.814 560.864 259.572 561.134 259.404C561.404 259.236 561.716 259.148 562.034 259.152H564.247V251.922H562.017C561.7 251.926 561.387 251.839 561.117 251.671C560.848 251.503 560.632 251.261 560.495 250.974C560.329 250.658 560.145 250.341 559.954 250.042C559.777 249.778 559.677 249.47 559.665 249.153C559.653 248.835 559.73 248.521 559.888 248.245L560.994 246.323L554.746 242.712L553.631 244.609C553.469 244.881 553.235 245.104 552.955 245.251C552.674 245.398 552.358 245.463 552.042 245.441H551.509H550.977C550.66 245.462 550.343 245.396 550.061 245.249C549.78 245.102 549.544 244.881 549.379 244.609L548.273 242.704ZM551.509 249.609C552.682 249.608 553.828 249.954 554.804 250.604C555.779 251.254 556.54 252.179 556.989 253.262C557.438 254.345 557.556 255.537 557.328 256.687C557.1 257.837 556.535 258.893 555.706 259.722C554.877 260.551 553.821 261.115 552.671 261.343C551.521 261.572 550.33 261.454 549.247 261.004C548.164 260.555 547.239 259.794 546.589 258.819C545.938 257.844 545.592 256.697 545.594 255.525C545.593 254.747 545.745 253.977 546.042 253.258C546.339 252.54 546.774 251.887 547.323 251.336C547.873 250.786 548.525 250.35 549.244 250.052C549.962 249.754 550.732 249.601 551.509 249.601V249.609Z" fill="#EBEBEB"/>
<path d="M143.022 75.8451L137.289 80.2381L138.612 81.9936C138.81 82.2437 138.931 82.5453 138.962 82.8623C138.993 83.1794 138.932 83.4988 138.787 83.7824C138.628 84.1062 138.489 84.4397 138.371 84.7808C138.269 85.0813 138.084 85.3472 137.839 85.5485C137.593 85.7499 137.296 85.8788 136.982 85.9206L134.785 86.2035L135.717 93.367L137.913 93.0841C138.233 93.0396 138.559 93.0862 138.853 93.2187C139.148 93.3512 139.399 93.5641 139.577 93.8329C139.778 94.1224 139.994 94.4001 140.226 94.6649C140.441 94.9006 140.583 95.1929 140.636 95.5071C140.689 95.8212 140.651 96.144 140.526 96.4371L139.694 98.4838L146.35 101.254L147.182 99.2076C147.306 98.914 147.509 98.661 147.77 98.4772C148.03 98.2934 148.336 98.1861 148.655 98.1676L149.187 98.1094L149.711 98.0262C150.019 97.9682 150.337 97.9957 150.63 98.1057C150.924 98.2157 151.181 98.404 151.375 98.6502L152.731 100.422L158.464 96.0294L157.124 94.2739C156.931 94.0203 156.812 93.7177 156.781 93.4002C156.75 93.0827 156.809 92.7629 156.95 92.4768C157.107 92.1551 157.246 91.8245 157.366 91.4867C157.468 91.1862 157.653 90.9203 157.898 90.7189C158.144 90.5175 158.44 90.3887 158.755 90.3468L160.952 90.064L160.02 82.9004L157.823 83.1833C157.504 83.2288 157.179 83.1834 156.885 83.0524C156.59 82.9214 156.339 82.7102 156.159 82.4428C155.951 82.1433 155.735 81.8604 155.502 81.6108C155.308 81.3701 155.183 81.0816 155.139 80.7756C155.095 80.4697 155.134 80.1575 155.252 79.872L156.084 77.8252L149.428 75.0547L148.596 77.1014C148.471 77.3939 148.267 77.6459 148.007 77.8295C147.747 78.0131 147.441 78.121 147.124 78.1414L146.591 78.1913L146.1 78.208C145.792 78.266 145.475 78.2385 145.181 78.1285C144.888 78.0185 144.63 77.8301 144.436 77.584L143.022 75.8451ZM147.124 82.2764C148.283 82.1275 149.46 82.3251 150.507 82.8443C151.553 83.3635 152.423 84.1812 153.006 85.194C153.588 86.2069 153.858 87.3696 153.78 88.5356C153.703 89.7015 153.282 90.8184 152.571 91.7453C151.859 92.6723 150.889 93.3678 149.783 93.7441C148.677 94.1204 147.484 94.1606 146.355 93.8597C145.226 93.5588 144.211 92.9303 143.439 92.0534C142.666 91.1765 142.171 90.0905 142.015 88.9324C141.911 88.1596 141.961 87.3739 142.162 86.6204C142.363 85.867 142.71 85.1606 143.185 84.542C143.66 83.9235 144.252 83.4048 144.928 83.016C145.604 82.6272 146.35 82.3759 147.124 82.2764Z" fill="#EBEBEB"/>
<path d="M100.19 263.561C100.503 255.518 100.392 247.464 99.8573 239.433C98.6668 222.849 96.1376 206.388 92.2944 190.211C90.1811 181.109 87.5853 172.157 84.873 163.213C84.7898 162.939 84.3571 163.013 84.432 163.296C92.8102 194.829 99.6826 227.36 99.2083 260.141C99.0752 269.293 98.0102 278.32 97.145 287.439C97.145 287.68 97.5194 287.78 97.5776 287.531C99.2998 279.701 99.8656 271.531 100.19 263.561Z" fill="#EBEBEB"/>
<path d="M84.4327 163.272C84.4327 163.272 71.753 195.47 74.5901 203.008C77.4272 210.546 83.2845 212.16 83.2845 212.16C83.2845 212.16 75.522 223.243 80.9466 233.634C86.3712 244.026 98.4186 243.535 99.2506 255.316C99.2256 255.374 99.8912 206.112 84.4327 163.272Z" fill="#EBEBEB"/>
<path d="M97.8443 235.032C97.8648 234.979 97.8648 234.92 97.8443 234.866C96.1801 212.884 92.0554 191.158 85.5474 170.095C85.5474 170.037 85.4226 170.053 85.4392 170.095C87.9518 179.524 90.1705 188.992 92.0952 198.499C90.3905 196.884 88.308 195.723 86.0382 195.121C86.0382 195.121 85.9717 195.171 86.0382 195.188C88.4227 196.062 90.5666 197.487 92.2949 199.348C92.661 201.22 93.027 203.084 93.3682 204.956C90.531 201.786 86.604 200.213 82.6686 198.716C82.6597 198.72 82.6522 198.726 82.6468 198.734C82.6415 198.742 82.6387 198.752 82.6387 198.761C82.6387 198.771 82.6415 198.781 82.6468 198.789C82.6522 198.797 82.6597 198.803 82.6686 198.807C86.7704 200.471 90.8472 202.618 93.6261 206.154C94.5912 211.495 95.4398 216.856 96.172 222.236C94.1235 220.09 91.4963 218.584 88.6091 217.902C88.5176 217.902 88.4677 218.01 88.5592 218.035C91.5251 218.908 94.173 220.625 96.1803 222.977H96.2302C96.4798 224.863 96.7183 226.757 96.9458 228.659C95.361 227.318 93.5718 226.24 91.6459 225.464C91.596 225.464 91.5627 225.523 91.6459 225.539C93.6112 226.391 95.411 227.582 96.9624 229.059C96.9624 229.059 97.004 229.059 97.029 229.059C97.237 230.864 97.445 232.67 97.628 234.475C94.771 231.021 91.0632 228.372 86.8702 226.787C86.8526 226.787 86.8357 226.794 86.8232 226.807C86.8107 226.819 86.8037 226.836 86.8037 226.854C86.8037 226.872 86.8107 226.888 86.8232 226.901C86.8357 226.913 86.8526 226.92 86.8702 226.92C91.0106 228.745 94.6475 231.546 97.4699 235.082C97.501 235.121 97.5429 235.15 97.5903 235.165C97.6378 235.179 97.6885 235.18 97.7362 235.166C98.0107 237.936 98.2603 240.707 98.46 243.486C98.46 243.527 98.5266 243.527 98.5266 243.486C98.3102 240.696 98.0828 237.878 97.8443 235.032Z" fill="white"/>
<path d="M87.652 191.951C85.3557 190.522 82.7324 189.703 80.0309 189.572C80.0176 189.572 80.0049 189.577 79.9956 189.586C79.9862 189.596 79.981 189.608 79.981 189.622C79.981 189.635 79.9862 189.648 79.9956 189.657C80.0049 189.666 80.0176 189.672 80.0309 189.672C82.6428 190.167 85.1775 191.006 87.5688 192.168C87.6686 192.193 87.7435 192.018 87.652 191.951Z" fill="white"/>
<path d="M89.1918 226.038C87.4269 225.025 85.4835 224.361 83.4676 224.083C83.4011 224.083 83.3928 224.174 83.4676 224.191C85.4361 224.586 87.3402 225.252 89.1252 226.171C89.2001 226.212 89.2667 226.079 89.1918 226.038Z" fill="white"/>
<path d="M133.537 203.565C128.173 207.273 123.247 211.577 118.852 216.395C114.32 221.496 110.825 227.43 108.561 233.867C103.741 247.277 101.15 261.386 100.89 275.633C100.728 283.523 101.485 291.405 103.144 299.121C103.158 299.177 103.192 299.225 103.241 299.257C103.289 299.288 103.348 299.3 103.404 299.289C103.461 299.278 103.511 299.246 103.545 299.199C103.579 299.153 103.593 299.095 103.585 299.037C101.52 285.423 101.599 271.569 103.818 257.978C105.998 244.666 109.417 230.173 117.887 219.349C122.497 213.45 128.246 208.815 133.928 204.023C134.228 203.757 133.845 203.349 133.537 203.565Z" fill="#EBEBEB"/>
<path d="M102.753 266.033C105.806 261.094 109.394 256.507 113.452 252.355C119.801 246.006 125.142 241.497 125.974 237.304C126.806 233.11 119.618 230.015 119.618 230.015C119.618 230.015 128.395 231.596 130.8 227.91C133.204 224.225 134.361 202.875 134.361 202.875C134.361 202.875 118.386 214.282 110.94 230.273C103.493 246.264 102.753 266.033 102.753 266.033Z" fill="#EBEBEB"/>
<path d="M128.629 222.902C127.577 222.745 126.51 222.709 125.45 222.794C125.326 222.794 125.334 223.01 125.45 223.018C126.499 223.018 127.555 222.968 128.604 223.018C128.616 223.015 128.627 223.009 128.635 223C128.644 222.991 128.65 222.98 128.652 222.968C128.655 222.956 128.654 222.943 128.65 222.931C128.646 222.92 128.638 222.909 128.629 222.902Z" fill="white"/>
<path d="M117.155 243.61C115.468 243.644 113.801 243.977 112.229 244.592C112.229 244.592 112.229 244.675 112.229 244.666C113.893 244.275 115.499 244.117 117.147 243.835C117.168 243.825 117.187 243.81 117.2 243.79C117.213 243.771 117.22 243.748 117.221 243.725C117.222 243.701 117.216 243.678 117.205 243.658C117.193 243.637 117.176 243.621 117.155 243.61Z" fill="white"/>
<path d="M113.71 236.454C113.01 236.449 112.311 236.51 111.622 236.637C111.609 236.642 111.598 236.651 111.591 236.662C111.583 236.673 111.579 236.686 111.579 236.7C111.579 236.713 111.583 236.727 111.591 236.738C111.598 236.749 111.609 236.758 111.622 236.762C112.319 236.803 113.019 236.772 113.71 236.671C113.739 236.671 113.767 236.659 113.787 236.639C113.807 236.619 113.818 236.591 113.818 236.563C113.818 236.534 113.807 236.506 113.787 236.486C113.767 236.466 113.739 236.454 113.71 236.454Z" fill="white"/>
<path d="M55.9203 226.212C61.1196 227.975 66.1019 230.322 70.7715 233.209C75.6165 236.288 79.8181 240.278 83.1433 244.957C90.1396 254.696 95.4962 265.513 99.0012 276.981C100.956 283.331 102.162 289.887 102.595 296.516C102.586 296.559 102.563 296.598 102.529 296.625C102.495 296.653 102.452 296.668 102.408 296.668C102.364 296.668 102.322 296.653 102.288 296.625C102.254 296.598 102.23 296.559 102.221 296.516C100.752 285.022 97.4902 273.828 92.5532 263.344C87.7027 253.069 81.5875 242.137 72.2358 235.331C67.144 231.629 61.4198 229.199 55.7123 226.637C55.4128 226.537 55.6208 226.113 55.9203 226.212Z" fill="#EBEBEB"/>
<path d="M95.2735 269.651C91.6588 266.362 87.6942 263.48 83.4508 261.056C76.8447 257.387 71.4783 254.974 69.8392 251.771C68.2002 248.568 73.3004 244.408 73.3004 244.408C73.3004 244.408 66.5612 247.736 63.7656 245.282C60.9701 242.827 55.0962 225.854 55.0962 225.854C55.0962 225.854 70.6629 231.387 80.3724 242.611C90.0818 253.835 95.2735 269.651 95.2735 269.651Z" fill="#EBEBEB"/>
<path d="M82.3527 254.027C80.8222 253.92 79.2855 254.11 77.8267 254.584C77.8267 254.584 77.8267 254.659 77.8267 254.651C79.315 254.396 80.8187 254.24 82.3278 254.185C82.4359 254.185 82.4609 254.035 82.3527 254.027Z" fill="white"/>
<path d="M68.7742 236.222C68.0761 236.165 67.3734 236.204 66.6859 236.339C66.6111 236.339 66.636 236.472 66.6859 236.463C67.3765 236.389 68.0504 236.414 68.7326 236.397C68.7538 236.398 68.7747 236.391 68.7916 236.378C68.8085 236.366 68.8204 236.347 68.8253 236.327C68.8302 236.306 68.8278 236.284 68.8185 236.265C68.8092 236.246 68.7935 236.231 68.7742 236.222Z" fill="white"/>
<path d="M115.349 317.974H80.2139L85.2225 281.274L86.5038 271.864H109.059L110.341 281.274L115.349 317.974Z" fill="#DBDBDB"/>
<path d="M110.341 281.274H85.2227L86.5039 271.864H109.059L110.341 281.274Z" fill="#C7C7C7"/>
<path d="M112.28 268.603H83.2764V276.574H112.28V268.603Z" fill="#DBDBDB"/>
<path d="M57.875 317.974L121.115 317.774L184.356 317.7L310.836 317.558L437.317 317.7L500.557 317.774L563.797 317.974L500.557 318.182L437.317 318.249L310.836 318.39L184.356 318.249L121.115 318.174L57.875 317.974Z" fill="#263238"/>
<path d="M312.5 379.983C444.258 379.983 551.068 368.279 551.068 353.841C551.068 339.404 444.258 327.7 312.5 327.7C180.743 327.7 73.9326 339.404 73.9326 353.841C73.9326 368.279 180.743 379.983 312.5 379.983Z" fill="#EBEBEB"/>
<path d="M256.963 349.515C255.025 350.172 199.439 350.347 197.309 349.032C196.477 348.533 196.003 340.438 195.645 330.637C195.57 328.524 195.512 326.335 195.462 324.122L191.027 294.47L228.193 294.229L231.696 323.889L231.554 330.412C231.554 330.412 252.87 339.855 255.05 341.569C257.23 343.283 258.902 348.858 256.963 349.515Z" fill="#EB9481"/>
<path d="M256.963 349.515C255.025 350.172 199.439 350.347 197.309 349.033C196.327 348.417 195.795 336.594 195.495 324.123L231.654 323.89L231.512 330.413C231.512 330.413 252.828 339.856 255.008 341.57C257.188 343.284 258.902 348.858 256.963 349.515Z" fill="white"/>
<path d="M256.963 349.514C255.025 350.172 199.439 350.346 197.309 349.032C196.477 348.533 196.003 340.437 195.645 330.636L231.479 330.412C231.479 330.412 252.795 339.855 254.975 341.569C257.155 343.283 258.902 348.857 256.963 349.514Z" fill="#A6A6A6"/>
<path d="M256.156 347.294C246.838 347.094 209.231 347.186 200.004 347.701C199.93 347.701 199.93 347.751 200.004 347.76C209.24 348.151 246.846 347.76 256.156 347.443C256.356 347.435 256.356 347.294 256.156 347.294Z" fill="#263238"/>
<path d="M251.422 339.581C250.386 339.557 249.356 339.749 248.398 340.145C247.44 340.54 246.575 341.13 245.856 341.877C244.547 343.21 243.807 345 243.793 346.869C243.793 346.927 243.893 346.927 243.901 346.869C244.211 345.028 245.107 343.337 246.456 342.047C247.806 340.758 249.536 339.939 251.389 339.714C251.407 339.718 251.425 339.715 251.441 339.706C251.457 339.697 251.468 339.681 251.472 339.664C251.477 339.646 251.474 339.627 251.465 339.612C251.455 339.596 251.44 339.585 251.422 339.581Z" fill="#263238"/>
<path d="M235.124 331.327C231.397 331.285 227.079 332.616 224.766 335.678C224.682 335.794 224.849 335.919 224.957 335.861C228.214 334.142 231.644 332.775 235.191 331.784C235.245 331.769 235.293 331.735 235.324 331.687C235.355 331.64 235.368 331.582 235.36 331.526C235.351 331.47 235.323 331.418 235.28 331.382C235.236 331.345 235.181 331.325 235.124 331.327Z" fill="#263238"/>
<path d="M238.019 332.433C234.283 332.433 229.965 333.731 227.661 336.785C227.569 336.909 227.736 337.034 227.852 336.976C231.104 335.251 234.532 333.881 238.077 332.891C238.131 332.876 238.178 332.842 238.21 332.795C238.241 332.749 238.254 332.692 238.247 332.637C238.24 332.581 238.213 332.53 238.171 332.492C238.129 332.455 238.075 332.434 238.019 332.433Z" fill="#263238"/>
<path d="M240.898 333.548C237.17 333.548 232.852 334.838 230.539 337.9C230.456 338.016 230.622 338.141 230.73 338.083C233.987 336.364 237.418 334.997 240.964 334.006C241.019 333.991 241.066 333.956 241.097 333.909C241.129 333.861 241.141 333.804 241.133 333.748C241.125 333.692 241.096 333.64 241.053 333.603C241.01 333.567 240.954 333.547 240.898 333.548Z" fill="#263238"/>
<path d="M243.785 334.664C240.049 334.622 235.731 335.953 233.427 339.015C233.335 339.131 233.51 339.256 233.618 339.198C236.874 337.478 240.305 336.111 243.851 335.121C243.906 335.106 243.954 335.072 243.985 335.024C244.016 334.976 244.029 334.919 244.021 334.863C244.012 334.807 243.984 334.755 243.94 334.719C243.897 334.682 243.842 334.662 243.785 334.664Z" fill="#263238"/>
<path d="M202.351 338.84C198.191 338.84 198.191 345.372 202.351 345.347C206.511 345.322 206.545 338.815 202.351 338.84Z" fill="#263238"/>
<path d="M239.125 321.36C237.237 319.796 234.857 321.36 233.701 322.965C231.775 325.804 230.628 329.097 230.373 332.517C230.373 332.592 230.431 332.625 230.489 332.625C230.504 332.695 230.535 332.761 230.581 332.817C230.626 332.873 230.685 332.917 230.751 332.945C230.817 332.974 230.889 332.986 230.96 332.981C231.032 332.976 231.102 332.954 231.163 332.916C233.809 331.077 236.87 329.43 238.876 326.826C240.015 325.312 240.947 322.816 239.125 321.36ZM234.582 329.297C233.301 330.237 231.978 331.111 230.73 332.101C231.396 330.237 231.97 328.357 232.819 326.56C233.211 325.698 233.661 324.864 234.166 324.064C234.998 322.824 238.626 319.696 239.009 323.748C239.225 325.969 236.105 328.182 234.582 329.297Z" fill="#263238"/>
<path d="M221.087 333.932C224.332 334.414 227.685 333.483 230.872 332.975C230.941 332.957 231.005 332.923 231.058 332.876C231.112 332.829 231.154 332.769 231.181 332.703C231.207 332.637 231.218 332.565 231.212 332.494C231.206 332.423 231.184 332.354 231.146 332.293C231.158 332.283 231.168 332.271 231.175 332.258C231.181 332.244 231.185 332.229 231.185 332.214C231.185 332.198 231.181 332.183 231.175 332.17C231.168 332.156 231.158 332.144 231.146 332.135C228.586 329.851 225.47 328.282 222.111 327.584C220.147 327.209 217.368 327.75 217.119 330.188C216.819 332.484 219.19 333.632 221.087 333.932ZM218.824 331.819C216.328 328.624 221.096 328.349 222.527 328.682C223.455 328.914 224.367 329.209 225.256 329.564C227.075 330.318 228.855 331.165 230.589 332.101C229.008 332.26 227.452 332.542 225.88 332.759C223.999 333.008 220.222 333.574 218.824 331.819Z" fill="#263238"/>
<path d="M136.382 157.414C136.382 157.414 179.538 230.83 180.694 235.988C182.466 243.909 191.86 322.125 191.86 322.125L236.788 321.293C236.788 321.293 229.05 252.329 221.72 229.607C216.445 213.241 178.356 158.962 178.356 158.962L136.382 157.414Z" fill="#37474F"/>
<path d="M232.703 314.437C226.255 314.387 203.4 314.129 194.813 314.928C194.747 314.928 194.755 315.045 194.813 315.053C197.767 315.477 226.246 314.82 232.694 314.612C232.708 314.617 232.722 314.618 232.737 314.617C232.751 314.615 232.764 314.61 232.776 314.602C232.788 314.594 232.798 314.583 232.805 314.571C232.812 314.558 232.816 314.545 232.817 314.53C232.818 314.516 232.815 314.502 232.809 314.489C232.803 314.475 232.794 314.464 232.783 314.455C232.772 314.446 232.759 314.44 232.745 314.436C232.731 314.433 232.717 314.434 232.703 314.437Z" fill="#263238"/>
<path d="M143.746 164.153C146.574 168.588 149.57 172.931 152.448 177.332C155.327 181.733 158.222 186.135 161.076 190.528C166.767 199.402 172.314 208.335 177.716 217.326C180.353 221.494 182.608 225.891 184.455 230.464C186.141 235.037 187.408 239.755 188.241 244.558C189.123 249.375 189.705 254.242 190.246 259.109C190.801 264.284 191.38 269.462 191.985 274.643C193.166 285.243 194.351 295.842 195.537 306.442C195.679 307.74 195.82 309.038 195.953 310.344C195.953 310.535 195.629 310.569 195.604 310.344C194.281 299.819 193.183 289.253 191.985 278.728C191.386 273.475 190.79 268.225 190.196 262.978C189.639 258.094 189.106 253.202 188.349 248.352C187.654 243.564 186.597 238.836 185.187 234.208C183.634 229.416 181.552 224.811 178.981 220.48C173.781 211.502 168.273 202.683 162.765 193.856C157.257 185.028 151.6 176.126 145.792 167.406C145.077 166.333 144.353 165.26 143.604 164.203C143.546 164.145 143.696 164.07 143.746 164.153Z" fill="#263238"/>
<path d="M150.526 353.841C148.479 353.717 95.6137 332.301 94.1494 330.271C94.0842 330.151 94.0553 330.016 94.0662 329.88C94.0662 328.058 97.7353 321.701 100.797 313.348C100.988 312.816 102.353 310.336 104.242 307C109.492 297.856 118.643 282.106 118.643 282.106L153.196 295.834L136.656 320.586L134.085 326.577C134.085 326.577 150.301 343.342 151.666 345.713C153.03 348.084 152.564 353.958 150.526 353.841Z" fill="#EB9481"/>
<path d="M150.526 353.841C148.479 353.716 95.6137 332.3 94.1494 330.27C94.0842 330.151 94.0553 330.015 94.0662 329.879C94.0662 328.057 97.7353 321.7 100.797 313.347C100.988 312.815 102.353 310.335 104.242 306.999L136.69 320.586L134.119 326.576C134.119 326.576 150.334 343.341 151.699 345.712C153.063 348.083 152.564 353.957 150.526 353.841Z" fill="white"/>
<path d="M150.526 353.841C148.479 353.716 95.6136 332.3 94.1493 330.27C93.5835 329.496 95.9464 322.283 100.805 313.347L134.085 326.584C134.085 326.584 150.301 343.332 151.674 345.72C153.047 348.108 152.564 353.957 150.526 353.841Z" fill="#A6A6A6"/>
<path d="M150.609 351.479C142.048 347.801 107.154 333.773 98.4097 330.795C98.3348 330.795 98.3182 330.795 98.4097 330.845C106.821 334.672 141.824 348.417 150.576 351.645C150.743 351.686 150.792 351.553 150.609 351.479Z" fill="#263238"/>
<path d="M149.111 342.551C148.162 342.134 147.137 341.918 146.1 341.918C145.063 341.918 144.037 342.134 143.088 342.551C141.381 343.298 140.028 344.675 139.311 346.395C139.311 346.445 139.385 346.486 139.41 346.436C140.391 344.841 141.863 343.607 143.604 342.918C145.346 342.23 147.263 342.124 149.07 342.617C149.084 342.614 149.096 342.605 149.104 342.592C149.111 342.58 149.114 342.565 149.111 342.551Z" fill="#263238"/>
<path d="M137.105 328.79C133.669 327.351 129.16 326.968 125.873 328.94C125.749 329.015 125.873 329.19 125.982 329.181C129.645 328.81 133.338 328.829 136.997 329.24C137.054 329.246 137.11 329.231 137.156 329.198C137.203 329.166 137.236 329.118 137.249 329.062C137.262 329.007 137.255 328.949 137.229 328.899C137.202 328.849 137.158 328.81 137.105 328.79Z" fill="#263238"/>
<path d="M139.36 330.904C135.924 329.464 131.414 329.081 128.128 331.053C128.003 331.128 128.128 331.303 128.236 331.295C131.899 330.919 135.592 330.938 139.252 331.353C139.308 331.359 139.365 331.344 139.411 331.312C139.457 331.279 139.49 331.231 139.503 331.176C139.517 331.121 139.509 331.063 139.483 331.013C139.456 330.963 139.413 330.924 139.36 330.904Z" fill="#263238"/>
<path d="M141.623 333.016C138.179 331.577 133.67 331.194 130.391 333.166C130.258 333.241 130.391 333.416 130.491 333.407C134.155 333.032 137.848 333.051 141.507 333.466C141.564 333.475 141.623 333.463 141.672 333.431C141.721 333.4 141.756 333.351 141.771 333.294C141.786 333.238 141.779 333.178 141.751 333.127C141.724 333.075 141.678 333.036 141.623 333.016Z" fill="#263238"/>
<path d="M143.878 335.129C140.433 333.689 135.932 333.307 132.646 335.27C132.513 335.353 132.646 335.528 132.746 335.52C136.409 335.144 140.102 335.164 143.761 335.578C143.819 335.588 143.878 335.576 143.927 335.544C143.976 335.512 144.011 335.463 144.025 335.407C144.04 335.35 144.033 335.291 144.006 335.239C143.978 335.188 143.933 335.148 143.878 335.129Z" fill="#263238"/>
<path d="M103.901 323.457C100.015 321.909 97.6024 327.958 101.505 329.505C105.407 331.053 107.828 325.004 103.901 323.457Z" fill="#263238"/>
<path d="M144.552 321.052C143.379 318.897 140.609 319.43 138.92 320.503C136.075 322.409 133.78 325.028 132.264 328.099C132.257 328.113 132.254 328.127 132.253 328.142C132.253 328.157 132.257 328.172 132.263 328.186C132.269 328.199 132.279 328.211 132.29 328.221C132.302 328.23 132.316 328.237 132.33 328.241C132.33 328.515 132.513 328.84 132.838 328.773C135.991 328.049 139.444 327.675 142.273 326.011C143.895 325.046 145.659 323.09 144.552 321.052ZM137.356 326.701C135.816 327.092 134.269 327.409 132.746 327.858C134.006 326.34 135.341 324.888 136.748 323.506C137.441 322.847 138.177 322.235 138.953 321.676C140.159 320.844 144.719 319.305 143.554 323.207C142.913 325.362 139.194 326.235 137.356 326.701Z" fill="#263238"/>
<path d="M123.111 325.935C125.94 327.599 129.393 327.99 132.537 328.722C132.862 328.797 133.078 328.473 133.053 328.19C133.069 328.188 133.084 328.183 133.097 328.174C133.109 328.164 133.12 328.152 133.126 328.138C133.133 328.124 133.136 328.108 133.135 328.092C133.134 328.077 133.129 328.062 133.12 328.049C131.607 324.972 129.311 322.346 126.464 320.436C124.8 319.354 122.013 318.813 120.831 320.96C119.65 323.106 121.455 324.962 123.111 325.935ZM121.813 323.123C120.657 319.221 125.208 320.769 126.414 321.609C127.189 322.169 127.923 322.784 128.61 323.448C130.015 324.832 131.348 326.287 132.604 327.807C131.081 327.358 129.534 327.034 127.995 326.643C126.131 326.143 122.445 325.311 121.813 323.123Z" fill="#263238"/>
<path d="M139.343 319.205L100.664 303.588C100.664 303.588 148.62 233.076 148.97 227.826C149.286 223.184 128.219 182.732 127.396 170.942C126.497 158.213 132.621 148.37 139.36 142.255L179.254 159.219C179.254 159.219 175.044 165.95 168.438 169.703C168.438 169.703 188.897 216.461 187.732 230.838C186.568 245.215 139.343 319.205 139.343 319.205Z" fill="#37474F"/>
<path d="M141.058 311.85C135.467 309.445 137.106 310.053 131.482 307.69C128.736 306.542 110.682 299.029 107.903 298.405C107.844 298.405 107.803 298.488 107.861 298.521C110.266 299.994 128.47 307.191 131.24 308.289C136.906 310.519 135.3 309.82 140.991 311.983C141 311.994 141.011 312.003 141.024 312.009C141.037 312.015 141.051 312.017 141.065 312.016C141.079 312.015 141.093 312.01 141.105 312.002C141.116 311.994 141.126 311.983 141.132 311.97C141.139 311.958 141.142 311.944 141.141 311.929C141.14 311.915 141.136 311.901 141.129 311.889C141.121 311.877 141.111 311.867 141.098 311.86C141.086 311.854 141.072 311.85 141.058 311.85Z" fill="#263238"/>
<path d="M174.979 168.846C170.825 169.814 166.762 171.134 162.832 172.79C162.816 172.795 162.801 172.804 162.789 172.815C162.776 172.826 162.766 172.84 162.758 172.855C162.751 172.87 162.747 172.886 162.746 172.903C162.745 172.92 162.747 172.936 162.753 172.952C162.758 172.968 162.767 172.983 162.778 172.995C162.789 173.008 162.802 173.018 162.817 173.025C162.832 173.033 162.849 173.037 162.865 173.038C162.882 173.039 162.899 173.037 162.915 173.031C166.992 171.841 171.135 170.727 175.145 169.321C175.453 169.212 175.295 168.78 174.979 168.846Z" fill="#263238"/>
<path d="M170.227 167.232C169.839 167.922 169.498 168.636 169.204 169.37C168.917 169.928 168.739 170.535 168.68 171.159C168.68 171.284 168.846 171.309 168.921 171.234C169.338 170.735 169.675 170.173 169.919 169.57C170.26 168.913 170.61 168.264 170.934 167.59C171.159 167.099 170.485 166.783 170.227 167.232Z" fill="#263238"/>
<path d="M170.726 163.455C170.976 162.839 171.217 162.232 171.475 161.616C171.733 161.001 172.058 160.368 172.307 159.719C172.307 159.619 172.507 159.719 172.465 159.794C172.216 160.41 172.058 161.059 171.866 161.691C171.675 162.323 171.459 162.956 171.251 163.588C170.859 164.761 170.419 165.926 169.878 167.066C170.532 167.098 171.186 166.985 171.791 166.733C172.409 166.337 172.885 165.754 173.147 165.069C173.497 164.387 173.821 163.688 174.179 163.006C174.62 162.268 174.99 161.491 175.286 160.684C175.286 160.585 175.485 160.684 175.444 160.759C174.901 162.465 174.191 164.112 173.322 165.676C172.948 166.284 172.657 166.924 171.974 167.157C171.236 167.364 170.463 167.418 169.703 167.315C169.603 167.315 169.487 167.315 169.52 167.166C169.861 165.91 170.263 164.671 170.726 163.455Z" fill="#263238"/>
<path d="M169.03 171.226C170.453 174.229 171.701 177.225 173.023 180.22C174.346 183.215 175.519 186.11 176.709 189.089C179.089 195.096 181.219 201.22 183.091 207.393C184.014 210.455 184.871 213.541 185.637 216.653C186.48 219.755 187.097 222.914 187.484 226.105C187.817 229.29 187.535 232.511 186.652 235.589C185.734 238.633 184.557 241.592 183.132 244.434C182.259 246.231 181.967 245.989 182.383 245.083C183.573 242.503 186.693 234.691 186.469 228.126C186.287 224.984 185.802 221.866 185.021 218.816C184.294 215.671 183.476 212.551 182.567 209.456C180.794 203.349 178.689 197.367 176.526 191.394C175.311 188.066 174.03 184.738 172.782 181.41C171.534 178.082 170.286 175.02 168.888 171.342C168.847 171.193 168.988 171.134 169.03 171.226Z" fill="#263238"/>
<path d="M139.668 161.299C140.359 161.041 141.332 161.466 142.031 161.582C142.936 161.736 143.851 161.827 144.768 161.857C145.676 161.889 146.585 161.858 147.489 161.765C148.399 161.742 149.291 161.505 150.093 161.075C151.409 160.116 152.537 158.923 153.421 157.555C154.474 156.158 155.344 154.631 156.009 153.012C156.009 152.913 156.183 153.012 156.15 153.079C155.859 154.003 155.643 154.934 155.318 155.841C154.959 156.693 154.531 157.514 154.037 158.296C153.236 159.868 152.051 161.213 150.592 162.206C148.987 163.121 146.923 163.038 145.134 162.963C144.097 162.903 143.065 162.766 142.048 162.556C141.315 162.397 140.084 162.281 139.618 161.64C139.596 161.616 139.58 161.587 139.571 161.555C139.561 161.524 139.559 161.491 139.563 161.458C139.568 161.426 139.58 161.394 139.598 161.367C139.616 161.34 139.64 161.316 139.668 161.299Z" fill="#263238"/>
<path d="M111.704 296.191C118.061 286.562 124.301 276.856 130.424 267.071C136.548 257.287 142.588 247.428 148.545 237.494C149.968 235.123 151.607 232.76 152.522 230.131C153.521 227.277 152.955 224.506 152.056 221.711C150.36 216.611 148.376 211.611 146.116 206.735C143.886 201.818 141.482 196.984 139.119 192.133C136.756 187.283 134.285 182.49 132.463 177.432C130.799 172.598 130.125 167.589 131.423 162.58C132.721 157.572 135.516 153.146 138.436 148.977C139.202 147.879 139.992 146.789 140.766 145.649C140.824 145.566 140.949 145.649 140.891 145.749C137.671 150.092 134.534 154.693 132.646 159.793C131.68 162.307 131.141 164.964 131.048 167.656C131.033 170.388 131.457 173.104 132.305 175.701C133.869 180.76 136.34 185.544 138.644 190.303C140.949 195.062 143.412 199.987 145.683 204.888C148.026 209.82 150.109 214.871 151.923 220.022C152.697 222.31 153.587 224.706 153.521 227.16C153.462 229.848 152.181 232.269 150.85 234.532C145.026 244.391 139.06 254.134 132.987 263.818C126.913 273.503 120.665 283.187 114.342 292.772L111.946 296.391C111.821 296.541 111.604 296.366 111.704 296.191Z" fill="#263238"/>
<path d="M181.468 114.375C185.071 122.279 203.267 133.17 211.786 134.343C217.91 135.175 236.53 135.475 242.911 134.501C250.399 133.353 244.675 113.177 240.257 113.701C228.11 115.116 217.793 116.697 214.548 116.697C210.588 116.697 189.164 109.824 186.585 108.851C180.262 106.496 179.43 109.891 181.468 114.375Z" fill="#EB9481"/>
<path d="M181.584 116.48C186.143 123.227 201.294 134.26 201.294 134.26L203.399 129.6L210.363 114.192C210.363 114.192 196.444 109.824 187.283 107.827C186.205 107.582 185.109 107.426 184.005 107.361C178.156 107.045 177.649 110.656 181.584 116.48Z" fill="#F2994A"/>
<path d="M181.584 116.48C186.143 123.227 201.294 134.26 201.294 134.26L203.399 129.6C197.75 123.036 189.022 113.093 184.005 107.378C178.156 107.045 177.649 110.656 181.584 116.48Z" fill="#263238"/>
<path d="M198.565 131.131C199.722 128.294 204.864 116.871 206.145 114.491C206.228 114.325 206.361 114.341 206.286 114.491C204.056 120.172 201.517 125.727 198.682 131.131C198.648 131.231 198.515 131.198 198.565 131.131Z" fill="#263238"/>
<path d="M238.027 113.909C245.416 112.944 254.559 111.288 262.305 114.575C263.175 114.916 263.905 115.54 264.377 116.347C267.871 117.761 268.254 119.833 268.254 119.833C271.108 122.146 271.208 124.326 271.208 124.326C271.208 124.326 275.301 125.99 274.677 128.669C273.995 131.631 268.387 128.669 264.31 128.91C254.95 129.492 241.846 132.929 239.142 133.361L238.027 113.909Z" fill="#EB9481"/>
<path d="M254.076 122.629C256.813 122.442 259.56 122.442 262.297 122.629C265.277 123.003 268.225 123.601 271.116 124.418C271.135 124.424 271.155 124.423 271.173 124.414C271.191 124.406 271.205 124.391 271.211 124.372C271.218 124.353 271.217 124.332 271.208 124.314C271.2 124.296 271.184 124.283 271.166 124.276C265.735 122.145 259.824 121.547 254.076 122.546C253.943 122.529 253.943 122.637 254.076 122.629Z" fill="#263238"/>
<path d="M252.337 113.984C256.905 114.217 259.759 114.949 264.351 116.331V116.281C259.293 114.167 257.221 113.968 252.312 113.785C252.154 113.851 252.163 113.984 252.337 113.984Z" fill="#263238"/>
<path d="M253.078 130.324C251.888 130.881 252.179 131.505 254.45 132.029C256.722 132.553 266.165 132.712 265.832 136.006C265.499 139.301 252.179 138.885 248.46 137.72C244.741 136.555 239.142 133.361 239.142 133.361C241.779 132.92 247.969 131.247 253.078 130.324Z" fill="#EB9481"/>
<path d="M191.36 126.971C191.302 128.394 191.169 129.842 190.969 131.281C190.969 131.223 190.969 131.173 191.027 131.123C191.302 130.374 191.576 129.609 191.909 128.885C191.909 128.885 191.992 128.885 191.984 128.885C191.824 129.678 191.584 130.453 191.268 131.198C191.119 131.556 190.977 131.905 190.819 132.255C190.719 132.895 190.603 133.527 190.478 134.16C190.228 135.35 189.105 140.408 188.814 141.265C188.764 141.44 188.548 141.398 188.564 141.199C188.623 140.267 189.563 135 189.754 133.802C190.126 131.489 190.623 129.197 191.243 126.938C191.285 126.896 191.368 126.93 191.36 126.971Z" fill="#263238"/>
<path d="M182.708 164.802C180.486 165.942 177.624 167.714 164.728 165.177C163.896 165.01 163.114 164.811 162.299 164.569C150.21 160.942 135.675 146.723 134.884 145.716C134.884 145.716 154.095 114.574 178.664 104.782C181.701 103.575 186.726 105.905 189.48 108.809C190.47 109.849 192.625 117.495 191.801 123.685C190.978 129.875 184.921 163.662 182.708 164.802Z" fill="#F2994A"/>
<path d="M180.977 123.402C181.07 124.718 180.886 126.039 180.437 127.279C180.331 125.963 180.516 124.64 180.977 123.402Z" fill="white"/>
<path d="M172.599 144.609C172.652 145.264 172.63 145.923 172.533 146.573C172.452 147.228 172.293 147.87 172.058 148.486C172.001 147.829 172.023 147.167 172.125 146.515C172.21 145.864 172.369 145.224 172.599 144.609Z" fill="white"/>
<path d="M158.363 128.577C158.457 129.896 158.273 131.22 157.822 132.463C157.718 131.144 157.902 129.818 158.363 128.577Z" fill="white"/>
<path d="M186.46 143.528C186.513 144.185 186.491 144.847 186.393 145.5C186.313 146.154 186.154 146.797 185.919 147.413C185.862 146.756 185.884 146.094 185.986 145.441C186.07 144.787 186.229 144.145 186.46 143.528Z" fill="white"/>
<path d="M168.18 125.832C168.835 125.776 169.494 125.796 170.144 125.89C170.799 125.973 171.441 126.135 172.057 126.373C170.741 126.467 169.42 126.283 168.18 125.832Z" fill="white"/>
<path d="M152.023 141.149C153.339 141.056 154.66 141.24 155.901 141.69C154.584 141.795 153.261 141.611 152.023 141.149Z" fill="white"/>
<path d="M171.06 157.73C172.376 157.636 173.697 157.82 174.937 158.271C173.621 158.375 172.298 158.19 171.06 157.73Z" fill="white"/>
<path d="M147.04 151.706C148.356 151.614 149.677 151.798 150.917 152.247C149.601 152.351 148.278 152.167 147.04 151.706Z" fill="white"/>
<path d="M180.853 108.493C182.169 108.4 183.489 108.585 184.73 109.034C183.414 109.127 182.093 108.942 180.853 108.493Z" fill="white"/>
<path d="M176.151 113.801C175.731 114.307 175.25 114.759 174.72 115.149C174.205 115.548 173.647 115.888 173.056 116.164C173.474 115.662 173.949 115.209 174.471 114.816C174.991 114.416 175.555 114.076 176.151 113.801Z" fill="white"/>
<path d="M150.534 128.885C150.108 129.386 149.625 129.836 149.095 130.224C148.584 130.63 148.025 130.971 147.431 131.239C147.859 130.74 148.341 130.291 148.87 129.9C149.382 129.495 149.94 129.154 150.534 128.885Z" fill="white"/>
<path d="M182.524 135.691C182.099 136.195 181.616 136.648 181.085 137.039C180.573 137.444 180.015 137.785 179.421 138.054C179.847 137.55 180.33 137.098 180.86 136.706C181.375 136.306 181.933 135.965 182.524 135.691Z" fill="white"/>
<path d="M161.807 148.737C161.382 149.241 160.899 149.693 160.368 150.085C159.856 150.488 159.297 150.829 158.704 151.1C159.13 150.596 159.613 150.144 160.143 149.752C160.658 149.351 161.216 149.011 161.807 148.737Z" fill="white"/>
<path d="M190.462 117.87C190.036 118.373 189.553 118.826 189.022 119.217C188.507 119.616 187.949 119.957 187.358 120.232C187.784 119.729 188.267 119.276 188.798 118.885C189.31 118.481 189.869 118.141 190.462 117.87Z" fill="white"/>
<path d="M190.029 132.987C189.525 132.562 189.073 132.078 188.681 131.548C188.276 131.037 187.935 130.478 187.666 129.884C188.172 130.304 188.624 130.785 189.014 131.315C189.411 131.834 189.752 132.395 190.029 132.987Z" fill="white"/>
<path d="M143.853 143.404C143.349 142.978 142.896 142.495 142.505 141.964C142.104 141.45 141.764 140.892 141.49 140.3C141.994 140.726 142.446 141.209 142.838 141.74C143.241 142.252 143.582 142.811 143.853 143.404Z" fill="white"/>
<path d="M184.413 155.792C183.907 155.371 183.454 154.891 183.065 154.361C182.666 153.845 182.326 153.287 182.05 152.697C182.554 153.122 183.006 153.605 183.398 154.136C183.799 154.647 184.14 155.202 184.413 155.792Z" fill="white"/>
<path d="M164.088 120.473C163.584 120.05 163.132 119.57 162.74 119.042C162.343 118.525 162.003 117.967 161.725 117.378C162.231 117.799 162.683 118.279 163.073 118.809C163.47 119.326 163.81 119.884 164.088 120.473Z" fill="white"/>
<path d="M164.445 162.847C163.941 162.422 163.489 161.939 163.097 161.408C162.698 160.893 162.357 160.335 162.082 159.744C162.588 160.165 163.04 160.645 163.43 161.175C163.83 161.693 164.171 162.254 164.445 162.847Z" fill="white"/>
<path d="M167.898 137.854C167.399 137.426 166.95 136.944 166.558 136.415C166.152 135.905 165.811 135.346 165.543 134.751C166.045 135.177 166.494 135.66 166.883 136.19C167.287 136.702 167.628 137.261 167.898 137.854Z" fill="white"/>
<path d="M184.979 117.105C181.842 116.522 178.897 110.041 178.522 105.681C178.522 105.382 179.987 103.01 181.659 100.04C182.674 98.2348 183.747 96.1964 184.604 94.2661C184.779 93.8751 185.802 95.198 185.802 95.198L188.032 96.862L195.395 102.511C193.642 104.615 192.153 106.926 190.961 109.392C190.843 109.659 190.754 109.938 190.695 110.224C190.691 110.271 190.691 110.318 190.695 110.365C190.237 112.013 187.999 117.662 184.979 117.105Z" fill="#EB9481"/>
<path d="M190.694 110.265C190.691 110.312 190.691 110.359 190.694 110.406C190.257 110.278 189.831 110.114 189.421 109.916C181.359 106.138 184.912 95.3389 184.912 95.3389L188.074 96.903L195.437 102.552C193.683 104.656 192.194 106.967 191.002 109.433C190.87 109.699 190.767 109.977 190.694 110.265Z" fill="#263238"/>
<path d="M203.857 79.5225C203.857 79.5225 207.543 81.8604 207.559 86.0204C207.576 90.1804 205.895 94.2489 205.546 94.3986C205.196 94.5484 203.857 79.5225 203.857 79.5225Z" fill="#263238"/>
<path d="M185.569 81.6854C183.356 86.0534 183.473 99.823 186.235 103.367C190.245 108.509 197.966 110.281 202.634 105.198C207.151 100.272 206.686 82.3343 203.466 78.9897C198.782 74.0476 188.847 75.2207 185.569 81.6854Z" fill="#EB9481"/>
<path d="M197.318 92.71C197.318 92.71 197.243 92.7599 197.251 92.7932C197.301 93.7333 197.201 94.8149 196.361 95.1477C196.361 95.1477 196.361 95.206 196.361 95.1976C197.401 95.0312 197.517 93.5919 197.318 92.71Z" fill="#263238"/>
<path d="M196.461 91.7531C194.946 91.6699 194.897 94.6984 196.303 94.7733C197.709 94.8482 197.725 91.8197 196.461 91.7531Z" fill="#263238"/>
<path d="M202.451 92.6763C202.451 92.6763 202.526 92.6763 202.526 92.7595C202.476 93.6996 202.584 94.7812 203.433 95.1057C203.433 95.1057 203.433 95.1639 203.433 95.1556C202.384 94.9975 202.259 93.5582 202.451 92.6763Z" fill="#263238"/>
<path d="M203.308 91.711C204.814 91.6195 204.889 94.648 203.491 94.7312C202.093 94.8144 202.044 91.7859 203.308 91.711Z" fill="#263238"/>
<path d="M195.512 89.4479C195.91 89.3347 196.301 89.2014 196.685 89.0485C197.122 88.9694 197.52 88.7469 197.817 88.4162C197.889 88.2951 197.919 88.1537 197.902 88.0138C197.886 87.8739 197.823 87.7434 197.725 87.6424C197.5 87.4713 197.233 87.3633 196.952 87.3296C196.672 87.296 196.387 87.3379 196.128 87.4511C195.566 87.6014 195.08 87.954 194.763 88.4411C194.7 88.557 194.671 88.6886 194.68 88.8204C194.69 88.9521 194.736 89.0784 194.815 89.1844C194.894 89.2903 195.002 89.3714 195.125 89.4182C195.249 89.4649 195.383 89.4752 195.512 89.4479Z" fill="#263238"/>
<path d="M204.34 90.7874C203.935 90.6969 203.535 90.5858 203.142 90.4546C202.703 90.3966 202.296 90.1947 201.985 89.8805C201.905 89.7648 201.866 89.6254 201.875 89.4849C201.884 89.3445 201.941 89.2112 202.035 89.1068C202.25 88.9233 202.51 88.801 202.788 88.7527C203.066 88.7044 203.352 88.7318 203.616 88.8322C204.185 88.9501 204.689 89.2766 205.03 89.7474C205.102 89.8588 205.139 89.9886 205.138 90.1209C205.137 90.2531 205.097 90.3822 205.024 90.4924C204.951 90.6026 204.847 90.6892 204.726 90.7416C204.604 90.7939 204.47 90.8098 204.34 90.7874Z" fill="#263238"/>
<path d="M195.187 101.604C195.412 101.828 195.628 102.128 195.97 102.161C196.319 102.161 196.665 102.087 196.985 101.945C196.985 101.945 197.043 101.945 196.985 101.995C196.848 102.178 196.665 102.32 196.454 102.406C196.243 102.493 196.012 102.52 195.786 102.486C195.596 102.434 195.426 102.327 195.296 102.179C195.165 102.032 195.082 101.849 195.054 101.654C195.048 101.636 195.048 101.616 195.056 101.599C195.064 101.582 195.078 101.569 195.096 101.562C195.114 101.556 195.133 101.556 195.15 101.564C195.167 101.572 195.181 101.586 195.187 101.604Z" fill="#263238"/>
<path d="M200.629 97.5932C200.629 97.5932 200.67 98.991 200.629 99.6482C199.35 99.5126 198.059 99.5574 196.793 99.7814C196.494 99.8479 196.527 99.6066 196.868 99.4486C197.888 98.9825 199.024 98.8318 200.13 99.0159C200.196 98.8412 200.022 96.8527 200.13 96.861C200.633 96.9598 201.12 97.1278 201.577 97.3602C201.577 94.4316 201.111 91.5362 201.153 88.6076C201.153 88.5078 201.311 88.4911 201.328 88.6076C201.919 91.7057 202.198 94.8554 202.16 98.0092C202.168 98.367 200.878 97.7263 200.629 97.5932Z" fill="#263238"/>
<path d="M198.757 99.1499C198.426 100.022 197.81 100.758 197.01 101.238C195.754 101.746 195.346 100.606 196.611 99.5743C197.274 99.239 198.016 99.0923 198.757 99.1499Z" fill="#263238"/>
<path d="M197.451 100.98C197.318 101.088 197.169 101.175 197.01 101.238C195.853 101.704 195.395 100.78 196.327 99.8486C196.96 99.8986 197.683 100.132 197.451 100.98Z" fill="#FF99BA"/>
<path d="M184.937 93.4585C186.46 93.9244 188.207 89.3484 188.706 87.6345C189.139 86.087 189.638 81.1698 189.713 80.8287C189.788 80.4876 196.369 85.1801 200.179 84.0652C203.99 82.9503 206.578 79.4975 206.636 77.8918C206.694 76.286 201.927 72.2092 197.808 72.0012C193.69 71.7932 188.107 76.9932 188.107 76.9932C188.781 76.2279 189.394 75.41 189.938 74.5471C189.871 74.3641 187.209 75.429 186.718 77.326C186.718 77.326 187.25 74.9382 187.05 74.8966C186.851 74.855 184.779 76.8934 185.245 78.4409C185.245 78.4409 182.849 80.5126 182.633 82.7839C182.416 85.0553 183.148 92.9094 184.937 93.4585Z" fill="#263238"/>
<path d="M202.909 83.2C201.775 83.8144 200.555 84.2521 199.289 84.4979C197.869 84.6246 196.439 84.3959 195.129 83.8323C193.81 83.3225 192.584 82.5971 191.502 81.6858C190.545 80.9037 189.688 79.9469 188.665 79.248C188.407 79.065 188.116 79.4394 188.274 79.6723C189.981 82.0839 192.42 83.8811 195.229 84.7974C196.534 85.2228 197.927 85.3023 199.271 85.0281C200.616 84.754 201.866 84.1355 202.9 83.2333C202.9 83.2333 202.925 83.2 202.909 83.2Z" fill="#263238"/>
<path d="M186.526 93.0513C186.526 93.0513 184.163 88.259 182.033 89.0328C179.903 89.8065 181.201 96.4376 183.389 97.6523C183.657 97.8257 183.958 97.9432 184.272 97.9978C184.587 98.0523 184.909 98.0428 185.22 97.9698C185.531 97.8967 185.823 97.7617 186.081 97.5728C186.338 97.3838 186.555 97.1449 186.717 96.8702L186.526 93.0513Z" fill="#EB9481"/>
<path d="M182.458 90.9214C182.458 90.9214 182.408 90.9214 182.458 90.9879C183.972 91.8865 184.588 93.4839 184.954 95.1479C184.885 94.9718 184.779 94.8127 184.643 94.6817C184.506 94.5507 184.343 94.4509 184.164 94.3892C183.985 94.3275 183.795 94.3053 183.607 94.3243C183.419 94.3432 183.237 94.4028 183.074 94.499C183.024 94.499 183.074 94.5905 183.074 94.5905C183.372 94.5442 183.676 94.5914 183.946 94.7255C184.216 94.8596 184.437 95.0741 184.58 95.3393C184.818 95.7836 185.008 96.2522 185.146 96.7371C185.196 96.8951 185.47 96.8535 185.445 96.6788C185.803 94.6071 184.638 91.4705 182.458 90.9214Z" fill="#263238"/>
<path d="M170.926 114.45C169.262 123.877 179.479 155.634 186.027 161.566C195.77 170.385 213.782 176.184 220.314 178.073C223.159 178.905 231.03 158.879 228.151 157.556C221.986 154.752 202.833 148.762 201.011 147.264C199.189 145.767 188.207 129.9 183.315 120.765C176.767 108.468 171.75 109.683 170.926 114.45Z" fill="#EB9481"/>
<path d="M223.301 155.792C223.301 155.792 231.804 157.964 237.287 159.636C240.349 160.576 245.457 162.648 247.396 164.362C250.291 166.932 260.758 179.512 257.762 182.116C255.05 184.479 247.429 172.524 247.429 172.524C247.429 172.524 256.182 183.905 252.421 186.143C248.66 188.381 241.78 173.73 241.78 173.73C241.78 173.73 250.507 185.628 246.239 187.316C243.011 188.589 236.089 175.668 236.089 175.668C236.089 175.668 243.527 185.944 240.249 187.4C236.638 189.014 229.508 177.482 229.508 177.482C220.589 179.787 215.364 177.233 211.928 174.986C211.121 174.437 223.301 155.792 223.301 155.792Z" fill="#EB9481"/>
<path d="M244.65 168.388C245.732 169.686 246.83 171 247.787 172.39C248.743 173.779 249.65 175.21 250.474 176.683C251.59 178.588 252.483 180.614 253.136 182.723C251.705 179.062 248.352 174.029 247.396 172.639C246.439 171.25 245.549 169.811 244.6 168.421C244.575 168.388 244.625 168.355 244.65 168.388Z" fill="#263238"/>
<path d="M239.566 171.758C241.413 173.223 245.282 178.664 246.771 182.316C246.838 182.466 246.771 182.458 246.663 182.316C245.499 180.511 240.773 173.522 239.525 171.783C239.5 171.758 239.541 171.733 239.566 171.758Z" fill="#263238"/>
<path d="M234.683 173.887C236.978 176.295 238.791 179.119 240.024 182.207C240.083 182.357 239.966 182.332 239.874 182.207C238.152 179.404 236.821 177.215 234.591 173.962C234.558 173.887 234.633 173.813 234.683 173.887Z" fill="#263238"/>
<path d="M180.211 115.14C172.615 104.399 168.073 108.376 169.595 120.041C171.026 130.948 174.845 143.944 174.845 143.944L193.981 134.659C193.981 134.659 185.045 122.021 180.211 115.14Z" fill="#F2994A"/>
<path d="M184.829 119.367C185.081 119.973 185.263 120.607 185.37 121.255C185.487 121.906 185.529 122.567 185.495 123.227C185.245 122.617 185.066 121.981 184.962 121.33C184.838 120.684 184.794 120.024 184.829 119.367Z" fill="white"/>
<path d="M173.489 125.898C174.71 125.401 176.024 125.174 177.341 125.233C176.734 125.482 176.1 125.661 175.452 125.765C174.806 125.889 174.146 125.933 173.489 125.898Z" fill="white"/>
<path d="M173.98 109.191C173.465 110.407 172.696 111.499 171.726 112.395C172.241 111.179 173.009 110.087 173.98 109.191Z" fill="white"/>
<path d="M190.195 130.915C189.943 131.524 189.622 132.101 189.238 132.637C188.865 133.18 188.43 133.677 187.94 134.118C188.456 132.902 189.224 131.81 190.195 130.915Z" fill="white"/>
<path d="M176.883 137.43C176.273 137.18 175.695 136.859 175.161 136.473C174.618 136.1 174.121 135.664 173.68 135.175C174.896 135.69 175.988 136.459 176.883 137.43Z" fill="white"/>
<path d="M182.708 118.377C183.732 119.784 184.788 121.156 185.836 122.537C185.57 121.839 185.337 121.131 185.138 120.416H185.188C185.396 120.965 185.637 121.506 185.836 122.08L186.136 122.912C186.162 122.969 186.184 123.027 186.203 123.087C187.035 124.16 187.867 125.233 188.632 126.331C189.572 127.646 190.479 128.977 191.394 130.308C192.309 131.64 193.233 133.295 194.223 134.635C194.315 134.751 192.559 135.467 192.368 135.558C192.176 135.65 192.076 135.492 192.26 135.433C192.443 135.375 193.84 134.518 193.857 134.502C192.942 133.154 191.885 131.914 190.928 130.608C189.972 129.302 189.023 127.995 188.1 126.672C186.228 123.977 184.514 121.181 182.65 118.477L182.708 118.377Z" fill="#263238"/>
<path d="M170.045 127.762C170.336 128.327 170.652 128.885 170.877 129.467L171.193 130.191C170.752 128.119 170.361 126.031 169.903 123.959C170.785 127.287 171.675 130.69 172.491 134.068C173.265 137.296 174.205 140.558 174.654 143.853C175.234 143.598 175.836 143.395 176.451 143.245C175.833 143.645 175.168 143.966 174.471 144.202C173.468 140.852 172.635 137.453 171.975 134.018C171.767 133.087 171.576 132.155 171.376 131.223C171.16 130.657 170.902 130.116 170.644 129.559C170.386 129.001 170.153 128.377 169.92 127.787C169.97 127.753 170.028 127.72 170.045 127.762Z" fill="#263238"/>
<path d="M175.128 140.733C177.791 139.236 188.915 133.478 191.402 132.413C191.577 132.338 191.668 132.413 191.494 132.53C186.214 135.598 180.77 138.375 175.187 140.85C175.12 140.866 175.053 140.775 175.128 140.733Z" fill="#263238"/>
<path d="M479.999 359.466H226.505L263.154 151.59H516.648L479.999 359.466Z" fill="#F2994A"/>
<path d="M349.915 130.058H266.957L263.154 151.59H351.937L349.915 130.058Z" fill="#F2994A"/>
<g opacity="0.1">
<path opacity="0.1" d="M479.999 359.466H226.505L263.154 151.59H516.648L479.999 359.466Z" fill="black"/>
<path opacity="0.1" d="M349.915 130.058H266.957L263.154 151.59H351.937L349.915 130.058Z" fill="black"/>
</g>
<path d="M258.003 138.844C257.449 136.463 257.449 133.987 258.003 131.606C258.558 133.987 258.558 136.463 258.003 138.844Z" fill="#263238"/>
<path d="M250.632 140.974C249.785 140.095 249.055 139.111 248.461 138.045C247.837 137.002 247.348 135.884 247.005 134.717C247.855 135.591 248.585 136.573 249.176 137.638C249.799 138.685 250.288 139.806 250.632 140.974Z" fill="#263238"/>
<path d="M245.307 146.507C242.97 145.796 240.826 144.558 239.042 142.888C240.209 143.227 241.327 143.713 242.37 144.335C243.436 144.934 244.423 145.663 245.307 146.507Z" fill="#263238"/>
<path d="M243.444 153.961C241.063 154.516 238.586 154.516 236.206 153.961C238.586 153.407 241.063 153.407 243.444 153.961Z" fill="#263238"/>
<path d="M245.608 161.333C244.726 162.176 243.742 162.906 242.679 163.505C241.636 164.127 240.517 164.614 239.351 164.953C240.23 164.106 241.214 163.376 242.28 162.781C243.321 162.156 244.44 161.669 245.608 161.333Z" fill="#263238"/>
<path d="M251.132 166.65C250.424 168.991 249.185 171.138 247.513 172.923C247.851 171.755 248.341 170.637 248.969 169.595C249.562 168.526 250.289 167.536 251.132 166.65Z" fill="#263238"/>
<path d="M258.586 168.488C258.876 169.672 259.016 170.888 259.002 172.107C259.02 173.327 258.88 174.543 258.586 175.727C258.288 174.544 258.148 173.327 258.17 172.107C258.156 170.888 258.296 169.672 258.586 168.488Z" fill="#263238"/>
<path d="M265.958 166.399C266.806 167.278 267.536 168.262 268.13 169.328C268.755 170.37 269.242 171.489 269.578 172.656C267.905 170.871 266.667 168.724 265.958 166.383V166.399Z" fill="#263238"/>
<path d="M271.274 160.826C272.442 161.162 273.561 161.648 274.602 162.273C275.668 162.868 276.653 163.598 277.531 164.445C276.364 164.109 275.245 163.622 274.203 162.997C273.137 162.403 272.153 161.673 271.274 160.826Z" fill="#263238"/>
<path d="M273.113 153.371C275.497 152.816 277.976 152.816 280.36 153.371C277.976 153.926 275.497 153.926 273.113 153.371Z" fill="#263238"/>
<path d="M270.983 145.999C271.864 145.157 272.848 144.43 273.912 143.836C274.952 143.205 276.071 142.715 277.24 142.38C275.455 144.052 273.308 145.291 270.967 145.999H270.983Z" fill="#263238"/>
<path d="M265.451 140.683C265.793 139.518 266.28 138.4 266.898 137.355C267.493 136.289 268.223 135.305 269.07 134.426C268.734 135.594 268.247 136.713 267.622 137.754C267.028 138.82 266.298 139.804 265.451 140.683Z" fill="#263238"/>
<path d="M479.624 359.465H225.589L189.514 159.136H443.557L479.624 359.465Z" fill="#F2994A"/>
<path d="M277.547 281.599C283.378 281.599 288.105 276.872 288.105 271.041C288.105 265.21 283.378 260.483 277.547 260.483C271.716 260.483 266.989 265.21 266.989 271.041C266.989 276.872 271.716 281.599 277.547 281.599Z" fill="#263238"/>
<path d="M361.014 281.599C366.845 281.599 371.572 276.872 371.572 271.041C371.572 265.21 366.845 260.483 361.014 260.483C355.183 260.483 350.456 265.21 350.456 271.041C350.456 276.872 355.183 281.599 361.014 281.599Z" fill="#263238"/>
<path d="M334.448 283.288L333.866 282.181C333.816 282.081 328.358 271.997 317.384 271.997C307.4 271.997 304.904 281.491 304.837 281.898L304.538 283.105L302.117 282.522L302.408 281.308C302.408 281.191 305.386 269.501 317.384 269.501C329.864 269.501 335.829 280.55 336.079 281.025L336.661 282.123L334.448 283.288Z" fill="#263238"/>
<path d="M462.851 270.234L462.676 269.402C463.217 269.285 463.749 269.16 464.281 269.019L464.489 269.851C463.924 269.992 463.4 270.117 462.851 270.234Z" fill="#263238"/>
<path d="M467.71 268.894L467.443 268.112C468.483 267.754 469.523 267.363 470.53 266.939L470.855 267.704C469.831 268.137 468.775 268.536 467.71 268.894ZM473.908 266.24L473.534 265.508C474.507 265 475.48 264.451 476.404 263.844L476.837 264.551C475.888 265.208 474.898 265.766 473.908 266.24ZM479.632 262.721L479.141 262.047C480.04 261.389 480.905 260.699 481.72 259.992L482.27 260.616C481.396 261.373 480.564 262.08 479.624 262.754L479.632 262.721ZM484.707 258.294L484.1 257.72C484.865 256.888 485.589 256.056 486.255 255.224L486.912 255.732C486.222 256.647 485.481 257.504 484.724 258.328L484.707 258.294ZM488.826 252.97L488.119 252.529C488.694 251.599 489.205 250.632 489.649 249.633L490.415 249.974C489.945 251.015 489.411 252.027 488.817 253.003L488.826 252.97ZM491.58 246.796L490.748 246.563C491.052 245.519 491.277 244.454 491.422 243.377L492.254 243.485C492.116 244.616 491.888 245.735 491.571 246.829L491.58 246.796ZM492.503 240.14H491.671V239.899C491.671 238.892 491.613 237.869 491.513 236.862L492.345 236.779C492.454 237.815 492.51 238.857 492.511 239.899L492.503 240.14ZM491.006 233.626C490.782 232.553 490.504 231.492 490.174 230.447L491.006 230.198C491.347 231.279 491.638 232.378 491.838 233.451L491.006 233.626ZM489.034 227.361C488.634 226.379 488.202 225.372 487.669 224.357L488.418 223.983C488.926 225.014 489.391 226.046 489.799 227.044L489.034 227.361ZM486.122 221.428C485.606 220.522 485.04 219.565 484.458 218.583L485.165 218.142C485.772 219.132 486.346 220.097 486.829 221.021L486.122 221.428ZM482.644 215.779C482.037 214.864 481.421 213.94 480.789 213.017L481.479 212.551C482.111 213.475 482.727 214.398 483.335 215.33L482.644 215.779ZM478.9 210.271C478.276 209.356 477.644 208.433 477.028 207.517L477.719 207.052C478.334 207.967 478.958 208.89 479.582 209.797L478.9 210.271ZM475.181 204.73C474.574 203.798 473.983 202.85 473.4 201.901L474.108 201.469C474.69 202.417 475.281 203.349 475.88 204.281L475.181 204.73ZM471.711 199.014C471.146 198.008 470.622 197.009 470.147 196.052L470.896 195.678C471.362 196.627 471.886 197.608 472.435 198.607L471.711 199.014ZM468.758 193.024C468.317 191.984 467.926 190.927 467.56 189.896L468.392 189.629C468.741 190.636 469.132 191.676 469.565 192.7L468.758 193.024ZM466.595 186.676C466.32 185.594 466.079 184.488 465.896 183.348L466.728 183.215C466.911 184.28 467.135 185.361 467.41 186.426L466.595 186.676ZM465.48 180.02C465.397 178.996 465.355 177.965 465.355 176.933V176.659H466.187V176.925C466.187 177.932 466.187 178.947 466.312 179.945L465.48 180.02ZM466.312 173.364L465.48 173.281C465.48 173.056 465.521 172.823 465.546 172.582C465.646 171.692 465.771 170.801 465.921 169.953L466.753 170.094C466.611 170.926 466.487 171.8 466.387 172.673C466.42 172.931 466.42 173.156 466.353 173.389L466.312 173.364ZM467.468 166.891L466.636 166.666C466.944 165.568 467.302 164.495 467.701 163.471L468.475 163.771C468.097 164.801 467.775 165.851 467.51 166.916L467.468 166.891ZM508.927 162.04C508.461 162.04 507.978 161.974 507.504 161.907C506.855 161.816 506.206 161.708 505.566 161.583L505.732 160.751C506.348 160.867 506.988 160.975 507.621 161.067C508.07 161.125 508.528 161.167 508.968 161.192L508.927 162.04ZM512.346 161.782L512.172 160.95C513.216 160.735 514.217 160.347 515.134 159.802L515.566 160.509C514.586 161.116 513.512 161.554 512.388 161.807L512.346 161.782ZM469.864 160.792L469.124 160.401C469.654 159.409 470.24 158.448 470.879 157.523L471.562 157.997C470.954 158.903 470.401 159.845 469.906 160.817L469.864 160.792ZM502.312 160.742C501.238 160.402 500.183 160.005 499.151 159.553L499.492 158.787C500.492 159.232 501.517 159.618 502.562 159.944L502.312 160.742ZM518.12 158.147L517.43 157.681C518.022 156.821 518.373 155.818 518.445 154.777L519.277 154.835C519.206 156.029 518.815 157.181 518.145 158.172L518.12 158.147ZM496.156 158.022C495.182 157.456 494.24 156.836 493.335 156.166L493.826 155.501C494.707 156.151 495.624 156.751 496.572 157.298L496.156 158.022ZM473.608 155.426L472.993 154.868C473.746 154.031 474.549 153.239 475.397 152.497L475.946 153.121C475.13 153.852 474.358 154.629 473.633 155.451L473.608 155.426ZM490.739 154.02C489.911 153.256 489.125 152.448 488.385 151.599L489.009 151.05C489.729 151.875 490.493 152.661 491.297 153.404L490.739 154.02ZM517.821 151.765C517.344 150.814 516.686 149.966 515.882 149.269L516.432 148.645C517.316 149.41 518.042 150.34 518.57 151.382L517.821 151.765ZM478.534 151.108L478.06 150.426C478.991 149.79 479.954 149.204 480.947 148.67L481.338 149.402C480.382 149.93 479.454 150.508 478.559 151.133L478.534 151.108ZM486.305 148.945C485.989 148.495 485.681 148.038 485.39 147.564L484.308 147.988L483.992 147.222L484.949 146.84C484.799 146.59 484.649 146.34 484.508 146.091L485.231 145.683C485.398 145.974 485.564 146.266 485.739 146.515C486.205 146.349 486.679 146.191 487.162 146.041L487.403 146.873C486.995 146.998 486.571 147.131 486.188 147.272C486.446 147.68 486.712 148.104 487.02 148.462L486.305 148.945ZM513.203 147.514C512.398 147.112 511.564 146.773 510.707 146.499L510.158 146.324L510.4 145.492L510.965 145.675C511.857 145.959 512.725 146.312 513.561 146.732L513.203 147.514ZM490.59 146.024L490.415 145.192C491.488 144.951 492.603 144.751 493.743 144.593L493.868 145.425C492.769 145.6 491.68 145.808 490.615 146.049L490.59 146.024ZM506.98 145.575C505.94 145.392 504.842 145.251 503.719 145.151L503.785 144.319C504.942 144.419 506.065 144.56 507.113 144.751L506.98 145.575ZM497.121 145.092L497.063 144.26C498.053 144.202 499.043 144.169 500.024 144.169H500.432V145.001H500.033C499.093 145.026 498.111 145.051 497.146 145.117L497.121 145.092ZM483.06 143.104C482.611 142.089 482.228 141.032 481.854 139.959L482.686 139.701C483.035 140.749 483.426 141.781 483.859 142.771L483.06 143.104ZM480.955 136.714C480.705 135.641 480.497 134.526 480.339 133.386L481.171 133.27C481.329 134.368 481.529 135.458 481.77 136.515L480.955 136.714ZM480.023 130.058C479.982 129.309 479.957 128.544 479.957 127.779C479.957 127.421 479.957 127.055 479.957 126.697H480.789C480.789 127.055 480.789 127.404 480.789 127.762C480.789 128.511 480.789 129.268 480.847 129.992L480.023 130.058ZM481.013 123.402L480.181 123.319C480.298 122.221 480.456 121.098 480.647 119.991L481.479 120.132C481.255 121.239 481.096 122.304 480.988 123.419L481.013 123.402ZM482.153 116.904L481.321 116.705C481.587 115.631 481.895 114.55 482.236 113.468L483.068 113.726C482.694 114.816 482.386 115.873 482.128 116.921L482.153 116.904ZM484.15 110.606L483.376 110.307C483.784 109.267 484.208 108.227 484.716 107.22L485.464 107.586C484.965 108.584 484.524 109.599 484.125 110.656L484.15 110.606ZM487.012 104.674L486.288 104.25C486.854 103.293 487.461 102.336 488.094 101.421L488.776 101.895C488.127 102.81 487.536 103.742 486.987 104.691L487.012 104.674ZM490.764 99.2576L490.115 98.7334C490.814 97.9014 491.563 97.0195 492.337 96.2374L492.936 96.8115C492.154 97.5936 491.422 98.4256 490.739 99.2742L490.764 99.2576ZM495.29 94.4653L494.733 93.8496C495.565 93.1091 496.397 92.3769 497.287 91.6697L497.803 92.327C496.913 93.0342 496.064 93.7581 495.265 94.4819L495.29 94.4653ZM500.457 90.3552L499.983 89.6646C500.89 89.0406 501.838 88.4249 502.803 87.8425L503.228 88.5497C502.263 89.1405 501.364 89.7478 500.432 90.3718L500.457 90.3552ZM506.106 86.919L505.715 86.1869C506.697 85.6627 507.712 85.1635 508.727 84.6976L509.077 85.4547C508.02 85.9289 507.047 86.4281 506.081 86.9357L506.106 86.919ZM512.122 84.1568L511.814 83.3747C512.862 82.967 513.919 82.5427 514.967 82.2349L515.233 83.0669C514.177 83.383 513.129 83.7657 512.097 84.1734L512.122 84.1568Z" fill="#263238"/>
<path d="M518.536 82.0521L518.328 81.2201C519.36 80.9539 519.992 80.8374 519.992 80.8374L520.142 81.6694C520.142 81.6694 519.543 81.7942 518.536 82.0521Z" fill="#263238"/>
<path d="M533.245 76.6771C531.124 70.1043 516.913 72.4671 519.684 81.0617C522.454 89.6562 535.367 83.2582 533.245 76.6771Z" fill="#263238"/>
<path d="M511.955 74.0484C512.064 71.1613 516.074 68.9399 521.748 69.9632C527.422 70.9866 532.755 74.8138 532.755 74.8138C532.755 74.8138 527.156 78.2084 521.423 78.8324C515.691 79.4564 511.847 76.9271 511.955 74.0484Z" fill="#EBEBEB"/>
<path d="M532.755 74.7969C529.81 74.7969 526.873 74.7137 523.936 74.6222C520.999 74.5307 518.054 74.3809 515.117 74.1479C518.062 74.1479 521.007 74.2228 523.944 74.3143C526.881 74.4059 529.826 74.5556 532.755 74.7969Z" fill="#263238"/>
<path d="M517.654 71.4771C519.326 72.277 520.903 73.2621 522.355 74.414C521.518 74.0214 520.706 73.5768 519.925 73.0828C519.137 72.5923 518.379 72.0561 517.654 71.4771Z" fill="#263238"/>
<path d="M525.367 74.5229C523.862 75.7428 522.23 76.7971 520.5 77.6679C522.012 76.4466 523.653 75.3922 525.392 74.5229H525.367Z" fill="#263238"/>
<path d="M526.224 72.8999C527.064 73.303 527.799 73.8954 528.371 74.6305C527.951 74.4323 527.557 74.1837 527.198 73.89C526.836 73.5981 526.51 73.266 526.224 72.8999Z" fill="#263238"/>
<path d="M517.363 91.1462C519.135 93.4259 523.686 92.8768 527.688 88.7334C531.69 84.5901 533.812 78.3584 533.812 78.3584C533.812 78.3584 527.256 78.8576 522.255 81.6864C517.255 84.5152 515.583 88.8582 517.363 91.1462Z" fill="#EBEBEB"/>
<path d="M533.812 78.3584C531.416 80.0224 529.086 81.8694 526.748 83.6582C524.41 85.447 522.122 87.2941 519.884 89.1994C522.28 87.5354 524.61 85.6966 526.94 83.9078C529.269 82.119 531.541 80.272 533.812 78.3584Z" fill="#263238"/>
<path d="M523.478 89.8566C523.923 89.0484 524.32 88.215 524.668 87.3606C525.022 86.5038 525.322 85.6257 525.566 84.7314C525.12 85.5389 524.723 86.3724 524.377 87.2275C524.026 88.0855 523.726 88.9634 523.478 89.8566Z" fill="#263238"/>
<path d="M527.988 82.901C526.041 82.797 524.088 82.9002 522.164 83.2089C523.133 83.2671 524.106 83.2671 525.076 83.2089C526.051 83.1613 527.023 83.0585 527.988 82.901Z" fill="#263238"/>
<path d="M529.594 83.7249C529.816 83.314 529.989 82.8784 530.11 82.427C530.233 81.9789 530.305 81.5184 530.326 81.0542C529.884 81.8778 529.633 82.7908 529.594 83.7249Z" fill="#263238"/>
<path d="M533.246 76.6781C532.776 76.8307 532.271 76.8404 531.796 76.706C531.321 76.5716 530.896 76.2991 530.575 75.9231C530.255 75.5471 530.053 75.0845 529.996 74.5938C529.939 74.1031 530.028 73.6064 530.253 73.1667C530.478 72.7269 530.829 72.3639 531.261 72.1235C531.692 71.8831 532.185 71.7762 532.678 71.8164C533.17 71.8565 533.64 72.0418 534.027 72.3489C534.414 72.656 534.701 73.071 534.852 73.5414C535.053 74.1703 534.998 74.8536 534.697 75.4415C534.396 76.0294 533.874 76.4741 533.246 76.6781Z" fill="#455A64"/>
<path d="M534.776 81.4279C534.307 81.5799 533.802 81.5892 533.328 81.4547C532.853 81.3202 532.428 81.0479 532.108 80.6722C531.788 80.2966 531.586 79.8344 531.529 79.3442C531.471 78.854 531.56 78.3577 531.785 77.9181C532.009 77.4785 532.359 77.1153 532.79 76.8745C533.221 76.6336 533.713 76.5259 534.205 76.565C534.697 76.604 535.167 76.7881 535.554 77.0938C535.941 77.3996 536.23 77.8134 536.382 78.2829C536.483 78.5949 536.522 78.9237 536.496 79.2506C536.47 79.5775 536.38 79.8961 536.231 80.1882C536.082 80.4802 535.876 80.74 535.627 80.9528C535.377 81.1655 535.088 81.327 534.776 81.4279Z" fill="#455A64"/>
<path d="M262.005 79.3063C261.607 83.1278 260.154 86.7634 257.809 89.8073C255.465 92.8512 252.32 95.1837 248.727 96.5445C245.134 97.9053 241.233 98.2409 237.46 97.5138C233.688 96.7868 230.191 95.0256 227.361 92.4269L216.986 93.9495L222.178 84.9805C220.99 82.0622 220.484 78.9117 220.696 75.7683C220.909 72.6248 221.835 69.5712 223.405 66.8394C224.974 64.1075 227.145 61.7692 229.754 60.0022C232.362 58.2351 235.339 57.0857 238.458 56.6414C241.577 56.197 244.757 56.4693 247.755 57.4376C250.753 58.4059 253.491 60.0447 255.761 62.2296C258.031 64.4145 259.773 67.0879 260.855 70.0469C261.937 73.0059 262.33 76.1725 262.005 79.3063Z" fill="white"/>
<path d="M262.005 79.3057C261.615 83.1252 260.175 86.7622 257.845 89.8138C256.707 91.3572 255.334 92.7131 253.777 93.8324C252.254 94.9936 250.573 95.9321 248.785 96.6196C246.996 97.3241 245.117 97.7722 243.202 97.9508C242.245 98.0367 241.283 98.0561 240.324 98.009C239.36 97.9843 238.401 97.8841 237.453 97.7095C233.629 97.006 230.077 95.2515 227.195 92.6426L227.436 92.7175L217.077 94.3066L216.32 94.4231L216.703 93.7575L221.861 84.7719V85.1297C220.644 82.1574 220.127 78.9451 220.349 75.741C220.571 72.5369 221.527 69.4267 223.143 66.6509C224.757 63.8839 226.975 61.5175 229.632 59.7287C232.285 57.9637 235.304 56.8222 238.461 56.39C241.618 55.9577 244.832 56.2458 247.861 57.2327C250.859 58.2526 253.591 59.9297 255.857 62.1415C258.118 64.3477 259.847 67.04 260.912 70.014C261.977 72.988 262.351 76.1656 262.005 79.3057ZM262.005 79.3057C262.342 76.1811 261.955 73.021 260.876 70.0694C259.797 67.1179 258.054 64.4538 255.782 62.2828C253.51 60.1119 250.769 58.4922 247.771 57.5487C244.774 56.6053 241.599 56.3634 238.493 56.8417C235.418 57.2968 232.489 58.4525 229.932 60.2196C227.397 62.0005 225.279 64.3114 223.725 66.9921C222.195 69.6787 221.294 72.6767 221.088 75.7613C220.885 78.8669 221.386 81.9781 222.552 84.8634L222.627 85.0465L222.527 85.2212L217.302 94.1735L216.936 93.6244L227.319 92.1684H227.461L227.561 92.2599C230.336 94.8433 233.776 96.6034 237.495 97.3434C238.421 97.5322 239.362 97.6463 240.307 97.6845C241.251 97.7511 242.199 97.7511 243.144 97.6845C245.038 97.5319 246.903 97.1204 248.685 96.4615C250.472 95.8111 252.153 94.9029 253.677 93.7658C255.228 92.6556 256.602 91.3177 257.754 89.7972C260.114 86.7603 261.585 83.1286 262.005 79.3057Z" fill="#263238"/>
<path d="M231.247 86.8185C231.231 86.5431 231.271 86.2673 231.366 86.0083C231.461 85.7492 231.609 85.5125 231.799 85.3128C231.99 85.1131 232.219 84.9546 232.473 84.8472C232.727 84.7399 233.001 84.6859 233.277 84.6886C233.841 84.6886 234.383 84.913 234.783 85.3124C235.182 85.7119 235.407 86.2536 235.407 86.8185C235.407 87.3834 235.182 87.9252 234.783 88.3246C234.383 88.724 233.841 88.9484 233.277 88.9484C233.001 88.9512 232.727 88.8972 232.473 88.7898C232.219 88.6824 231.99 88.524 231.799 88.3242C231.609 88.1245 231.461 87.8878 231.366 87.6288C231.271 87.3698 231.231 87.094 231.247 86.8185ZM232.079 81.9014L231.596 65.3945H234.924L234.441 81.9014H232.079Z" fill="#F2994A"/>
<path d="M239.159 86.8185C239.143 86.5438 239.183 86.2687 239.278 86.0102C239.372 85.7518 239.519 85.5155 239.708 85.3159C239.898 85.1163 240.126 84.9576 240.379 84.8497C240.633 84.7419 240.905 84.687 241.18 84.6886C241.745 84.6886 242.287 84.913 242.686 85.3125C243.086 85.7119 243.31 86.2536 243.31 86.8185C243.31 87.3834 243.086 87.9252 242.686 88.3246C242.287 88.7241 241.745 88.9485 241.18 88.9485C240.905 88.9501 240.633 88.8952 240.379 88.7873C240.126 88.6795 239.898 88.5208 239.708 88.3212C239.519 88.1216 239.372 87.8853 239.278 87.6268C239.183 87.3684 239.143 87.0933 239.159 86.8185ZM239.991 81.9014L239.533 65.3945H242.861L242.378 81.9014H239.991Z" fill="#F2994A"/>
<path d="M247.062 86.8185C247.046 86.5431 247.087 86.2673 247.182 86.0083C247.277 85.7492 247.425 85.5125 247.615 85.3128C247.805 85.1131 248.035 84.9546 248.289 84.8472C248.543 84.7399 248.817 84.6859 249.093 84.6886C249.657 84.6886 250.199 84.913 250.599 85.3124C250.998 85.7119 251.222 86.2536 251.222 86.8185C251.222 87.3834 250.998 87.9252 250.599 88.3246C250.199 88.724 249.657 88.9484 249.093 88.9484C248.817 88.9512 248.543 88.8972 248.289 88.7898C248.035 88.6824 247.805 88.524 247.615 88.3242C247.425 88.1245 247.277 87.8878 247.182 87.6288C247.087 87.3698 247.046 87.094 247.062 86.8185ZM247.894 81.9014L247.412 65.3945H250.74L250.266 81.9014H247.894Z" fill="#F2994A"/>
</svg>
