<svg width="64" height="64" viewBox="0 0 64 64" fill="none" xmlns="http://www.w3.org/2000/svg">
<path d="M26.5015 37.4984C20.3928 31.3897 19.0135 25.281 18.7023 22.8335C18.6154 22.1568 18.8482 21.4782 19.3324 20.9974L24.2758 16.0562C25.003 15.3294 25.1321 14.1968 24.587 13.3251L16.7161 1.10333C16.1131 0.138088 14.8749 -0.210278 13.8571 0.298917L1.22148 6.24981C0.398372 6.65512 -0.0857686 7.52965 0.00768616 8.44237C0.669755 14.732 3.41182 30.1935 18.6063 45.3891C33.8008 60.5847 49.2601 63.3257 55.5531 63.9878C56.4658 64.0812 57.3403 63.5971 57.7456 62.774L63.6965 50.1384C64.2038 49.1227 63.8577 47.8879 62.8965 47.2837L50.6747 39.4151C49.8035 38.8694 48.671 38.9976 47.9437 39.724L43.0024 44.6675C42.5217 45.1516 41.843 45.3845 41.1663 45.2975C38.7189 44.9864 32.6102 43.6071 26.5015 37.4984Z" fill="#2F80ED"/>
<path d="M50.7586 34.2071C49.5398 34.2071 48.5517 33.219 48.5517 32.0002C48.5414 22.8632 41.137 15.4588 32 15.4485C30.7812 15.4485 29.7931 14.4604 29.7931 13.2416C29.7931 12.0227 30.7812 11.0347 32 11.0347C43.5736 11.0474 52.9527 20.4265 52.9655 32.0002C52.9655 33.219 51.9774 34.2071 50.7586 34.2071Z" fill="#F2994A"/>
<path d="M61.7931 34.2069C60.5743 34.2069 59.5862 33.2188 59.5862 32C59.5692 16.7716 47.2284 4.43082 32 4.41379C30.7812 4.41379 29.7931 3.42573 29.7931 2.2069C29.7931 0.988061 30.7812 0 32 0C49.665 0.0194603 63.9805 14.335 64 32C64 32.5853 63.7675 33.1466 63.3536 33.5605C62.9397 33.9744 62.3784 34.2069 61.7931 34.2069Z" fill="#F2994A"/>
</svg>
